<svg xmlns="http://www.w3.org/2000/svg" viewBox="0 0 243.79 213.23"><defs><style>.cls-1{fill:#ffb619;}.cls-2{fill:#3a2884;}.cls-3{fill:none;stroke:#3a2884;stroke-miterlimit:10;stroke-width:7px;}</style></defs><title>Icono BJ- A</title><g id="Capa_1" data-name="Capa 1"><path class="cls-1" d="M51.92,164.26a44.65,44.65,0,1,1,44.73,44.56A44.56,44.56,0,0,1,51.92,164.26Zm44.64-33a33,33,0,1,0,33,33A33.17,33.17,0,0,0,96.56,131.21Z" transform="translate(-19.23 -30.5)"/><path class="cls-1" d="M66.9,204.65,56.29,194l.59-.73a5.49,5.49,0,0,0-.65.52Q39,211,21.79,228.21c-2.86,2.87-3.35,6.82-1.32,9.88,2.72,4.09,8.29,4.57,11.94.94,7.61-7.55,15.15-15.16,22.74-22.73C59.26,212.2,63.4,208.12,66.9,204.65Z" transform="translate(-19.23 -30.5)"/><path class="cls-1" d="M97,136.56a27.73,27.73,0,0,0-19.42,7.53c-2,1.81-2.07,4.19-.35,5.69,1.56,1.35,3.23,1.15,5.19-.62a20.62,20.62,0,0,1,26.76-1.28c.65.5,1.24,1.09,1.87,1.63,1.82,1.55,3.79,1.52,5.21-.07a3.5,3.5,0,0,0-.41-5.05A27.2,27.2,0,0,0,97,136.56Z" transform="translate(-19.23 -30.5)"/><g id="path484"><path class="cls-2" d="M243.06,59.23c0-2-8-.72-8-.72,3.25-3-13.86,1.53-13.86,1.53-.76-2.89-20.21,5.11-23,6.55-1.87,1-2.43,3.68-2.6,4.83a5.35,5.35,0,0,1-.27,1.28A8.62,8.62,0,0,1,188,78.44c-5.44.73-8-1.44-9.18-2.94a2.51,2.51,0,0,1-.56-1.24,15.94,15.94,0,0,0,1.61-6.65,2.07,2.07,0,0,1,.82-.49,3.89,3.89,0,0,1,1-.15c.74-2.92-1.81-2.64-1.81-2.64a3.53,3.53,0,0,0-.53-1.77,5,5,0,0,1,.26-5.48,1.05,1.05,0,0,0,.77.35c.9.1.87-.89.87-.89a1.66,1.66,0,0,0-.66-1.17c-.79-.69-1.7.19-1.7.19-1.56.76-2,3.52-1.94,5.3a4.72,4.72,0,0,0,.71,2.57c-1.38.09-4.69,2.76-5.09,3.13s-.09.44-.09.44c.52.64-.11,2.26-.11,2.26a73.05,73.05,0,0,0-2.67,8.7,3.09,3.09,0,0,0-.14.74c-.71,1-3.2.75-3.2.75-3.61-.16-7.16-4-9.14-8.59l-.88-1.78a10.6,10.6,0,0,0-4-4,12,12,0,0,0-2.91-.93c-15-2.76-23.44-2-26.43-1.52s-1,1.29-1,1.29-9.55-.41-10.17,1.89c0,0-1.75.9-.15,1.79l.54.25a15.3,15.3,0,0,0,5.16.38s-4.78,3.34,9,3.25c0,0-5.34,3,11.79,2.35,0,0-6.4,4,6,1.69,0,0-6,3.69,2.31,2.92l.53,0c-4.57,2.72,2.24,2.29,2.24,2.29-5.64,4.79,1.06,2.6,1.06,2.6-4.72,4.67,2.22,2.4,2.22,2.4-2.57,4.65,2.89,1.9,2.89,1.9-4.44,7.86,2.46,2.66,2.46,2.66-3.74,8.36,3.48,1.19,3.48,1.19-1.7,6.84,3.27,2.25,3.27,2.25-.41,4,2.87.74,2.87.74.94,2.65,2.9.06,2.9.06.4-.51.91.12.91.12-.74,3.36.11,4.7.11,4.7-.71-.37-1,.07-1,.07-.41-.09-1.13.45-1.13.45a1.59,1.59,0,0,1-.53,0c-.43,0-.61.6-.61.6a3.35,3.35,0,0,0-2.22-.17s-1.2.26-1.65-.21-.12-1.25,0-1.61a3.37,3.37,0,0,0,.26-1.17c0-.37-.2-.89-.55-.89-.56,0-.6.73-.6.73a2.84,2.84,0,0,1-.52,1.45,2.75,2.75,0,0,0-.33,2,2,2,0,0,0,1.17,1.31,3.74,3.74,0,0,0,2.88,0c.91-.09,1,.47,1.16.7s.15.49.59.59a1.92,1.92,0,0,1,.7.29,1.18,1.18,0,0,0,1.52.2,7.26,7.26,0,0,0,.67.52,1.6,1.6,0,0,1,.5.72l.21.73a13.25,13.25,0,0,0-2.09,3.16L148.34,93.2l-1.88-.14L147,95l20.32,15.34-4.15.67a1.67,1.67,0,0,0-3.22.47,2.26,2.26,0,0,0,.44,1.46.77.77,0,0,0-.38,1,.91.91,0,0,0-.29.88.87.87,0,0,0-.27,1,.82.82,0,0,0-.43,1,1,1,0,0,0-.61,1.06c-.47,0-.61.62-.61.62a8.63,8.63,0,0,0-2.84-2c-.54-.2-.5.43,0,1.46a13.12,13.12,0,0,0,2,2.6s-.79-.18-1.81-.47a3.12,3.12,0,0,0-2,0,16.77,16.77,0,0,1-2.6,1c-1.1.29-.19.6-.19.6a11.06,11.06,0,0,0,5.67.79c-2.68,1.3-3,2.84-3,2.84l-.24.19a.72.72,0,0,0-.87.25.94.94,0,0,0-1.08-.08c-.74-.73-1.26-.17-1.26-.17a1.3,1.3,0,0,0-1.53-.15c-2.1.08-1.75,2.65,3.83,5.4,5.38,2.67,6.35,1.71,7.34,1.38s3,.79,4,1.54a3.26,3.26,0,0,0,2.8.68c1.17-.14-.2-1.26-.2-1.26,1.19.12,2.52-1.26,2.52-1.26a9.62,9.62,0,0,0,3.2-.16c1.06-.16.86.26.86.26a4.46,4.46,0,0,1-2.41,1.48c-.67.07-.82.07-.82.07a5.47,5.47,0,0,0,1.77.44,5.87,5.87,0,0,0,3.8-1.55,2.34,2.34,0,0,1,1.57-.64,2.88,2.88,0,0,1,1.5,1.75,14.25,14.25,0,0,0-1.46.66,1.29,1.29,0,0,1-1.14.36c-.83,0-.63.17-.63.17,1.27.39.83.86,2.88.86s2.45-1.08,2.45-1.08a35.23,35.23,0,0,0,4.48.29c.32,0,.56-.07.56-.39a1.1,1.1,0,0,0-.15-.55l-3.11-.09c-.47,0-1.23-.67-1.23-.67-1.81-1.5-2.95-1.31-2.95-1.31a4.12,4.12,0,0,0-1.35-1.48,2.13,2.13,0,0,0,.18-1.62,11.16,11.16,0,0,0,1.24-1.73,3.53,3.53,0,0,0,1.17.93c-.3,2.17,3.64,2.89,7.31,3a30.88,30.88,0,0,0,5.79-.32c-.42,1.07-.35,1.9.17,2.27s.79-.18.72-.49.47-.85.47-.85l1.21-1.2a3.58,3.58,0,0,0,1.07.17,16.87,16.87,0,0,0,4,3.58,13,13,0,0,0,5.55,2.36,1.56,1.56,0,0,0,.71.79c.59.36,1.38-.06,1.38-1s-1.21-1.08-1.21-1.08a.43.43,0,0,1-.5-.27c-4.52-5.09-8.13-6.23-8.56-6.43s-.08-.73-.08-.73.55-.64,1.08-1.35.31-1.29-.23-1.95-.8-.15-.8.28a1.51,1.51,0,0,1-.18.71l-1.23,1.52-1.78-1.21c.56-.26.26-1,.26-1,.5-.41.27-.76.27-.76a.73.73,0,0,0,.33-1c.7-.27.44-1.12.44-1.12.35-.2.25-.77.25-.77.59-.07.82,0,.48-.72s.46-.36.46-.36c1.35.42,1.76.59,2.69.25s-.05-.68-.05-.68c-.22-.59,0-.71,1.19-1.32s1.23-1.08.62-1.78a1.32,1.32,0,0,0-1.64-.33,2.51,2.51,0,0,1-.68.22.66.66,0,0,1-.4-1c.29-.78-2.72,0-3.71.44s-1.58,0-1.39-.35-1.27-.24-1.27-.24l.66-.92c.71,1.13,2.32.46,2.32.46a3,3,0,0,0,1.92-2.23.22.22,0,0,0-.08-.28,1.67,1.67,0,0,1-.42-.24c-.2-.15.47-.23,1.09-.15s.35-.49.35-.49.21-.77.85-.39a7.33,7.33,0,0,0,1.49.62c1.51.26,2-.24,2-.24s-.25-.11-.34-.7.66-.43.66-.43a5.38,5.38,0,0,0,1.76.67.59.59,0,0,0,.56-1,.36.36,0,0,1,.08-.64c1-.29,1.94-1.11,1.71-1.61s-.71-.29-1.61-.31-.76-.6-.56-.85-.24-.36-.24-.36c-1.22-.37-2.83.55-3.19.61s-.72-.89-.72-1-.24-.19-.55,0a.37.37,0,0,1-.47,0l.55-.88a6.8,6.8,0,0,0,4.82-1.29c.58-.41,0-.72,0-.72-.58-.21,0-.48,0-.48a7.28,7.28,0,0,0,2.45-1.86c.38-.45.06-.73-.14-.73a4.3,4.3,0,0,1-.51-.07c-1.08-.43-.12-1.17.39-1.89a1.59,1.59,0,0,0,.12-1.53c-1-1.23-2.35.5-2.35.5-.62.81-1.11.73-1.34.29s-.33-.49-.76,0a11.46,11.46,0,0,0-1.2,2c-.21.52-.76,1.05-1,.52s-.58,0-.58,0a11.69,11.69,0,0,0-1.63,2.81,3.91,3.91,0,0,0-.18-.79.53.53,0,0,0-.73-.38c-.44.28-.68.06-.68.06a3.8,3.8,0,0,0-.62-2.55c-.81-.9-1.63.26-1.71.93s-.48,1.47-.86.95-.79.46-.79.46c-.87,2.71.24,3.78.24,3.78.36,1.11-.81.58-.81.58-.33-.7-.63.44-.63.44a3.46,3.46,0,0,0,1.07,3.3l-.25.88a3.32,3.32,0,0,0-1.26-1.52.79.79,0,0,0-.61,0l-3.68-.18c3.3-2.58,1.76-5.62,1.76-5.62l3.56-3.76a.81.81,0,0,0,.9-.91c.38.14,1.74-.77,1-1.52s-1.58.12-1.58.12.48.14.3.44-.38.23-.38.23a1.07,1.07,0,0,0-1.28.44c-.71-.09-.8.72-.8.72l-2.92,2.28s-2.44-4.26-3-5.7a6.23,6.23,0,0,1-.26-3.06c.87.72.9-.91.9-.91,1.31,2.46,1.89-.09,1.89-.09,3.4,3.81,3,0,3,0,5.7,8.48,4.43.15,4.43.15,6.71,6.61,3.8-1.18,3.8-1.18,8.16,5.29,4.33-1.08,4.33-1.08,7.63,2.73,2.91-3,2.91-3,5.57.27.81-3.21.81-3.21,3.45-.19,1.25-2,1.25-2,3.87-.21,2.11-1.76,2.11-1.76,5.23-.84,2.35-2.1,2.35-2.1,8.12-.7,1.71-3.21,1.71-3.21,12.32,0,5.48-2.66,5.48-2.66,16.55-2.4,10.91-4.34,10.91-4.34,13.24-2.33,8.06-4.71,8.06-4.71s5.79-.49,5.8-2.5m-62,7.15c0,.06.09.1.11.15l-.14,0a2.13,2.13,0,0,0-1.17.45l0-.8s.86-.2,1.23.17m-1.41-10.84c.13-.27.56.05.56.05s.62.38.58.88-.61.21-.78,0-.5-.64-.36-.93m-36.76,12.4s4.6-.5,7,.46A5.87,5.87,0,0,1,153,71.85c0-.14-.33-.69-2-2.1s-8.07-1.81-8.07-1.81m5.18,3.31a.84.84,0,0,1,.56-.59.11.11,0,0,1,.09,0,.25.25,0,0,1-.09,0s-.07.15-.07.44c0,.79,2.78.9,2.94,1s.52.47.52.47c-.35-.23-1.61-.09-2.58-.34-.57-.15-1.48-.44-1.37-.92m.71,2a.93.93,0,0,1,.46-.71.09.09,0,0,1,.06,0l-.06,0a.76.76,0,0,0,0,.48c.15.75,2.9.32,3.08.32s.61.38.61.38a24.24,24.24,0,0,0-2.6.17c-.6,0-1.55-.14-1.55-.64m.81,1.7a.84.84,0,0,1,.32-.74c0-.06.06-.06.06-.06l-.06.06a.8.8,0,0,0,.07.45c.28.72,2.94-.13,3.1-.16s.66.27.66.27c-.41-.11-1.55.46-2.54.58-.59.07-1.55.09-1.61-.4m1.06,1.86c-.16-.47.72-1.05.72-1.05a.59.59,0,0,0,0,.76c.38.67,2.5-.38,2.66-.43s.75.28.75.28c-.36-.06-1.1.59-2.21.85-.84.19-1.74,0-1.89-.41m1.14,2c-.23-.44.58-1.12.58-1.12a.6.6,0,0,0,.08.76c.44.64,2.44-.66,2.59-.7s.78.2.78.2c-.38,0-1,.7-2.11,1.08-.82.28-1.72.22-1.92-.22M153,81.27a.92.92,0,0,1,.23-1.37.67.67,0,0,0,.18.79c.38.37,1.11,0,1.11,0s1-.61,1.71-.94a1.22,1.22,0,0,1,1.22.1,2.52,2.52,0,0,0-.76.34l-1.47.88s-1.6,1-2.22.15m1.91,2.1a.93.93,0,0,1-.06-1.4.71.71,0,0,0,.34.73c.45.3,1.09-.17,1.09-.17s.91-.8,1.5-1.26a1.19,1.19,0,0,1,1.21-.15,2.51,2.51,0,0,0-.67.48l-1.26,1.17s-1.36,1.31-2.15.6M157.31,85a.94.94,0,0,1-.18-1.39.76.76,0,0,0,.39.73c.5.23,1.1-.28,1.1-.28s.82-.87,1.36-1.39a1.21,1.21,0,0,1,1.2-.26,3.28,3.28,0,0,0-.62.54l-1.15,1.26s-1.25,1.44-2.1.79m4.15.64c-.43.41-1.05,1.12-1.52.62a1,1,0,0,1-.22-.94.09.09,0,0,1,0-.08.29.29,0,0,0,0,.08c0,.07.08.19.35.39.67.53,2.25-1.91,2.37-2s.7-.15.7-.15c-.39.15-.95,1.41-1.68,2.13m1.06,1.79a1.07,1.07,0,0,1-.41-.87.11.11,0,0,1,0-.09v.09a1,1,0,0,0,.43.32c.77.37,1.82-2.35,1.9-2.52s.65-.29.65-.29c-.35.24-.64,1.57-1.2,2.42-.34.51-.79,1.32-1.37.94m2,.36a1,1,0,0,1-.47-.83.06.06,0,0,1,0-.08v.08c0,.06.14.16.46.29.79.3,1.59-2.5,1.67-2.66s.64-.35.64-.35c-.34.27-.52,1.62-1,2.52-.29.52-.68,1.37-1.29,1m2-.19a.89.89,0,0,1-.47-.73,1,1,0,0,0,.43.33c.73.21,1.3-2.66,1.36-2.83s.55-.41.55-.41c-.29.28-.36,1.54-.76,2.47-.23.51-.67,1.35-1.11,1.17m2.05-.07s-.54-.06-.69-1c0,0,.3.62.65.59s.52-.65.52-.65.15.89-.48,1.1m-1,13.8a6,6,0,0,0-2.33,0s-2.89.32-1.91-2.5A4.85,4.85,0,0,0,163.8,97a.26.26,0,0,1,.1-.29s.31.1.23,1-.58,1.3-.45,2,.62,1.09,1.58,1,1.79-.45,2.66.08Zm9.63,33.24a6.68,6.68,0,0,1-1.87.14,5,5,0,0,0,1.45-.61c.53-.38,1.7,0,1.7,0a5.35,5.35,0,0,1-1.28.43m7.26-.53s.23.29,0,.35c0,0-4.13,0-4.81-.35l-.11-.37s3,.37,4.93.37m-6.69-2.1a5,5,0,0,1,1.94.93,4.73,4.73,0,0,1-1.59-.4s-.53-.42-.35-.53M206,135.16s.61.12.73.5a.45.45,0,0,1-.7.48c-.41-.22-.48-.91,0-1M177.87,57.38a8,8,0,0,0,.87,5.65l.28.55s.16.11-.16-.06a2.44,2.44,0,0,0-.91-.09l-.17-.37c-1.43-2.49.09-5.68.09-5.68m-1.93,7.78a2.26,2.26,0,0,1,1-.53,1.17,1.17,0,0,1,.64.08c.21.15.19.24.19.24a1.38,1.38,0,0,0-.51.06,1.21,1.21,0,0,0,0,.14.41.41,0,0,1-.38.39.36.36,0,0,1-.38-.3,4.12,4.12,0,0,0-1.16.76,2.38,2.38,0,0,1,.58-.84m-2.6,13.34c3.86-4.77,5.46-9.34,5.31-10.79,0,0,.09-.54-1-.06a3.6,3.6,0,0,1,1.43-1.17s.19,0,.18.41a16.46,16.46,0,0,1-2.57,8.57A16.56,16.56,0,0,0,174,83.4,20.21,20.21,0,0,0,175.71,91c1.89,4.66,1.95,8.69-1.65,9.86,0,0-.78.06-.66-.26a2.4,2.4,0,0,0,1.81-2.23c.33-2-.7-2.62-1.81-6s-3.93-9.09-.06-13.88m-1,15.82-.56.85a8.08,8.08,0,0,1,.63-1.7,5.26,5.26,0,0,1,2,6.17c-.37.78-.58.28-.58.28a4.91,4.91,0,0,0-1.49-5.6m-.21,3.29c0-.44.13-.82.5-.87s.68.26.8.68a3.63,3.63,0,0,1-.24,2.75s-.27.35-.93-.22a3.72,3.72,0,0,0,.4-1.46,1.14,1.14,0,0,1-.53-.88M173,101a1,1,0,0,1,.62.25.59.59,0,0,0,.33.17c.19,0,1.72.16,3.1-2.13,0,0,.14,0,0,.26,0,0-.95,3.2-4.08,3.2a.87.87,0,1,1,0-1.74m-1.64-6.83a3.19,3.19,0,0,1,.74-1.46l0,.47a6.11,6.11,0,0,0-.35.51Zm-2.94,8.76-.24-.31a.88.88,0,0,1-.11-.82s.31-1,.43-1.34a.48.48,0,0,1,.5-.27c.2,0,0,.49,0,.49s-.38,1.36-.42,1.68a1.13,1.13,0,0,0,.26.72Zm1.81.56a.88.88,0,0,1-.32.06c-.27-.06-.74-.78-.91-1a.94.94,0,0,1,0-.64l.62-1.91a2.39,2.39,0,0,1,.72-.23c.16,0,0,.33,0,.33s-.46,1.46-.55,1.92a1,1,0,0,0,.29,1.08c.26.24.21.41.21.41m.32-.61a1.25,1.25,0,0,1-.3-1.16l.65-2c.1-.06.23,0,.5.21a1.27,1.27,0,0,1,.3.29s-.32,1.5-.45,2.28c-.06.56.65,1.17.79,1.31a2.33,2.33,0,0,0,.32.24c-.82.29-1.34-.7-1.81-1.14m-.59,24.44a2.39,2.39,0,0,0-.19,2.35l-.74,0a3.44,3.44,0,0,1-.11-1.39,3.48,3.48,0,0,1,3.54-2.9,48.42,48.42,0,0,0-8.83-6.9,4.66,4.66,0,0,1,.69-.33,42.23,42.23,0,0,1,10.21,8.4,3.15,3.15,0,0,1,.06,3c-.11.21-.21.24-.45.15s-.11-.47-.11-.47a5.8,5.8,0,0,0,.21-1.21,2.28,2.28,0,0,0-4.28-.67m-8.16-11.58a.84.84,0,0,1-.57.76.63.63,0,0,1,.34.6.66.66,0,0,1-.35.64.58.58,0,0,1,.29.49.54.54,0,0,1-.32.49.56.56,0,0,1,.32.53.58.58,0,0,1-1.16,0,.59.59,0,0,1,.32-.53.61.61,0,0,1-.26-.29,2.7,2.7,0,0,1-.7.65c.22.88-.85,1.22-.85,1.22a5,5,0,0,0-.24-.63c1.05-.33.82-1,.82-1a.87.87,0,0,0,.62-1.15.48.48,0,0,0,.32-.12.87.87,0,0,0,.31-.94h0a1.07,1.07,0,0,0,.39-.93.89.89,0,0,0,.27-.49h0a2,2,0,0,0,0-.6.84.84,0,0,0,.27-.73.76.76,0,0,1,.52.73.85.85,0,0,1-.5.73.76.76,0,0,1,.16.63m-.88,10.86a.62.62,0,0,1-.56.46.51.51,0,0,1,.12.35.57.57,0,0,1-.57.57h-.07a.61.61,0,0,1,.19.42.58.58,0,0,1-.58.57.58.58,0,0,1-.14,0,.68.68,0,0,1,.19.45.7.7,0,0,1-1.4,0,.71.71,0,0,1,.7-.7l.18,0a.45.45,0,0,1-.12-.32.6.6,0,0,1,.59-.59l.05,0a.59.59,0,0,1-.19-.41.6.6,0,0,1,.6-.6l.06,0a.71.71,0,0,1-.06-.58.62.62,0,0,1,.63-.47.63.63,0,0,1-.18-.44.55.55,0,0,1,.52-.59.55.55,0,0,1,.51.59.55.55,0,0,1-.51.59h-.08a.66.66,0,0,1,.12.68m-.86-4a.74.74,0,0,1,.15.44c0,.24-.09,1.23.15,1.4,0,0-.42.85-.15,1.21,0,0-.76.35-.5,1a.75.75,0,0,0-.53,1,.65.65,0,0,0-.52.78,1.22,1.22,0,0,0-1,1.18s-2.06-1.18-5.32-2.66c0,0,.6-.14.74-.58a1.86,1.86,0,0,0,1.28-.86,6.92,6.92,0,0,0,3.72-2.31l.61-.38a1.48,1.48,0,0,1,1.4-.23m-.5-2.17c.41-.06.5-.66.5-.66l.15-.23a.93.93,0,0,0,.73.83l-.26.45a1.87,1.87,0,0,0-1.12-.39m-1.13,10.33s-1,0-4.56-1.6l-3.23-1.5s.95,0,1.24-.44c0,0,6.7,3,6.55,3.54m2.83-19s0-.79.67-.51.09.77.09.77a1.53,1.53,0,0,0-.76-.26m.76,6.14a.86.86,0,0,0,0-1.21,1,1,0,0,0,.21-1.4s.91-.52.09-1.69a2.28,2.28,0,0,0,.9-1l5.83-.72s-1.7,6.76-2.69,7.06l-2-1.11a4.79,4.79,0,0,0-2.32,1.34.32.32,0,0,0-.17-.26.69.69,0,0,0,.14-1m-15.2-24.45,1.32.15,21.55,15.67-.26,1ZM160.3,110.9a1.4,1.4,0,0,1,1.6-.66,1.27,1.27,0,0,1,1,1l4.62-.72.68.49-5.68.75a.87.87,0,0,0-.64-1,.81.81,0,0,0-1,.92s-.55.21-.55.69a1.85,1.85,0,0,1-.06-1.55m-1.7,7a.45.45,0,0,1,.17,0,.56.56,0,0,1,.41-1h.15a.6.6,0,0,1-.17-.6.58.58,0,0,1,.62-.48.47.47,0,0,1-.21-.41.56.56,0,0,1,.49-.53.51.51,0,0,1-.2-.41.55.55,0,0,1,.53-.56.61.61,0,0,1-.21-.49.62.62,0,0,1,.59-.54.69.69,0,0,1-.13-.37.56.56,0,0,1,.56-.58.57.57,0,0,1,0,1.14h-.08a.63.63,0,0,1,.12.42.56.56,0,0,0-.33,1,.52.52,0,0,1-.46.55.52.52,0,0,1-.35.92H160a.63.63,0,0,1-.44,1.09.54.54,0,0,1,.21.43.59.59,0,0,1-.59.56.48.48,0,0,1-.2,0,.53.53,0,0,1,.17.41.57.57,0,0,1-.55.57.58.58,0,1,1,0-1.15m-2,.47a8.14,8.14,0,0,0-1.75-1.28c2.9.55,3.6,3.73,3.6,3.73a29.26,29.26,0,0,0-1.85-2.45m-3.09,3.13a3,3,0,0,1-1,.43,4.93,4.93,0,0,1-2.1-.69,8.17,8.17,0,0,0,1.43-.42,6.88,6.88,0,0,1,2.07-.78,7.59,7.59,0,0,1,3.12,1,14.57,14.57,0,0,0-3.55.49m4.21,1a11,11,0,0,0-2.73,1.56,4.27,4.27,0,0,1-1.6,1c2.07-2.85,4.33-2.6,4.33-2.6m-9.68,3a1.2,1.2,0,0,1,1.51.29s.36-.77,1.2.11a.79.79,0,0,1,1.12.1.62.62,0,0,1,.9-.3l.4-.34s0,.08.59.08c0,0-.05.59-.9.55a.77.77,0,0,1-1,.36s0,.46-.75.2c0,0-.32.87-1.06.14a.6.6,0,0,1-.93.24s-1.27-.78-1.08-1.43m10.09,6.13s-1.62-.2-6.45-2.35c-5.28-2.34-4.12-3.69-4.12-3.69s-.22,1.25,3.83,3,7.23,3.27,7.55,2.34c0,0,.94.69-.81.69m1.3-.26a.69.69,0,0,0-.22-.78,1.19,1.19,0,0,0,.57-1.18s.66-.11.6-1a.8.8,0,0,0,.43-1,1.14,1.14,0,0,0,.59-1.2,1.25,1.25,0,0,0,.4-.87s4,2.28,4.75,4.3c0,0-1.49.25-1.94.41,0,0,.88.69,1.52,1.25,0,0-2.48.4-3,1.09a4.68,4.68,0,0,0-3.75-1m4.8,2.28a1.43,1.43,0,0,1-1.13-.58s1.84-.58,2.57.64a8,8,0,0,0-1.44-.06m.38-1.08a3.63,3.63,0,0,1,2.07,0,3.57,3.57,0,0,1-2.07,0m4.8-1.55c-1.91-.09-1.66-.46-3.3-.43,0,0-.35,0-.16-.17a9.48,9.48,0,0,1,6.12.52,10.46,10.46,0,0,1-2.66.08m2.81-1.4a1.24,1.24,0,0,1-.33,0,1.15,1.15,0,0,1-1.16-1.14,1.16,1.16,0,1,1,2.19.51,2.41,2.41,0,0,0,1.26,1.14l-.54.35a1.72,1.72,0,0,1-1.42-.9m2,2.64a6.44,6.44,0,0,1-2.52,1.22c-.92.07-.78,0-.78,0a6.15,6.15,0,0,0,2-1.23c1.14-1,1.94-.59,1.94-.59a7,7,0,0,1-.65.56m1.44-2.47a.87.87,0,0,1-1.11.59,2.69,2.69,0,0,0,.69-1.67v-.19l.53.4a2.43,2.43,0,0,1-.11.87m2.19-3.56a23,23,0,0,0,1.75-4.92c.42-.16,1.7-.82,1.7-.82l1.38,1.09a15.92,15.92,0,0,1-3,1.64c-.39.29-.71,1.44-.5,1.57A4.11,4.11,0,0,0,181,124a1.59,1.59,0,0,1,1.52-.2c.4.09,0,.17-.24.17a1.84,1.84,0,0,0-1.32.41,11.33,11.33,0,0,1-1.55,1.21c-.29.18,0,1,1.86,1s2.56.42,3.14,1.06.06.27.06.27c-1-.8-2.24-1-4.21-.91s-2.39-.82-2.39-.82m8.95,1.72s.61-.11.61-.64a21.35,21.35,0,0,1,3.11,0l1.54,1.13a19.82,19.82,0,0,1-5.53.2s.51-.34.27-.73m.88-1.26a.74.74,0,0,0,0-.57,1,1,0,0,0,.46-.6l1.66,1.27Zm-.61-.72a.59.59,0,0,1-.28.93.57.57,0,0,1-.4.79,1.07,1.07,0,0,0-.73-.2s.46-.59.09-.9a.92.92,0,0,1,.72-1.1.71.71,0,0,1,.39-.83l.82.61s-.1.67-.61.7m-.88-.67c-1.08.5-.67,1.33-.67,1.33a2.73,2.73,0,0,0-1.35,0,1.89,1.89,0,0,0-.56-.73c.91-.41.94-1.07.94-1.07a1.31,1.31,0,0,0,1.28-.9l.74.59a1.18,1.18,0,0,0-.38.82m-2.06-2.23a1.54,1.54,0,0,0-1.23,0s-.9.1-.64-.28l.95-.82,1.24.89a1.61,1.61,0,0,0-.32.21m2.67,6.58c-4.57-.14-6.56-.46-7.81-1.63a.39.39,0,0,1,.55-.23c.45.16.38.37.71.23a.93.93,0,0,1,1,.43.77.77,0,0,0,.74.24,29.28,29.28,0,0,0,10.72.14l.3.26s-1.72.7-6.2.56m6.38.52s-.51.63-.7.83a1.34,1.34,0,0,0-.33.65c-.06.34-.18.14-.18.14l-.18-.35c-.19-.53.51-1.17.83-1.52a5.17,5.17,0,0,0,.59-.67c.57.4,0,.92,0,.92m3.54-1.43c3.53.91,8.21,6.05,8.21,6.05.38.57-1.09.34-4.18-1.31a11.53,11.53,0,0,1-4.41-4.09,1,1,0,0,0,.38-.65m-.44-2.22.73-1a1.27,1.27,0,0,0,.32-.74c.05-.38.21-.16.21-.16l.2.37c.25.59-.47,1.32-.82,1.73s-.61.79-.61.79c-.63-.39,0-1,0-1m-.59,1.75a.67.67,0,0,0-.14-.41c.2-.28.4-.07.4-.07a1.18,1.18,0,0,1,.24.72,1.12,1.12,0,0,1-2.23,0,1,1,0,0,1,.16-.61c.11-.11.32,0,.32,0a.64.64,0,0,0,.57,1,.66.66,0,0,0,.68-.66m-1.11-1.48a2,2,0,0,0-1,.78L180.36,118l.35-1.07ZM186.08,120l.68-.11a6.43,6.43,0,0,1,2.54,0c.85.17,1.88,1.34,1.77,1.44s-.27-.45-1.33-.89a4.82,4.82,0,0,0-2.83.18Zm7.4.94c-.32.11-.4.73-.4.73a1,1,0,0,0-.47-.26s-.76-.21-.2-.5-.1-.76-.2-1,.35-.59.6-.21a3.07,3.07,0,0,0,.73.64.53.53,0,0,0-.06.56m-1,2.54a.52.52,0,0,0-.07.38.72.72,0,0,0-.32.39l-.81-.57a4.82,4.82,0,0,1,.49-.38Zm.82.76a.53.53,0,0,1,0,.85l-.85-.64a.4.4,0,0,1,.33-.44.36.36,0,0,1,0-.45,5,5,0,0,0,.91,0c.09,0,.14.58-.35.67m.89-2.92s.45.5-.22,1.1a6.37,6.37,0,0,0-.67-.55s0-.61.44-.7c0,0-.3-.43,0-.71a2.84,2.84,0,0,0,.91.31s-.11.61-.5.55m-1.8-8c-.19-.67,1-1.29,1-1.29a2.07,2.07,0,0,0,.61,1.84c-.88.45-1.43.13-1.63-.55m1.81.1a1.75,1.75,0,0,1-.39-.54.9.9,0,0,1,.06-1,1.75,1.75,0,0,1,1.46-.11s.69,1.19-1.13,1.67m1.6-8.51c.22-.16,1.29-.77,1.43-1.41,0,0,.15-.17.19,0a2.23,2.23,0,0,1,.12.35l-1.24,1.61a.86.86,0,0,0-.55-.18c-.38,0-.17-.2,0-.37m-5.73,7.21c-1.58-.08-1.05-1.75-1.05-1.75a2.65,2.65,0,0,0,2.22.14s.18,1.67-1.17,1.61m.12-3.41a1.64,1.64,0,0,1,1,1.36s-.49.63-1.57.18a1.33,1.33,0,0,1,.58-1.54m-2.66,1a9.23,9.23,0,0,1,1-1.18h.76A3.56,3.56,0,0,0,188,111l-.44-.3a6.54,6.54,0,0,0-2.59.49c.26.13.59.31,1,.53a6.7,6.7,0,0,1,1.71,1.26,1.36,1.36,0,0,1,.3.33l-.23.54-.23-.25a1,1,0,0,0-.22-.27l0,0a1.92,1.92,0,0,0-1.22-.35,4.7,4.7,0,0,0-.62,0l-.25,0-.09,0-.27.11a4.59,4.59,0,0,0-.84.51,3.08,3.08,0,0,0-1.21,2.45v0a1.83,1.83,0,0,0,1,1.82,3,3,0,0,0,1.19.32,18,18,0,0,0,1.5-1.52c.78-.92,1.54-1.87,2-2,.65-.18.73-1.19.73-1.86,0-.19,0-.38,0-.47a2.65,2.65,0,0,0,1,.2,1.54,1.54,0,0,0,.37,0,2,2,0,0,0,1.15-1.19.82.82,0,0,0,.37-.3v0c0-.12,0-.24,0-.34,0-2.23,1-3.23,1.57-4.87a20.17,20.17,0,0,0,.57-4.82c0-.24,0-.41,0-.49a.1.1,0,0,0,0-.07s0,0,.06.09a1.09,1.09,0,0,1,0,.26v.16c0,.6.05,1.14.05,1.61,0,3-.41,3.88-.72,4.52a6.41,6.41,0,0,0-.68,2.14.34.34,0,0,0,0,.14c0,.21.09.3.19.3a.23.23,0,0,0,.15-.06,8.51,8.51,0,0,1,.89-.61l.4-.3a7.59,7.59,0,0,0,2.08-2.86c.56-.79,1-1.4,1-1.4.61-.74,1.23-1.2,1.58-1.58a17.29,17.29,0,0,1,3-2.17A6,6,0,0,0,204.49,98l.06-.12s0,0,0,0a.42.42,0,0,1,0,.15v0a6.16,6.16,0,0,1-2,2.63c-.55.49-1.64,1.25-2.51,1.91a16.59,16.59,0,0,0-3.14,3.8s-1.43,1.39-1.34,2.72l0,.11.11-.05a11.65,11.65,0,0,1,5.21-1.42,4.75,4.75,0,0,1,1,.1,4.81,4.81,0,0,0,1,.11,5.43,5.43,0,0,0,.88-.06.89.89,0,0,1,.26-.08s0,0,0,0v0a0,0,0,0,1,0,0l0,0h0a1.24,1.24,0,0,1-.56.18,7.34,7.34,0,0,1-1.09.08l-.47,0h-.35a13.59,13.59,0,0,0-1.58.12,10.56,10.56,0,0,0-3.42,1.09c-1.6,1.17-3,2-3.13,2.1a2.88,2.88,0,0,0-1.71,1.32,6.87,6.87,0,0,1-2.26,2.93l-.38.26a10.32,10.32,0,0,0-1.11,1.35.29.29,0,0,0,0,.11c0,.24.32.24.53.24h.18a12,12,0,0,0,2.62-.29,22,22,0,0,1,2.64-.47,25,25,0,0,1,2.54-.13,6.53,6.53,0,0,1,1.44.1c.08,0,.08.08.08.09s-.17,0-.29,0h-1.14a17,17,0,0,0-4.92.85,17.14,17.14,0,0,1-3.73.52,2.66,2.66,0,0,0-2.35,1.31l-.05.07-1.24-.89a.2.2,0,0,1,.09-.06,1.92,1.92,0,0,1-.32-.09l-1.48-1a2.55,2.55,0,0,1-.41-1.49v0a3.63,3.63,0,0,1,1.42-2.84,4.92,4.92,0,0,1,1.4-.76,4.43,4.43,0,0,1,1-.12h.06l-.41-.26c-.64-.36-1.22-.65-1.28-.7a8,8,0,0,0-3.17,3.42A29.45,29.45,0,0,0,179,122a15,15,0,0,1-2.91,6l-.22.29-.41-.35.24-.27s.12-.14.3-.4a10.12,10.12,0,0,0,.75-1.12,16.06,16.06,0,0,0,1.73-4.3,29.82,29.82,0,0,1,2.37-7.21,7.59,7.59,0,0,1,6.08-4.43l-2.1-1.46-.21-.55,1,.46Zm.06-5.79a3.83,3.83,0,0,1-1-.55l.52-.48a4.77,4.77,0,0,0,.56.74c.23.22.2.4-.12.29m-2.2-2.57-.38.37a10.54,10.54,0,0,1-1.51-2,4.51,4.51,0,0,1,0,.65,10.4,10.4,0,0,1-1.45,4.91,2.21,2.21,0,0,1,.38.35l7.66-6.82s.26-.11.16.1-7.51,7.08-7.51,7.08c.83.25.89,1.36.89,1.36a3.08,3.08,0,0,1,.2,2.35,4.23,4.23,0,0,0-.82-1.69c-.94-.53-.94-1.07-.94-1.07a3.87,3.87,0,0,1-1-.52c.36,1.06-.4,1.37-.4,1.37.4,1-.09,1.35-.09,1.35A2.12,2.12,0,0,1,180,111a2.9,2.9,0,0,0,0-1.75c-.67-.42-.19-1.38-.19-1.38a1,1,0,0,1,0-1.35,1.52,1.52,0,0,0-.32-1l-1.24.29s.18.27-.38.81-1,.28-1,.28c-.74.35-1.33,1.78-1.33,1.78a2.27,2.27,0,0,1,.91-2.38s-.11-.88,1.25-1.2a1.85,1.85,0,0,1,.53-.4c-.57-.26-1.19-.49-1.72-.67s-1-.32-1.2-.36a7,7,0,0,0-3,1.58l-.06-.23a8.32,8.32,0,0,1,3-1.88l.06,0,.09,0s1.28.5,2.51,1.12a8.76,8.76,0,0,1-.54-3,6.36,6.36,0,0,1,3.4-5.78l.14-.07.12.07a4.82,4.82,0,0,1,1.27,1.1c-.35-1.92.28-3.83.66-7.62.53-5.23-2.16-8.08-2.9-9.3a12.53,12.53,0,0,0-2.48-2.46,2.47,2.47,0,0,1-.55,1,14.42,14.42,0,0,0-1.41,1.6,8.1,8.1,0,0,1,.76-1.72c.7-1.2,1.23-2.13,1.23-2.13v0c.09-.08.18-.09.33.15,1.17,2.11,2,2.71,3.39,4.92,2.59,4,2.13,7,1.6,11.9a11.52,11.52,0,0,0,2.6,8.48m-1.58-15.13s-.55,0-.83-1c0,0,.38.59.73.51s.44-.71.44-.71.25.89-.34,1.17m1.88-.12c-.43.22-.94-.55-1.25-1.05-.48-.85-.71-2.08-1-2.36,0,0,.52.2.58.35s1,3,1.68,2.66a1,1,0,0,0,.4-.39.91.91,0,0,1-.38.79m2.29-.05c-.53.35-1.06-.41-1.42-.87-.63-.76-1-2-1.39-2.18a1.91,1.91,0,0,1,.64.25c.11.16,1.38,2.63,2.1,2.31.26-.13.35-.22.36-.28a.17.17,0,0,0,0-.07s0,0,0,.07a.79.79,0,0,1-.29.77m2.12-.41c-.5.36-1.07-.36-1.46-.79-.66-.74-1.13-1.93-1.49-2.14a1.75,1.75,0,0,1,.65.24c.12.14,1.51,2.55,2.21,2.19.27-.14.33-.24.34-.29a.28.28,0,0,0,0-.08s0,0,0,.08a.76.76,0,0,1-.25.79m2.88-.32c-.91.58-2-.93-2-.93l-1.07-1.35a3.1,3.1,0,0,0-.59-.58,1.18,1.18,0,0,1,1.17.34c.52.55,1.28,1.49,1.28,1.49s.56.56,1.06.35a.75.75,0,0,0,.46-.7,1,1,0,0,1-.28,1.38m2.94-1.08c-.81.7-2.15-.64-2.15-.64l-1.24-1.17a2.68,2.68,0,0,0-.66-.5,1.18,1.18,0,0,1,1.21.18c.59.48,1.45,1.28,1.45,1.28s.66.47,1.11.2a.71.71,0,0,0,.34-.76,1,1,0,0,1-.06,1.41m2.49-1.64c-.68.82-2.2-.3-2.2-.3l-1.42-1a3.26,3.26,0,0,0-.71-.41,1.17,1.17,0,0,1,1.21,0C196,81.33,197,82,197,82s.71.36,1.12,0a.76.76,0,0,0,.24-.79,1,1,0,0,1,.11,1.4m2.31-2.07c-.2.46-1.06.54-1.87.29-1.06-.33-1.73-1-2.1-1a2.49,2.49,0,0,1,.76-.21c.14.06,2.15,1.24,2.56.59a.61.61,0,0,0,0-.73s.8.64.62,1.06m1.66-2.06c-.13.47-1,.68-1.87.56-1.13-.2-1.9-.79-2.27-.7,0,0,.6-.36.75-.33s2.34.92,2.67.22a.61.61,0,0,0-.07-.76s.91.54.79,1M201.86,77c-.92,0-2.08-.35-2.43-.2,0,0,.4-.36.58-.35s2.74.46,2.9-.27c.06-.29,0-.4,0-.44a.09.09,0,0,0-.06,0s.05,0,.06,0a.74.74,0,0,1,.41.67c0,.48-.91.57-1.46.59m1-1.86c-1,.11-2.22-.21-2.61,0,0,0,.42-.4.59-.41s2.95.27,3.07-.49c0-.3,0-.42-.05-.47a.13.13,0,0,0-.07,0s0,0,.07,0a.83.83,0,0,1,.51.67c0,.49-.92.65-1.51.71m.61-2.12a22.69,22.69,0,0,0-2.6.33s.35-.44.53-.47,3-.17,3-.94a.86.86,0,0,0-.09-.46h-.1a.12.12,0,0,1,.1,0,.92.92,0,0,1,.57.59c.09.49-.8.79-1.38.95m-1.82-2.37A4.58,4.58,0,0,0,199.3,73l-1,1.73s.29-1.26.7-2.46.85-1.78,2.73-2.36a25.07,25.07,0,0,1,5.47-.52,26.2,26.2,0,0,0-5.63,1.24" transform="translate(-19.23 -30.5)"/></g></g><g id="Capa_2" data-name="Capa 2"><path class="cls-2" d="M204.8,243.73H91.73a3.5,3.5,0,0,1-3.5-3.5h0a3.5,3.5,0,0,1,3.5-3.5H201.9a3.45,3.45,0,0,0,2.47-1l50-50a3.5,3.5,0,0,0,1-2.46L256,41a3.51,3.51,0,0,0-3.5-3.52H102a3.5,3.5,0,0,0-3.5,3.5V94.81a3.49,3.49,0,0,1-3.5,3.5h0a3.5,3.5,0,0,1-3.5-3.5V34A3.5,3.5,0,0,1,95,30.5H259.52A3.5,3.5,0,0,1,263,34l-.61,152.12a3.54,3.54,0,0,1-1,2.46l-54.11,54.11A3.45,3.45,0,0,1,204.8,243.73Z" transform="translate(-19.23 -30.5)"/><path class="cls-3" d="M258.91,186.13" transform="translate(-19.23 -30.5)"/><path class="cls-3" d="M258.91,186.13H209a3.5,3.5,0,0,0-3.5,3.5v50.6" transform="translate(-19.23 -30.5)"/></g></svg>