<?xml version="1.0" encoding="UTF-8"?>
<!DOCTYPE svg PUBLIC "-//W3C//DTD SVG 1.1//EN" "http://www.w3.org/Graphics/SVG/1.1/DTD/svg11.dtd">
<!-- Creator: CorelDRAW 2021 (64-Bit) -->
<svg xmlns="http://www.w3.org/2000/svg" xml:space="preserve" width="39.4686mm" height="21.6955mm" version="1.1" style="shape-rendering:geometricPrecision; text-rendering:geometricPrecision; image-rendering:optimizeQuality; fill-rule:evenodd; clip-rule:evenodd"
viewBox="0 0 558.73 307.13"
 xmlns:xlink="http://www.w3.org/1999/xlink"
 xmlns:xodm="http://www.corel.com/coreldraw/odm/2003">
 <defs>
  <style type="text/css">
   <![CDATA[
    .fil2 {fill:#5377A9}
    .fil0 {fill:#5478AA}
    .fil4 {fill:#58585A}
    .fil3 {fill:#59595B}
    .fil1 {fill:#7DC245}
    .fil6 {fill:#A2B3CC}
    .fil7 {fill:#FDFDFD}
    .fil5 {fill:#FEFEFE}
   ]]>
  </style>
 </defs>
 <g id="Capa_x0020_1">
  <metadata id="CorelCorpID_0Corel-Layer"/>
  <path class="fil0" d="M280.33 37.3c4.03,-1.22 27.1,-0.46 33.05,-0.43 35.54,0.19 35.03,32.78 34.87,63.71 -0.1,19.34 0.4,43.89 -11.45,54.18 -13.81,12 -35.81,8.18 -56.72,8.69l0.25 -126.16zm-38.95 159.81c95.91,-1.01 146.92,14.21 146.17,-97.81 -0.12,-18.56 -1.71,-38.17 -6.48,-54.85 -4.65,-16.3 -14.34,-27.09 -27.49,-33.44 -27.42,-13.23 -78.21,-8.33 -111.69,-8.11 -1.28,3.44 -0.49,174.88 -0.52,194.2z"/>
  <path class="fil0" d="M148.67 137.31l-38.16 0.02c-3.47,12.03 -8.5,18.44 -17.97,23.17 -18.98,9.5 -45.49,3.31 -50.77,-22.91 -3.85,-19.12 -3.88,-57.81 -0.5,-77.03 4.63,-26.29 32.62,-31.5 51.69,-21.6 13.29,6.9 15.16,20.59 17.22,23.6l38.68 0.13c-1.8,-18.94 -13.75,-38.41 -28.48,-49.25 -28.83,-21.21 -86.95,-19.4 -109.02,20.37 -11.65,21 -11.28,39.83 -11.36,66.12 -0.07,25.53 0.75,45.59 11.69,65.8 8.67,16.03 22.97,27.61 45.59,31.96 34.52,6.65 64.65,-2.55 80.99,-31.87 2.91,-5.21 10.22,-21.75 10.4,-28.53z"/>
  <path class="fil0" d="M410.86 195.24l40.22 0.01c1.12,-6.36 0.8,-65.5 0.8,-76.73 0,-5.34 -0.74,-22 0.21,-25.95l51.35 -0.01c0,-15.38 3.06,-31.3 -10.55,-31.88 -13.44,-0.57 -28.17,0.85 -41.43,-0.11l-0.15 -59.54 -40.46 -0 0.01 194.21z"/>
  <path class="fil1" d="M464.44 92.65c-0.27,6.43 -0.44,15.07 0.09,21.42 1.52,18.22 21.5,7.88 51.91,10.91l0.26 70.26 40.21 -0.04 0.02 -194.17 -40.73 0.01 -0.23 91.83 -51.54 -0.22z"/>
  <polygon class="fil2" points="168.64,3.28 168.69,196.81 208.37,196.83 208.43,3.43 "/>
  <path class="fil3" d="M91.56 275.59c9.59,-0.01 17.26,0.54 17.26,13.1 -0,12.82 -7.65,13.3 -17.25,13.25l-0.01 -3.21 0 -23.14zm-4.4 29.82c5.38,1.41 19.2,1.22 23.81,-6.09 4.13,-6.54 6.29,-26.35 -12.66,-27.44 -9.9,-0.57 -11.4,-0.76 -11.48,3.22 -0.12,6.56 -0.67,25.14 0.32,30.31z"/>
  <path class="fil4" d="M406.5 284.21l-0.19 -3.33c-4.95,-0.79 -3.85,-0.55 -3.85,10.32 0,3.86 -0.47,10.92 0.19,14.19 1.65,0.77 2.03,0.64 4.14,0.23 1.05,-8.26 -1.37,-15.48 1.53,-18.5 0.81,-0.84 2.6,-2.58 4.21,-2.88 8.69,-1.58 5.2,15.22 5.86,21.48 5.39,0.59 4.35,1.11 4.35,-10 -0,-6.57 -0.77,-8.31 3.95,-10.83 10.27,-5.47 6.65,14.93 7.48,20.71l4.16 0.17c0.56,-4.6 0.76,-18.41 -1.19,-21.71 -1.37,-2.32 -3.84,-4.01 -7.56,-3.7 -3.44,0.29 -5.87,2.9 -7.63,4.25 -2.17,-2.31 -2.73,-4.35 -7.5,-4.28 -3.83,0.06 -5.82,2.34 -7.94,3.88z"/>
  <path class="fil4" d="M62.9 241.22l-0.17 -2.97c-3.26,-0.54 -3.49,-0.44 -3.5,2.44 -0.01,3.91 -0.21,17.48 0.23,19.47 1.44,0.72 1.77,0.59 3.68,0.24 1.05,-7.42 -1.27,-13.82 1.39,-16.57 0.74,-0.77 2.32,-2.31 3.76,-2.58 7.85,-1.45 4.57,13.63 5.27,19.21 4.8,0.57 3.87,0.96 3.86,-8.94 -0,-5.89 -0.65,-7.46 3.54,-9.69 9.12,-4.85 6.04,13.22 6.67,18.53l3.74 0.15c0.5,-4.09 0.6,-16.57 -1.07,-19.42 -1.21,-2.08 -3.41,-3.6 -6.76,-3.32 -3.12,0.27 -5.21,2.57 -6.83,3.8 -1.98,-2.06 -2.41,-3.89 -6.73,-3.82 -3.44,0.06 -5.19,2.08 -7.08,3.46z"/>
  <path class="fil4" d="M366.22 240.58l-0.15 -2.99c-3.28,-0.45 -3.5,-0.5 -3.5,2.46 -0.01,3.99 -0.25,17.44 0.23,19.47 1.44,0.71 1.79,0.59 3.68,0.23 0.99,-7.17 -1.21,-13.85 1.38,-16.56 0.73,-0.76 2.32,-2.31 3.76,-2.57 7.83,-1.42 4.6,13.62 5.26,19.2 3.02,0.38 3.88,0.82 3.93,-2.15 0.14,-9.38 -1.78,-13.68 3.48,-16.47 9.22,-4.9 5.92,13.34 6.69,18.53l3.72 0.16c0.5,-4.02 0.58,-16.64 -1.06,-19.43 -4.01,-6.82 -10.58,-1.83 -13.59,0.5 -1.99,-2.06 -2.36,-3.86 -6.7,-3.82 -3.51,0.03 -5.2,2.15 -7.13,3.46z"/>
  <path class="fil5" d="M91.56 298.72l0.01 3.21c9.59,0.06 17.24,-0.43 17.25,-13.25 0,-12.56 -7.67,-13.12 -17.26,-13.1l0 23.14z"/>
  <path class="fil3" d="M334.23 274.64l0.09 30.73c5.1,2.44 4.64,-0.91 4.6,-4.63 -0.04,-3.56 -0.01,-7.15 0,-10.71l15.83 0.01 0.02 15.48 4.43 0.3c0.5,-3.78 0.6,-31.72 -0.25,-33.92 -5.05,-0.91 -4.28,0.35 -4.22,4.73 0.04,3.02 0.14,6.47 -0.09,9.45l-15.57 -0 -0.16 -9.44c0,-2.41 0.7,-4.4 -1.36,-4.93 -3.2,-0.82 -3.31,0.65 -3.31,2.92z"/>
  <path class="fil4" d="M6.68 298.54c-1.23,-4.53 -0.36,-10.92 2.53,-12.78 4.27,-2.75 9.59,1.82 10.08,4.35 0.14,0.73 0.15,6.55 0.06,7.41 -0.49,4.6 -10.26,9.83 -12.66,1.02zm12.74 -28.14l-0.08 13.93c-1.31,-0.64 -6.15,-5.62 -12.49,-1.96 -7.15,4.13 -7.37,20.4 0.39,23.91 2.06,0.93 5.03,1.03 7.27,0.31 2.79,-0.9 3.41,-2.49 5.34,-3.41l0.1 3.33c2.73,0.35 2.58,0.29 3.72,-0.42l0.19 -35.36c-1.15,-0.46 -3.61,-0.85 -4.44,-0.32z"/>
  <path class="fil4" d="M235.17 305.61c0.58,-3.69 0.18,-9.97 0.17,-13.94 -0.01,-3.74 2.37,-6.96 6.07,-7.46 9.16,-1.25 5.23,15.39 6.09,21.59l4.12 -0.29c0.66,-4.21 0.71,-18.22 -1.2,-21.4 -3.92,-6.54 -10.75,-3.33 -15.04,-0.26 -0.04,-3.22 -0.05,-6.5 -0,-9.72 0.06,-3.71 0.68,-6.11 -4.09,-4.59 -0.94,2.12 -0.88,32.65 -0.23,35.87 1.66,0.74 2.02,0.63 4.11,0.2z"/>
  <path class="fil4" d="M153.19 250.62c-1.06,-12.65 12.26,-12.91 13.15,-3.05 1.13,12.48 -12.3,13.18 -13.15,3.05zm3.84 -12.77c-6.12,1.42 -8.91,6.52 -7.95,14.06 0.84,6.58 6.28,10.13 13.72,8.47 11.89,-2.65 10.86,-26.39 -5.77,-22.53z"/>
  <path class="fil4" d="M22.82 254.66c-3.18,0.13 -6.35,4.69 -12.57,1.81 -8.53,-3.96 -7.29,-26.24 6.63,-22.85 2.27,0.55 4.18,2.35 5.75,2.46l0.27 -3.43c-4.59,-3.31 -11.39,-4.16 -16.46,-0.66 -8.29,5.73 -8.65,24.7 2.73,28.23 4.36,1.35 15.69,0.58 13.64,-5.58z"/>
  <path class="fil4" d="M265.59 295.21c-1.38,-13.86 13.67,-15.42 14.68,-3.45 0.46,5.49 -1.1,9.74 -5.63,10.63 -5.52,1.08 -8.56,-2.27 -9.05,-7.18zm4.72 -14.53c-7.07,1.47 -10.56,7.32 -9.3,15.94 1.04,7.13 6.77,11.12 15.11,9.28 13.39,-2.96 12.43,-29.01 -5.81,-25.22z"/>
  <path class="fil4" d="M33.31 251.07c-1.28,-12.48 12.32,-13.75 13.15,-3.07 0.98,12.65 -12.19,12.49 -13.15,3.07zm4.56 -13.09c-13.35,2.34 -11.93,25.82 4.5,22.72 12.38,-2.33 11.58,-25.54 -4.5,-22.72z"/>
  <path class="fil4" d="M513.44 295.21c-1.38,-14.26 13.74,-15.1 14.69,-3.45 1.16,14.16 -13.67,13.97 -14.69,3.45zm5.43 -14.72c-15.01,2.22 -13.93,28.42 4.28,25.57 14.21,-2.23 13.42,-28.18 -4.28,-25.57z"/>
  <path class="fil4" d="M37.89 291.68c-0.4,-9.15 13.64,-9.81 12.85,0.11l-12.85 -0.11zm16.34 10.16c-3.96,0.38 -6.48,2.65 -11.34,1.39 -3.79,-0.99 -4.92,-3.78 -5.14,-8.21 4.46,-0.05 8.92,-0.03 13.38,0.01 2.8,0.03 4.03,0.43 4.25,-2.45 0.86,-10.92 -12.17,-14.89 -18.7,-8.45 -6.41,6.33 -6.3,27.61 14.57,22.1 3.1,-0.82 3.14,-1.04 2.97,-4.4z"/>
  <path class="fil4" d="M293.68 246.56c-0.12,-8.5 12.2,-8.68 11.52,0.07l-11.52 -0.07zm14.62 9.07c-3.56,0.34 -14.01,5.85 -14.74,-6.11 3.99,-0.01 7.99,-0.02 11.99,0.02 2.49,0.03 3.6,0.36 3.81,-2.2 0.13,-1.6 -0.41,-3.96 -0.94,-5.2 -2.36,-5.56 -11.2,-6.88 -15.8,-2.36 -5.8,5.71 -5.55,24.73 13.04,19.79 2.77,-0.74 2.82,-0.96 2.64,-3.94z"/>
  <path class="fil4" d="M126.25 290.86c-0.33,-9.14 13.6,-10 12.86,0.11l-12.86 -0.11zm-0.13 3.32c4.63,-0 9.26,0.02 13.89,0.04 2.84,0.01 3.72,0.11 3.75,-2.98 0.1,-11.74 -13.05,-13.52 -18.71,-7.94 -6.71,6.6 -5.66,27.99 14.97,22.01 2.86,-0.83 2.75,-1.15 2.56,-4.27 -3.81,0.32 -15.78,6.51 -16.45,-6.85z"/>
  <path class="fil4" d="M407.29 246.56c-0.31,-9.13 13.38,-7.87 11.31,0.1l-11.31 -0.1zm14.63 9.08c-3.28,0.31 -14.18,5.79 -14.74,-6.11 3.99,-0.02 7.98,-0.03 11.97,0.02 2.51,0.03 3.61,0.37 3.81,-2.2 0.76,-9.83 -10.97,-13.29 -16.74,-7.56 -4.61,4.58 -6.35,20.8 7.97,20.53 7.11,-0.13 7.88,-1.45 7.73,-4.68z"/>
  <path class="fil4" d="M177.93 290.87c-0.34,-9.23 13.62,-9.88 12.87,0.09l-12.87 -0.09zm16.32 10.15c-3.66,0.33 -15.86,6.52 -16.45,-6.84 4.46,-0.01 8.92,-0.03 13.37,0.02 2.81,0.03 4.02,0.41 4.25,-2.45 0.89,-11.12 -12.27,-14.75 -18.7,-8.45 -5.96,5.85 -6.75,27.66 14.56,22.1 3.12,-0.81 3.17,-0.99 2.96,-4.38z"/>
  <path class="fil4" d="M500.2 249.72c1.03,8.93 -7.23,7.98 -8.72,6.47 -1.55,-1.58 -1.3,-4.46 0.93,-5.65 2.08,-1.12 5.29,-0.93 7.79,-0.81zm-12.44 -7.35c3.05,-0.32 4.32,-2.45 8.45,-2.05 3.95,0.38 4.08,2.69 4.12,6.45 -3.91,0.34 -14.84,-0.57 -13.82,8.11 0.62,5.26 6.83,6.29 10.63,4.88 1.65,-0.61 2.37,-1.51 3.71,-2.31 0.02,1.63 -0.23,1.24 0.45,2.41l2.9 -0.07c0.62,-5.11 1.04,-17.93 -1.9,-20.67 -3.17,-2.96 -15.91,-3.15 -14.53,3.26z"/>
  <path class="fil4" d="M348.41 249.72c1.12,9.07 -7.2,8.02 -8.7,6.47 -1.52,-1.56 -1.27,-4.46 0.93,-5.65 1.94,-1.05 5.39,-0.93 7.77,-0.82zm-12.44 -7.33c3.25,-0.41 12.37,-6.85 12.59,4.39 -4.03,0.31 -14.85,-0.55 -13.83,8.1 0.61,5.13 7.46,7.52 13.19,3.37 1.02,-0.74 0.03,-0.14 1.15,-0.8 0.02,1.63 -0.24,1.23 0.45,2.41 2.73,0.35 1.98,-0.06 2.5,-0.23 0.09,-0.03 0.24,-0.11 0.35,-0.18 0.59,-2.6 0.16,-7.75 0.17,-10.8 0.01,-6.06 0.07,-13.06 -10.83,-11.34 -3.55,0.56 -6.45,1.31 -5.73,5.09z"/>
  <path class="fil4" d="M554.54 249.73c0.38,3.54 0.23,4.99 -2.11,6.48 -6.26,3.98 -10.43,-3.52 -5.37,-5.81 1.92,-0.87 5.15,-0.79 7.48,-0.67zm-12.46 -7.34c3.41,-0.42 12.53,-6.86 12.57,4.4 -4.11,0.26 -14.82,-0.6 -13.81,8.08 0.79,6.78 11.49,6.78 13.69,2.56l1.1 2.41 2.88 -0.07c0.41,-3.12 0.12,-7.98 0.13,-11.13 0.01,-6.15 0,-13.05 -10.8,-11.35 -3.61,0.57 -6.5,1.24 -5.76,5.1z"/>
  <path class="fil4" d="M463.38 294.41c0.36,3.68 0.35,5.32 -2.08,7.04 -6.84,4.83 -11.91,-3.27 -6.63,-6.11 2.21,-1.19 6,-1.02 8.71,-0.92zm-13.91 -8.17c3.43,-0.47 4.84,-2.81 9.45,-2.34 4.07,0.42 4.53,3.29 4.59,7.22 -7.16,0.56 -16.51,0.15 -15.43,9.04 0.91,7.49 12.72,7.66 15.28,2.88 0.69,0.89 -0.02,-0.24 0.64,1.21 0.4,0.87 -0.05,0.38 0.59,1.47l3.22 -0.07c0.72,-5.42 0.94,-20.25 -2.11,-23.1 -3.39,-3.18 -17.69,-3.7 -16.24,3.69z"/>
  <path class="fil4" d="M371.19 280.99l-0.47 2.16c-0.32,4.36 -0.28,16.45 1.32,19.31 1.3,2.31 3.96,3.95 7.73,3.77 3.96,-0.19 4.99,-1.91 7.55,-3.77l0.4 3.27 3.83 -0.07 0.18 -22.05c-0.03,-3.33 -0.66,-3.32 -4.18,-2.73 -1.91,9.3 1.96,15.23 -2.4,19.18 -4.97,4.51 -9.94,3.6 -9.93,-6.87 0,-10.39 1.52,-14 -4.03,-12.22z"/>
  <path class="fil4" d="M482.77 284.21l-0.18 -3.33c-4.96,-0.79 -3.85,-0.55 -3.85,10.32 0,3.86 -0.47,10.92 0.19,14.19 1.65,0.77 2.03,0.64 4.14,0.23 1.2,-9.44 -1.68,-15.27 1.8,-18.73 1.11,-1.11 2.35,-2.39 4.41,-2.68 9.13,-1.26 5.22,15.35 6.08,21.39l4.14 0.14c0.63,-4.48 0.63,-18.34 -1.19,-21.66 -1.32,-2.4 -4.06,-3.89 -7.54,-3.76 -3.74,0.14 -5.91,2.36 -7.99,3.88z"/>
  <path class="fil4" d="M247.68 240.59l-0.16 -3c-3.27,-0.45 -3.49,-0.5 -3.5,2.46 -0.01,3.99 -0.25,17.44 0.23,19.47 1.44,0.71 1.79,0.59 3.68,0.23 1.13,-8.19 -1.49,-13.66 1.63,-16.77 1,-1 2.12,-2.15 3.94,-2.39 8.21,-1.11 4.62,13.75 5.45,19.14l3.7 0.12c0.57,-3.94 0.55,-16.5 -1.11,-19.33 -1.27,-2.18 -3.52,-3.53 -6.73,-3.4 -3.44,0.14 -5.2,2.1 -7.13,3.47z"/>
  <path class="fil4" d="M182.35 241.23l-0.18 -2.98c-4.44,-0.71 -3.45,-0.41 -3.45,9.23 0,3.43 -0.43,9.81 0.17,12.69 1.44,0.7 1.79,0.59 3.7,0.22 1.07,-8.45 -1.49,-13.68 1.62,-16.76 1.04,-1.04 2.09,-2.13 3.95,-2.4 8.19,-1.16 4.64,13.8 5.44,19.14l3.69 0.13c0.6,-3.9 0.56,-16.46 -1.05,-19.39 -1.17,-2.12 -3.66,-3.47 -6.75,-3.35 -3.33,0.12 -5.29,2.12 -7.14,3.48z"/>
  <path class="fil4" d="M517.57 240.58l-0.17 -2.98c-4.44,-0.7 -3.45,-0.51 -3.45,9.24 0,3.4 -0.43,9.86 0.17,12.7 1.46,0.68 1.81,0.56 3.7,0.21 0.43,-3.37 0.16,-8.49 0.13,-12.03 -0.02,-2.88 -0.03,-3.24 1.49,-4.74 1.01,-1.01 2.13,-2.13 3.95,-2.38 8.09,-1.11 4.79,13.74 5.41,19.14l3.73 0.12c0.54,-3.89 0.58,-16.57 -1.09,-19.36 -3.79,-6.35 -10.21,-2.55 -13.87,0.09z"/>
  <path class="fil5" d="M265.59 295.21c0.49,4.91 3.53,8.26 9.05,7.18 4.54,-0.89 6.1,-5.14 5.63,-10.63 -1.01,-11.97 -16.06,-10.41 -14.68,3.45z"/>
  <path class="fil5" d="M513.44 295.21c1.02,10.52 15.85,10.71 14.69,-3.45 -0.95,-11.65 -16.07,-10.8 -14.69,3.45z"/>
  <path class="fil5" d="M33.31 251.07c0.97,9.42 14.14,9.58 13.15,-3.07 -0.83,-10.68 -14.44,-9.41 -13.15,3.07z"/>
  <path class="fil5" d="M153.19 250.62c0.85,10.13 14.28,9.43 13.15,-3.05 -0.89,-9.86 -14.21,-9.6 -13.15,3.05z"/>
  <path class="fil6" d="M168.64 3.28l39.79 0.15 -0.06 193.4 -39.68 -0.03 -0.04 -193.52zm0 0l-0.69 2.38c-0.06,0.75 0.03,2.4 0.04,3.24 0.3,28.23 -0.85,180.03 0.19,188.14 2.96,0.86 36.41,0.78 40.6,0.2 1.29,-7.77 0.33,-192.8 -0.19,-194.44l-39.55 0.29c-0.07,-0.13 -0.27,0.11 -0.39,0.19z"/>
  <path class="fil4" d="M293 300.81c-2.18,6.2 8.3,5.66 10.69,5.08 4.19,-1.01 8.24,-5.54 5.29,-10.6 -2.21,-3.79 -9.11,-3.61 -10.91,-6.69 -1.56,-2.67 0.42,-4.56 3.05,-4.85 3.36,-0.37 4.68,1.39 7.4,1.49l0 -3.05c-9.26,-6.73 -21.64,4.42 -11.87,10.87 2.81,1.86 10.28,2.58 8.53,7.23 -2.02,5.38 -9.68,0.51 -12.16,0.5z"/>
  <path class="fil4" d="M540.35 300.82c-2.21,6.22 8.24,5.66 10.69,5.07 4.21,-1.02 8.23,-5.56 5.29,-10.6 -2.18,-3.73 -9.08,-3.54 -10.92,-6.68 -1.56,-2.68 0.43,-4.55 3.05,-4.83 3.4,-0.37 4.66,1.41 7.38,1.48l0.03 -3.05c-9.52,-6.7 -21.56,4.5 -11.89,10.88 2.85,1.88 10.29,2.57 8.54,7.23 -2.02,5.38 -9.68,0.48 -12.17,0.5z"/>
  <path class="fil4" d="M113.53 256.09c-1.91,5.59 7.34,5.06 9.58,4.53 3.75,-0.88 7.36,-4.98 4.72,-9.48 -1.95,-3.32 -8.2,-3.28 -9.78,-5.97 -1.4,-2.38 0.36,-4.09 2.73,-4.33 3.13,-0.32 4.15,1.23 6.6,1.32l0.02 -2.74c-8.85,-5.96 -19.13,4.15 -10.63,9.74 2.53,1.66 9.2,2.32 7.63,6.48 -1.81,4.79 -8.79,0.42 -10.89,0.45z"/>
  <path class="fil4" d="M480.49 254.59c-2.75,-0.3 -4.09,3.4 -8.7,2.06 -5.71,-1.66 -5.16,-13.66 -0.69,-15.75 4.01,-1.87 6.42,1.35 9.19,1.94 1.23,-6.44 -7.13,-6.07 -9.83,-5.3 -4.63,1.31 -6.77,5.23 -6.96,10.63 -0.2,5.66 1.7,10.06 6.04,11.56 2.28,0.79 5,0.75 7.34,-0.02 2.92,-0.96 4,-1.64 3.61,-5.13z"/>
  <path class="fil4" d="M222.07 299.87c-2.99,-0.4 -4.58,3.78 -9.71,2.28 -6.32,-1.85 -5.87,-15.25 -0.76,-17.59 4.65,-2.12 7.06,1.5 10.26,2.16 1.45,-7.16 -8.01,-6.75 -10.97,-5.91 -12.72,3.63 -10.01,30.41 7.16,24.77 3.23,-1.06 4.52,-1.83 4.03,-5.71z"/>
  <path class="fil5" d="M6.68 298.54c2.41,8.81 12.18,3.58 12.66,-1.02 0.09,-0.86 0.08,-6.68 -0.06,-7.41 -0.48,-2.53 -5.81,-7.1 -10.08,-4.35 -2.89,1.86 -3.77,8.26 -2.53,12.78z"/>
  <path class="fil3" d="M273.29 237.55l-3.68 0.12 -0.04 2.88 3.74 0.29c-0,3.58 -0.41,12.07 0.24,15.07 0.96,4.39 5.67,5.33 9.89,3.48l0.13 -3.06c-7.1,1.04 -6.3,1.84 -6.27,-15.41l6.21 -0.21c0.06,-0.69 0.15,-0.87 0.07,-1.49l-0.5 -1.52 -5.79 -0.2 -0.03 -5.46c-1.94,-0.33 -2.08,-0.49 -3.88,0.2l-0.09 5.32z"/>
  <path class="fil3" d="M229.9 259.51c1.25,0.61 3.99,1.25 3.99,-1l0 -26.05c0,-1.68 0.31,-2.68 -1.22,-3.07 -2.05,-0.52 -2.82,0.08 -3,1.68l0.23 28.42z"/>
  <path class="fil4" d="M321.4 240.85l-0.23 -3.26c-4.43,-0.63 -3.45,-0.62 -3.45,9.25 0,3.44 -0.43,9.81 0.17,12.7 1.48,0.69 1.8,0.56 3.71,0.22 0.92,-7.58 -2.07,-13.71 2.79,-17.84 1.85,-1.57 3.35,-0.82 5.72,-0.57l0.34 -3.69c-5.09,-1.29 -6.47,0.4 -9.05,3.19z"/>
  <path class="fil4" d="M157.43 305.63c0.6,-4.7 -0.45,-11.12 0.22,-15.38 0.25,-1.57 2.25,-4.06 3.21,-4.77 2.08,-1.55 3.68,-0.67 6.27,-0.42l0.1 -4.14c-5.67,-1.39 -7.1,0.48 -9.98,3.61l-0.42 -3.65c-3.86,-0.58 -3.81,-0.39 -3.76,3.25 0.07,4.97 -0.35,18.46 0.23,21.26 1.65,0.79 2,0.64 4.13,0.25z"/>
  <path class="fil4" d="M435.02 240.86l-0.25 -3.26c-4.43,-0.7 -3.45,-0.51 -3.45,9.24 0,3.4 -0.43,9.86 0.17,12.7 1.46,0.68 1.81,0.56 3.7,0.21 0.95,-7.44 -2.08,-13.72 2.8,-17.83 1.82,-1.53 3.31,-0.9 5.75,-0.58l0.3 -3.69c-4.88,-1.25 -6.61,0.5 -9.03,3.21z"/>
  <path class="fil4" d="M136.67 260.18c1.47,0.67 1.81,0.55 3.71,0.22 0.59,-4.58 0.19,-20.43 -0.05,-21.34 -0.37,-1.43 -3.72,-2.21 -3.87,1.18 -0.09,2.08 0.05,4.65 0.05,6.79 0,3.62 -0.44,10.07 0.16,13.16z"/>
  <path class="fil4" d="M101.22 260.16c1.44,0.71 1.79,0.59 3.68,0.22 0.45,-3.43 0.1,-13.18 0.16,-17.85 0.04,-2.67 0.78,-4.44 -1.87,-4.54 -2.71,-0.1 -2.22,1.24 -2.18,3.62 0.04,2.11 0.03,4.21 0.03,6.32 0,3.46 -0.48,9.28 0.18,12.24z"/>
  <path class="fil4" d="M451.27 259.54c1.44,0.7 1.78,0.59 3.66,0.2 0.43,-2.67 0.16,-12.53 0.18,-16.49 0,-0.88 0.05,-1.85 0.03,-2.72 -0,-0.31 -0.02,-1.04 -0.06,-1.32l-0.3 -1.16c-0.21,-0.72 -3.59,-1.99 -3.74,1.54l0.23 19.94z"/>
  <path class="fil5" d="M463.38 294.41c-2.71,-0.1 -6.5,-0.27 -8.71,0.92 -5.28,2.85 -0.2,10.95 6.63,6.11 2.43,-1.72 2.44,-3.36 2.08,-7.04z"/>
  <path class="fil7" d="M554.54 249.73c-2.33,-0.12 -5.56,-0.21 -7.48,0.67 -5.06,2.3 -0.89,9.79 5.37,5.81 2.34,-1.49 2.49,-2.94 2.11,-6.48z"/>
  <path class="fil7" d="M407.29 246.56l11.31 0.1c2.07,-7.97 -11.61,-9.23 -11.31,-0.1z"/>
  <path class="fil7" d="M126.25 290.86l12.86 0.11c0.74,-10.1 -13.19,-9.25 -12.86,-0.11z"/>
  <path class="fil7" d="M293.68 246.56l11.52 0.07c0.68,-8.75 -11.64,-8.57 -11.52,-0.07z"/>
  <path class="fil7" d="M177.93 290.87l12.87 0.09c0.75,-9.97 -13.21,-9.33 -12.87,-0.09z"/>
  <path class="fil7" d="M348.41 249.72c-2.39,-0.11 -5.83,-0.24 -7.77,0.82 -2.19,1.19 -2.44,4.09 -0.93,5.65 1.5,1.55 9.82,2.6 8.7,-6.47z"/>
  <path class="fil7" d="M500.2 249.72c-2.49,-0.11 -5.71,-0.3 -7.79,0.81 -2.23,1.2 -2.48,4.08 -0.93,5.65 1.49,1.51 9.75,2.47 8.72,-6.47z"/>
  <path class="fil7" d="M37.89 291.68l12.85 0.11c0.78,-9.92 -13.25,-9.26 -12.85,-0.11z"/>
  <path class="fil4" d="M158.04 234.46c3.15,0.53 3.39,-0.32 4.9,-2.24 1.16,-1.48 2.52,-2.79 3.12,-4.56 -3.05,-0.72 -3.64,-0.45 -5.07,1.7 -1.04,1.57 -2.42,3.41 -2.94,5.1z"/>
  <path class="fil4" d="M100.92 233.62l4.21 0.24c0.51,-2.14 1.1,-4.39 -1.92,-4.51 -3.19,-0.12 -2.84,1.92 -2.28,4.27z"/>
  <path class="fil4" d="M136.39 233.62l4.21 0.24c0.52,-2.15 0.74,-4.37 -1.93,-4.51 -3.21,-0.17 -2.8,1.94 -2.28,4.27z"/>
  <path class="fil4" d="M450.94 232.98l4.25 0.25c0.47,-2.19 0.72,-4.37 -1.95,-4.51 -3.18,-0.17 -2.8,1.91 -2.3,4.26z"/>
 </g>
</svg>
