<?xml version="1.0" encoding="UTF-8"?>
<!DOCTYPE svg PUBLIC "-//W3C//DTD SVG 1.1//EN" "http://www.w3.org/Graphics/SVG/1.1/DTD/svg11.dtd">
<!-- Creator: CorelDRAW 2021 (64-Bit) -->
<svg xmlns="http://www.w3.org/2000/svg" xml:space="preserve" width="37.0805mm" height="18.6147mm" version="1.1" style="shape-rendering:geometricPrecision; text-rendering:geometricPrecision; image-rendering:optimizeQuality; fill-rule:evenodd; clip-rule:evenodd"
viewBox="0 0 1035.85 520"
 xmlns:xlink="http://www.w3.org/1999/xlink"
 xmlns:xodm="http://www.corel.com/coreldraw/odm/2003">
 <defs>
  <style type="text/css">
   <![CDATA[
    .fil0 {fill:#0F4078}
   ]]>
  </style>
 </defs>
 <g id="Capa_x0020_1">
  <metadata id="CorelCorpID_0Corel-Layer"/>
  <path class="fil0" d="M305.67 236.68l-91.25 0.15c13.35,-27.9 29.89,-68.02 45.45,-92.8 4.19,6.45 8.03,15.21 11.83,23.09l33.98 69.56zm112.17 24.12c-2.65,0 -4.8,-2.15 -4.8,-4.8 0,-2.65 2.15,-4.8 4.8,-4.8l613.2 0c2.65,0 4.8,2.15 4.8,4.8 0,2.65 -2.15,4.8 -4.8,4.8l-613.2 0zm19.9 92.97l0 -52.28 7.98 0 0 52.28 -7.98 0zm20.76 0l0 -37.89 6.65 0 0 5.43c1.6,-2.09 3.54,-3.65 5.84,-4.68 2.32,-1.03 4.96,-1.54 7.95,-1.54 2.34,0 4.48,0.33 6.46,0.98 1.98,0.65 3.56,1.5 4.77,2.56 1.21,1.06 2.11,2.43 2.71,4.13 0.6,1.68 0.9,4.27 0.9,7.77l0 23.26 -7.37 0 0 -23.02c0,-2.79 -0.32,-4.82 -0.99,-6.1 -0.66,-1.27 -1.7,-2.27 -3.12,-2.98 -1.42,-0.69 -3.03,-1.04 -4.91,-1.04 -3.51,0 -6.31,0.94 -8.4,2.81 -2.1,1.89 -3.14,5.1 -3.14,9.66l0 20.68 -7.37 0zm63.11 -5.77l1.02 5.7c-2.04,0.39 -3.89,0.58 -5.52,0.58 -2.57,0 -4.64,-0.37 -6.22,-1.1 -1.57,-0.72 -2.64,-1.72 -3.22,-2.98 -0.6,-1.25 -0.89,-3.77 -0.89,-7.53l0 -21.83 -5.42 0 0 -4.97 5.42 0 0 -9.35 7.37 -3.87 0 13.21 7.47 0 0 4.97 -7.47 0 0 22.19c0,2.06 0.22,3.37 0.65,3.97 0.63,0.86 1.82,1.29 3.56,1.29 0.84,0 1.93,-0.1 3.26,-0.29zm36.62 -6.35l7.57 0.8c-1.26,4.03 -3.56,7.07 -6.87,9.11 -3.32,2.06 -7.43,3.08 -12.33,3.08 -6.17,0 -11.14,-1.67 -14.96,-5.01 -3.82,-3.34 -5.73,-8.15 -5.73,-14.46 0,-6.53 1.93,-11.51 5.78,-14.95 3.85,-3.43 8.71,-5.15 14.62,-5.15 5.63,0 10.33,1.68 14.1,5.05 3.75,3.37 5.64,8.25 5.64,14.64l-0.05 1.7 -32.53 0c0.31,4.27 1.69,7.5 4.16,9.66 2.48,2.18 5.48,3.26 9.02,3.26 5.54,0 9.41,-2.58 11.57,-7.74zm-24.31 -10.44l24.31 0c-0.34,-3.28 -1.31,-5.73 -2.95,-7.35 -2.37,-2.35 -5.38,-3.53 -9.05,-3.53 -3.3,0 -6.11,0.98 -8.45,2.94 -2.34,1.96 -3.62,4.6 -3.86,7.93zm41.18 22.56l0 -37.89 6.65 0 0 5.8c1.7,-2.67 3.26,-4.43 4.67,-5.3 1.41,-0.86 2.99,-1.3 4.77,-1.3 2.45,0 4.98,0.68 7.53,2.04l-2.45 5.99c-1.84,-0.93 -3.61,-1.39 -5.36,-1.39 -1.56,0 -3,0.39 -4.29,1.18 -1.31,0.78 -2.23,1.87 -2.76,3.27 -0.94,2.44 -1.39,5.04 -1.39,7.8l0 19.8 -7.37 0zm27.92 0l0 -37.89 6.64 0 0 5.43c1.61,-2.09 3.55,-3.65 5.85,-4.68 2.32,-1.03 4.96,-1.54 7.94,-1.54 2.34,0 4.48,0.33 6.46,0.98 1.98,0.65 3.56,1.5 4.77,2.56 1.22,1.06 2.12,2.43 2.71,4.13 0.6,1.68 0.91,4.27 0.91,7.77l0 23.26 -7.37 0 0 -23.02c0,-2.79 -0.32,-4.82 -0.99,-6.1 -0.66,-1.27 -1.7,-2.27 -3.12,-2.98 -1.42,-0.69 -3.03,-1.04 -4.91,-1.04 -3.51,0 -6.31,0.94 -8.4,2.81 -2.1,1.89 -3.14,5.1 -3.14,9.66l0 20.68 -7.37 0zm74.97 -4.66c-2.47,1.84 -5.03,3.22 -7.69,4.14 -2.68,0.94 -5.44,1.4 -8.31,1.4 -4.53,0 -8.15,-0.97 -10.84,-2.94 -2.7,-1.94 -4.06,-4.57 -4.06,-7.88 0,-2.19 0.63,-4.13 1.91,-5.82 1.26,-1.69 3,-3.02 5.2,-3.97 2.2,-0.95 5.53,-1.65 10.01,-2.11 6,-0.61 10.41,-1.34 13.21,-2.19l0.05 -1.64c0,-2.61 -0.65,-4.43 -1.94,-5.49 -1.82,-1.52 -4.64,-2.29 -8.43,-2.29 -3.42,0 -5.98,0.51 -7.69,1.52 -1.68,1.01 -2.93,2.92 -3.73,5.71l-7.37 -0.95c1.04,-4.03 3.12,-6.95 6.28,-8.79 3.15,-1.84 7.67,-2.75 13.53,-2.75 4.57,0 8.15,0.61 10.76,1.84 2.6,1.22 4.25,2.74 4.93,4.54 0.68,1.81 1.02,4.44 1.02,7.91l0 8.55c0,5.99 0.15,9.76 0.47,11.32 0.31,1.55 0.94,3.07 1.88,4.54l-7.67 0c-0.78,-1.3 -1.3,-2.86 -1.53,-4.66zm-0.56 -14.32c-2.69,0.95 -6.71,1.75 -12.05,2.41 -3.1,0.38 -5.27,0.82 -6.49,1.3 -1.24,0.49 -2.2,1.18 -2.88,2.07 -0.68,0.89 -1.02,1.92 -1.02,3.09 0,1.8 0.78,3.25 2.35,4.33 1.57,1.08 3.73,1.62 6.49,1.62 2.64,0 5.03,-0.48 7.18,-1.46 2.15,-0.97 3.77,-2.27 4.83,-3.91 1.07,-1.61 1.6,-3.99 1.6,-7.11l0 -2.35zm35.34 13.21l1.02 5.7c-2.05,0.39 -3.89,0.58 -5.53,0.58 -2.57,0 -4.64,-0.37 -6.22,-1.1 -1.57,-0.72 -2.64,-1.72 -3.22,-2.98 -0.6,-1.25 -0.89,-3.77 -0.89,-7.53l0 -21.83 -5.42 0 0 -4.97 5.42 0 0 -9.35 7.37 -3.87 0 13.21 7.47 0 0 4.97 -7.47 0 0 22.19c0,2.06 0.22,3.37 0.65,3.97 0.63,0.86 1.82,1.29 3.56,1.29 0.84,0 1.92,-0.1 3.26,-0.29zm6.85 -39.13l0 -7.38 7.36 0 0 7.38 -7.36 0zm0 44.9l0 -37.89 7.36 0 0 37.89 -7.36 0zm15.87 -18.91c0,-6.54 1.92,-11.46 5.76,-14.8 3.84,-3.32 8.72,-4.99 14.6,-4.99 5.79,0 10.62,1.67 14.52,4.99 3.89,3.33 5.83,8.13 5.83,14.41 0,6.79 -1.91,11.85 -5.75,15.19 -3.82,3.32 -8.69,4.99 -14.6,4.99 -5.82,0 -10.68,-1.67 -14.55,-5.01 -3.87,-3.34 -5.81,-8.26 -5.81,-14.77zm7.57 -0.02c0,4.91 1.25,8.56 3.73,10.96 2.49,2.4 5.57,3.59 9.26,3.59 3.44,0 6.41,-1.2 8.88,-3.63 2.47,-2.42 3.7,-6.06 3.7,-10.93 0,-4.88 -1.24,-8.52 -3.73,-10.92 -2.49,-2.4 -5.57,-3.59 -9.25,-3.59 -3.48,0 -6.44,1.2 -8.9,3.61 -2.46,2.4 -3.68,6.03 -3.68,10.89zm41.83 18.93l0 -37.89 6.64 0 0 5.43c1.61,-2.09 3.55,-3.65 5.85,-4.68 2.32,-1.03 4.96,-1.54 7.95,-1.54 2.34,0 4.48,0.33 6.46,0.98 1.98,0.65 3.56,1.5 4.77,2.56 1.21,1.06 2.11,2.43 2.71,4.13 0.6,1.68 0.91,4.27 0.91,7.77l0 23.26 -7.37 0 0 -23.02c0,-2.79 -0.32,-4.82 -0.99,-6.1 -0.66,-1.27 -1.7,-2.27 -3.12,-2.98 -1.42,-0.69 -3.03,-1.04 -4.91,-1.04 -3.51,0 -6.31,0.94 -8.4,2.81 -2.1,1.89 -3.14,5.1 -3.14,9.66l0 20.68 -7.37 0zm74.97 -4.66c-2.47,1.84 -5.03,3.22 -7.69,4.14 -2.68,0.94 -5.44,1.4 -8.3,1.4 -4.54,0 -8.15,-0.97 -10.84,-2.94 -2.71,-1.94 -4.06,-4.57 -4.06,-7.88 0,-2.19 0.63,-4.13 1.91,-5.82 1.26,-1.69 3,-3.02 5.2,-3.97 2.19,-0.95 5.53,-1.65 10.01,-2.11 6,-0.61 10.42,-1.34 13.21,-2.19l0.06 -1.64c0,-2.61 -0.65,-4.43 -1.94,-5.49 -1.82,-1.52 -4.63,-2.29 -8.43,-2.29 -3.43,0 -5.98,0.51 -7.69,1.52 -1.68,1.01 -2.93,2.92 -3.73,5.71l-7.37 -0.95c1.04,-4.03 3.12,-6.95 6.28,-8.79 3.15,-1.84 7.67,-2.75 13.53,-2.75 4.58,0 8.15,0.61 10.76,1.84 2.6,1.22 4.25,2.74 4.93,4.54 0.68,1.81 1.02,4.44 1.02,7.91l0 8.55c0,5.99 0.15,9.76 0.47,11.32 0.31,1.55 0.94,3.07 1.88,4.54l-7.67 0c-0.78,-1.3 -1.29,-2.86 -1.53,-4.66zm-0.56 -14.32c-2.69,0.95 -6.72,1.75 -12.05,2.41 -3.11,0.38 -5.27,0.82 -6.49,1.3 -1.25,0.49 -2.2,1.18 -2.89,2.07 -0.68,0.89 -1.02,1.92 -1.02,3.09 0,1.8 0.78,3.25 2.35,4.33 1.57,1.08 3.73,1.62 6.49,1.62 2.64,0 5.03,-0.48 7.18,-1.46 2.15,-0.97 3.77,-2.27 4.83,-3.91 1.07,-1.61 1.6,-3.99 1.6,-7.11l0 -2.35zm18.67 18.98l0 -52.28 7.36 0 0 52.28 -7.36 0zm-399.13 64.35l7.98 1.75c-1.76,5.87 -4.86,10.23 -9.26,13.12 -4.42,2.88 -9.79,4.33 -16.11,4.33 -5.56,0 -10.31,-0.97 -14.27,-2.91 -3.94,-1.94 -7.16,-5.04 -9.69,-9.32 -2.5,-4.27 -3.77,-9.32 -3.77,-15.14 0,-5.76 1.27,-10.62 3.77,-14.6 2.53,-3.98 5.93,-6.98 10.23,-9.02 4.29,-2.03 9.09,-3.04 14.39,-3.04 5.8,0 10.78,1.29 14.94,3.86 4.16,2.58 7.07,6.35 8.75,11.33l-7.78 1.61c-2.66,-7.25 -8.01,-10.88 -16.06,-10.88 -3.99,0 -7.46,0.73 -10.4,2.19 -2.93,1.46 -5.26,3.73 -7.02,6.82 -1.75,3.09 -2.63,7 -2.63,11.73 0,7.14 1.78,12.51 5.3,16.09 3.53,3.58 8.22,5.36 14.08,5.36 4.33,0 8.08,-1.09 11.22,-3.3 3.15,-2.19 5.27,-5.52 6.32,-9.99zm16.86 18.33l0 -37.89 6.64 0 0 5.8c1.71,-2.67 3.26,-4.43 4.67,-5.3 1.42,-0.86 3,-1.3 4.77,-1.3 2.46,0 4.98,0.68 7.53,2.04l-2.45 5.99c-1.84,-0.93 -3.61,-1.39 -5.36,-1.39 -1.56,0 -3,0.39 -4.29,1.18 -1.31,0.78 -2.23,1.87 -2.77,3.27 -0.93,2.44 -1.39,5.04 -1.39,7.8l0 19.8 -7.36 0zm27.92 -44.9l0 -7.38 7.36 0 0 7.38 -7.36 0zm0 44.9l0 -37.89 7.36 0 0 37.89 -7.36 0zm18.63 0l0 -37.89 6.64 0 0 5.36c1.47,-1.97 3.33,-3.49 5.61,-4.55 2.3,-1.07 4.79,-1.61 7.51,-1.61 3.05,0 5.63,0.56 7.73,1.69 2.09,1.12 3.6,2.76 4.5,4.93 1.74,-2.2 3.73,-3.86 5.98,-4.96 2.25,-1.11 4.74,-1.65 7.47,-1.65 4.18,0 7.47,1.01 9.87,3.03 2.41,2.02 3.6,5.24 3.6,9.69l0 25.98 -7.37 0 0 -23.85c0,-2.7 -0.27,-4.62 -0.82,-5.75 -0.56,-1.12 -1.45,-2 -2.68,-2.62 -1.24,-0.62 -2.63,-0.92 -4.16,-0.92 -3.17,0 -5.75,0.9 -7.76,2.69 -1.99,1.8 -3,4.61 -3,8.47l0 21.99 -7.37 0 0 -24.59c0,-3.14 -0.66,-5.34 -2.01,-6.63 -1.35,-1.28 -3.21,-1.92 -5.56,-1.92 -3.34,0 -5.98,0.97 -7.93,2.91 -1.94,1.94 -2.91,5.46 -2.91,10.6l0 19.64 -7.37 0zm69.88 -44.9l0 -7.38 7.37 0 0 7.38 -7.37 0zm0 44.9l0 -37.89 7.37 0 0 37.89 -7.37 0zm18.63 0l0 -37.89 6.64 0 0 5.43c1.61,-2.09 3.54,-3.65 5.85,-4.68 2.32,-1.03 4.96,-1.54 7.94,-1.54 2.34,0 4.48,0.33 6.46,0.98 1.98,0.65 3.56,1.5 4.77,2.56 1.21,1.06 2.11,2.43 2.71,4.13 0.6,1.68 0.91,4.27 0.91,7.77l0 23.26 -7.37 0 0 -23.02c0,-2.79 -0.32,-4.82 -0.99,-6.1 -0.66,-1.27 -1.7,-2.27 -3.12,-2.98 -1.42,-0.69 -3.04,-1.04 -4.91,-1.04 -3.51,0 -6.31,0.94 -8.4,2.81 -2.1,1.89 -3.14,5.1 -3.14,9.66l0 20.68 -7.37 0zm74.97 -4.66c-2.47,1.84 -5.03,3.22 -7.69,4.14 -2.68,0.94 -5.44,1.4 -8.3,1.4 -4.54,0 -8.15,-0.97 -10.85,-2.94 -2.71,-1.94 -4.06,-4.57 -4.06,-7.88 0,-2.19 0.63,-4.13 1.91,-5.82 1.26,-1.69 3,-3.02 5.2,-3.97 2.19,-0.95 5.53,-1.65 10.01,-2.11 6,-0.61 10.42,-1.34 13.21,-2.19l0.05 -1.64c0,-2.61 -0.65,-4.43 -1.94,-5.49 -1.82,-1.52 -4.64,-2.29 -8.43,-2.29 -3.42,0 -5.98,0.51 -7.69,1.52 -1.68,1.01 -2.93,2.92 -3.73,5.71l-7.37 -0.95c1.04,-4.03 3.12,-6.95 6.28,-8.79 3.15,-1.84 7.67,-2.75 13.53,-2.75 4.57,0 8.15,0.61 10.76,1.84 2.6,1.22 4.25,2.74 4.93,4.54 0.68,1.81 1.02,4.44 1.02,7.91l0 8.55c0,5.99 0.15,9.76 0.47,11.32 0.31,1.55 0.94,3.07 1.88,4.54l-7.67 0c-0.78,-1.3 -1.3,-2.86 -1.53,-4.66zm-0.56 -14.32c-2.69,0.95 -6.72,1.75 -12.05,2.41 -3.11,0.38 -5.27,0.82 -6.49,1.3 -1.24,0.49 -2.2,1.18 -2.88,2.07 -0.68,0.89 -1.02,1.92 -1.02,3.09 0,1.8 0.78,3.25 2.35,4.33 1.57,1.08 3.73,1.62 6.49,1.62 2.64,0 5.03,-0.48 7.18,-1.46 2.15,-0.97 3.77,-2.27 4.83,-3.91 1.07,-1.61 1.6,-3.99 1.6,-7.11l0 -2.35zm18.67 18.98l0 -52.28 7.36 0 0 52.28 -7.36 0zm-245 64.35l7.98 1.75c-1.76,5.87 -4.86,10.23 -9.26,13.12 -4.42,2.88 -9.79,4.33 -16.11,4.33 -5.56,0 -10.31,-0.97 -14.27,-2.91 -3.94,-1.94 -7.16,-5.04 -9.69,-9.32 -2.5,-4.27 -3.77,-9.32 -3.77,-15.14 0,-5.76 1.27,-10.62 3.77,-14.6 2.53,-3.98 5.93,-6.98 10.23,-9.02 4.29,-2.03 9.09,-3.04 14.39,-3.04 5.8,0 10.78,1.29 14.94,3.86 4.16,2.58 7.07,6.35 8.75,11.33l-7.78 1.61c-2.66,-7.25 -8.01,-10.88 -16.06,-10.88 -3.99,0 -7.46,0.73 -10.4,2.19 -2.93,1.46 -5.26,3.73 -7.02,6.82 -1.75,3.09 -2.63,7 -2.63,11.73 0,7.14 1.78,12.51 5.3,16.09 3.53,3.58 8.22,5.36 14.08,5.36 4.33,0 8.08,-1.09 11.22,-3.3 3.15,-2.19 5.27,-5.52 6.32,-9.99zm14.1 -0.58c0,-6.54 1.92,-11.46 5.76,-14.8 3.84,-3.32 8.72,-4.99 14.6,-4.99 5.79,0 10.62,1.67 14.52,4.99 3.89,3.33 5.83,8.13 5.83,14.41 0,6.79 -1.91,11.85 -5.75,15.19 -3.82,3.32 -8.69,4.99 -14.6,4.99 -5.82,0 -10.68,-1.67 -14.55,-5.01 -3.87,-3.34 -5.81,-8.26 -5.81,-14.77zm7.57 -0.02c0,4.91 1.25,8.56 3.73,10.96 2.49,2.4 5.57,3.59 9.26,3.59 3.44,0 6.41,-1.2 8.88,-3.63 2.47,-2.42 3.7,-6.06 3.7,-10.93 0,-4.88 -1.24,-8.52 -3.73,-10.92 -2.49,-2.4 -5.57,-3.59 -9.25,-3.59 -3.48,0 -6.44,1.2 -8.9,3.61 -2.46,2.4 -3.68,6.03 -3.68,10.89zm70.27 18.93l0 -5.56c-1.69,2.15 -3.7,3.75 -5.98,4.83 -2.3,1.07 -4.9,1.61 -7.79,1.61 -3.43,0 -6.34,-0.66 -8.78,-1.98 -2.42,-1.32 -4.04,-2.99 -4.86,-5.01 -0.82,-2.02 -1.23,-4.78 -1.23,-8.29l0 -23.49 7.36 0 0 21.02c0,3.91 0.28,6.51 0.83,7.84 0.54,1.31 1.56,2.37 3.03,3.18 1.48,0.79 3.17,1.19 5.06,1.19 3.51,0 6.39,-1.03 8.66,-3.1 1.93,-1.79 2.88,-5.06 2.88,-9.82l0 -20.3 7.37 0 0 37.89 -6.55 0zm18.21 0l0 -37.89 6.64 0 0 5.8c1.7,-2.67 3.26,-4.43 4.67,-5.3 1.42,-0.86 2.99,-1.3 4.77,-1.3 2.45,0 4.98,0.68 7.53,2.04l-2.46 5.99c-1.84,-0.93 -3.61,-1.39 -5.35,-1.39 -1.56,0 -3,0.39 -4.29,1.18 -1.31,0.78 -2.23,1.87 -2.77,3.27 -0.93,2.44 -1.39,5.04 -1.39,7.8l0 19.8 -7.37 0zm44.39 -5.77l1.02 5.7c-2.05,0.39 -3.89,0.58 -5.53,0.58 -2.57,0 -4.64,-0.37 -6.22,-1.1 -1.56,-0.72 -2.64,-1.72 -3.22,-2.98 -0.6,-1.25 -0.89,-3.77 -0.89,-7.53l0 -21.83 -5.42 0 0 -4.97 5.42 0 0 -9.35 7.37 -3.87 0 13.21 7.47 0 0 4.97 -7.47 0 0 22.19c0,2.06 0.22,3.37 0.65,3.97 0.63,0.86 1.82,1.29 3.56,1.29 0.84,0 1.92,-0.1 3.26,-0.29zm-159.55 -478.53l7.98 1.75c-1.76,5.87 -4.86,10.24 -9.26,13.12 -4.42,2.89 -9.79,4.33 -16.11,4.33 -5.56,0 -10.31,-0.97 -14.27,-2.91 -3.94,-1.94 -7.16,-5.04 -9.69,-9.32 -2.5,-4.28 -3.77,-9.32 -3.77,-15.14 0,-5.76 1.27,-10.62 3.77,-14.6 2.53,-3.98 5.93,-6.98 10.23,-9.02 4.29,-2.03 9.09,-3.04 14.39,-3.04 5.8,0 10.77,1.29 14.93,3.86 4.16,2.58 7.08,6.35 8.75,11.33l-7.78 1.61c-2.66,-7.25 -8.01,-10.88 -16.06,-10.88 -3.99,0 -7.47,0.73 -10.4,2.19 -2.93,1.46 -5.27,3.73 -7.03,6.82 -1.75,3.09 -2.63,7 -2.63,11.73 0,7.14 1.78,12.51 5.31,16.09 3.53,3.58 8.22,5.37 14.08,5.37 4.33,0 8.08,-1.1 11.22,-3.3 3.15,-2.19 5.26,-5.52 6.32,-9.99zm14.1 -0.58c0,-6.54 1.92,-11.46 5.76,-14.8 3.84,-3.32 8.71,-4.99 14.6,-4.99 5.79,0 10.62,1.67 14.52,4.99 3.89,3.33 5.83,8.13 5.83,14.41 0,6.79 -1.91,11.86 -5.74,15.19 -3.82,3.32 -8.7,4.99 -14.61,4.99 -5.82,0 -10.68,-1.67 -14.54,-5.01 -3.87,-3.34 -5.81,-8.27 -5.81,-14.77zm7.57 -0.02c0,4.92 1.25,8.56 3.73,10.96 2.49,2.4 5.57,3.59 9.26,3.59 3.44,0 6.41,-1.2 8.88,-3.63 2.47,-2.42 3.7,-6.06 3.7,-10.93 0,-4.88 -1.24,-8.52 -3.73,-10.92 -2.48,-2.4 -5.57,-3.59 -9.25,-3.59 -3.48,0 -6.44,1.2 -8.9,3.61 -2.46,2.4 -3.68,6.03 -3.68,10.89zm70.27 18.93l0 -5.56c-1.69,2.14 -3.7,3.75 -5.98,4.83 -2.3,1.07 -4.9,1.61 -7.79,1.61 -3.43,0 -6.35,-0.66 -8.79,-1.98 -2.42,-1.32 -4.04,-2.99 -4.86,-5.01 -0.82,-2.02 -1.22,-4.78 -1.22,-8.29l0 -23.48 7.36 0 0 21.01c0,3.91 0.28,6.51 0.82,7.84 0.54,1.31 1.56,2.37 3.04,3.18 1.48,0.79 3.17,1.19 5.06,1.19 3.51,0 6.39,-1.03 8.66,-3.1 1.93,-1.79 2.89,-5.06 2.89,-9.82l0 -20.29 7.36 0 0 37.89 -6.55 0zm18.21 0l0 -37.89 6.65 0 0 5.8c1.7,-2.67 3.26,-4.43 4.67,-5.3 1.42,-0.86 2.99,-1.3 4.77,-1.3 2.45,0 4.98,0.68 7.53,2.04l-2.45 5.99c-1.84,-0.92 -3.61,-1.39 -5.35,-1.39 -1.56,0 -3,0.39 -4.29,1.18 -1.31,0.78 -2.23,1.87 -2.77,3.27 -0.93,2.45 -1.39,5.04 -1.39,7.8l0 19.8 -7.37 0zm-152.79 82.68l0 -52.28 22.64 0c5.33,0 9.25,0.33 11.79,1 3.46,0.9 6.22,2.57 8.28,5.02 2.07,2.44 3.1,5.45 3.1,9 0,4.7 -1.69,8.53 -5.05,11.49 -3.36,2.97 -9.17,4.45 -17.42,4.45l-15.38 0 0 21.32 -7.98 0zm7.98 -27.45l15.53 0c4.9,0 8.48,-0.79 10.75,-2.37 2.27,-1.58 3.39,-3.97 3.39,-7.16 0,-2.06 -0.56,-3.83 -1.66,-5.3 -1.13,-1.49 -2.48,-2.5 -4.04,-3.04 -1.59,-0.55 -4.45,-0.82 -8.58,-0.82l-15.38 0 0 18.69zm76.69 15.34l7.57 0.8c-1.26,4.03 -3.56,7.07 -6.87,9.11 -3.32,2.06 -7.43,3.08 -12.32,3.08 -6.17,0 -11.15,-1.67 -14.97,-5.01 -3.82,-3.34 -5.73,-8.15 -5.73,-14.46 0,-6.53 1.92,-11.51 5.79,-14.96 3.85,-3.43 8.71,-5.15 14.62,-5.15 5.63,0 10.33,1.68 14.1,5.05 3.75,3.37 5.65,8.25 5.65,14.64l-0.05 1.7 -32.53 0c0.31,4.27 1.69,7.49 4.16,9.66 2.47,2.18 5.48,3.26 9.02,3.26 5.53,0 9.41,-2.58 11.57,-7.74zm-24.31 -10.44l24.31 0c-0.34,-3.29 -1.31,-5.73 -2.94,-7.35 -2.37,-2.35 -5.39,-3.53 -9.06,-3.53 -3.3,0 -6.12,0.98 -8.45,2.94 -2.34,1.96 -3.61,4.6 -3.85,7.94zm18.58 -20.01l-5.96 0 -9.48 -10 9.92 0 5.52 10zm22.61 42.57l0 -37.89 6.65 0 0 5.42c1.6,-2.09 3.54,-3.65 5.85,-4.68 2.32,-1.03 4.96,-1.54 7.95,-1.54 2.34,0 4.48,0.33 6.46,0.98 1.97,0.65 3.56,1.5 4.77,2.56 1.21,1.06 2.12,2.43 2.71,4.12 0.6,1.68 0.91,4.27 0.91,7.77l0 23.26 -7.37 0 0 -23.02c0,-2.79 -0.32,-4.82 -0.99,-6.1 -0.66,-1.28 -1.71,-2.27 -3.12,-2.98 -1.41,-0.7 -3.03,-1.04 -4.91,-1.04 -3.51,0 -6.31,0.94 -8.4,2.81 -2.1,1.89 -3.14,5.1 -3.14,9.66l0 20.67 -7.37 0zm74.98 -4.66c-2.47,1.84 -5.03,3.22 -7.69,4.14 -2.68,0.94 -5.44,1.4 -8.3,1.4 -4.54,0 -8.15,-0.97 -10.84,-2.93 -2.71,-1.94 -4.06,-4.58 -4.06,-7.89 0,-2.19 0.63,-4.12 1.91,-5.81 1.27,-1.7 3,-3.02 5.2,-3.97 2.19,-0.95 5.53,-1.66 10,-2.11 6,-0.61 10.42,-1.34 13.21,-2.19l0.05 -1.64c0,-2.6 -0.65,-4.43 -1.94,-5.49 -1.82,-1.52 -4.64,-2.29 -8.43,-2.29 -3.42,0 -5.98,0.51 -7.69,1.52 -1.68,1.01 -2.93,2.92 -3.73,5.71l-7.36 -0.95c1.04,-4.03 3.12,-6.95 6.28,-8.79 3.15,-1.84 7.67,-2.75 13.53,-2.75 4.57,0 8.15,0.61 10.76,1.84 2.59,1.22 4.24,2.74 4.93,4.54 0.68,1.81 1.02,4.44 1.02,7.91l0 8.55c0,5.99 0.15,9.76 0.48,11.32 0.31,1.55 0.94,3.07 1.88,4.54l-7.67 0c-0.79,-1.3 -1.3,-2.86 -1.53,-4.66zm-0.56 -14.32c-2.69,0.95 -6.72,1.75 -12.05,2.41 -3.11,0.38 -5.27,0.82 -6.49,1.3 -1.25,0.49 -2.2,1.18 -2.89,2.07 -0.68,0.89 -1.02,1.92 -1.02,3.09 0,1.8 0.78,3.25 2.35,4.33 1.57,1.08 3.73,1.62 6.49,1.62 2.64,0 5.03,-0.48 7.18,-1.46 2.15,-0.97 3.77,-2.27 4.83,-3.91 1.07,-1.62 1.6,-3.99 1.6,-7.11l0 -2.35zm18.67 18.98l0 -52.28 7.36 0 0 52.28 -7.36 0zm48.6 -12.12l7.57 0.8c-1.25,4.03 -3.56,7.07 -6.87,9.11 -3.32,2.06 -7.43,3.08 -12.32,3.08 -6.17,0 -11.15,-1.67 -14.96,-5.01 -3.82,-3.34 -5.73,-8.15 -5.73,-14.46 0,-6.53 1.92,-11.51 5.78,-14.96 3.85,-3.43 8.71,-5.15 14.62,-5.15 5.63,0 10.33,1.68 14.1,5.05 3.75,3.37 5.65,8.25 5.65,14.64l-0.05 1.7 -32.53 0c0.3,4.27 1.69,7.49 4.16,9.66 2.47,2.18 5.48,3.26 9.02,3.26 5.53,0 9.41,-2.58 11.57,-7.74zm-24.31 -10.44l24.31 0c-0.34,-3.29 -1.32,-5.73 -2.95,-7.35 -2.37,-2.35 -5.39,-3.53 -9.06,-3.53 -3.3,0 -6.12,0.98 -8.45,2.94 -2.34,1.96 -3.61,4.6 -3.85,7.94zm-217.39 105.24l0 -52.28 7.98 0 0 52.28 -7.98 0zm20.77 0l0 -37.89 6.65 0 0 5.42c1.6,-2.09 3.54,-3.65 5.85,-4.68 2.32,-1.03 4.96,-1.54 7.95,-1.54 2.34,0 4.48,0.33 6.46,0.98 1.97,0.65 3.56,1.5 4.77,2.56 1.21,1.06 2.11,2.43 2.71,4.12 0.6,1.68 0.9,4.27 0.9,7.77l0 23.26 -7.36 0 0 -23.02c0,-2.79 -0.32,-4.82 -0.99,-6.1 -0.66,-1.28 -1.71,-2.27 -3.12,-2.98 -1.42,-0.7 -3.04,-1.04 -4.91,-1.04 -3.51,0 -6.31,0.94 -8.4,2.81 -2.1,1.89 -3.14,5.1 -3.14,9.66l0 20.67 -7.36 0zm63.11 -5.77l1.02 5.69c-2.05,0.39 -3.89,0.58 -5.52,0.58 -2.57,0 -4.64,-0.36 -6.23,-1.1 -1.56,-0.72 -2.64,-1.72 -3.22,-2.98 -0.6,-1.26 -0.89,-3.78 -0.89,-7.54l0 -21.83 -5.42 0 0 -4.96 5.42 0 0 -9.35 7.37 -3.87 0 13.22 7.46 0 0 4.96 -7.46 0 0 22.19c0,2.06 0.22,3.37 0.65,3.97 0.63,0.86 1.82,1.29 3.56,1.29 0.84,0 1.93,-0.09 3.26,-0.29zm36.62 -6.35l7.57 0.8c-1.26,4.03 -3.56,7.07 -6.87,9.11 -3.33,2.06 -7.43,3.08 -12.33,3.08 -6.17,0 -11.15,-1.67 -14.97,-5.01 -3.82,-3.34 -5.73,-8.15 -5.73,-14.46 0,-6.53 1.93,-11.51 5.79,-14.96 3.85,-3.43 8.71,-5.15 14.62,-5.15 5.63,0 10.33,1.68 14.1,5.05 3.75,3.37 5.64,8.25 5.64,14.64l-0.05 1.7 -32.53 0c0.31,4.27 1.69,7.49 4.16,9.66 2.48,2.18 5.48,3.26 9.02,3.26 5.54,0 9.41,-2.58 11.58,-7.74zm-24.31 -10.44l24.31 0c-0.34,-3.29 -1.32,-5.73 -2.95,-7.35 -2.37,-2.35 -5.39,-3.53 -9.06,-3.53 -3.3,0 -6.11,0.98 -8.45,2.94 -2.34,1.96 -3.62,4.6 -3.86,7.94zm41.18 22.56l0 -37.89 6.65 0 0 5.8c1.7,-2.67 3.26,-4.43 4.67,-5.3 1.41,-0.86 2.99,-1.3 4.77,-1.3 2.45,0 4.97,0.68 7.53,2.04l-2.46 5.99c-1.84,-0.92 -3.61,-1.39 -5.35,-1.39 -1.56,0 -3,0.39 -4.29,1.18 -1.31,0.78 -2.23,1.87 -2.77,3.27 -0.94,2.45 -1.39,5.04 -1.39,7.8l0 19.8 -7.37 0zm27.92 0l0 -37.89 6.65 0 0 5.42c1.6,-2.09 3.55,-3.65 5.85,-4.68 2.32,-1.03 4.96,-1.54 7.95,-1.54 2.34,0 4.48,0.33 6.46,0.98 1.97,0.65 3.56,1.5 4.77,2.56 1.21,1.06 2.12,2.43 2.71,4.12 0.6,1.68 0.91,4.27 0.91,7.77l0 23.26 -7.37 0 0 -23.02c0,-2.79 -0.32,-4.82 -0.99,-6.1 -0.66,-1.28 -1.71,-2.27 -3.12,-2.98 -1.42,-0.7 -3.03,-1.04 -4.91,-1.04 -3.51,0 -6.31,0.94 -8.4,2.81 -2.1,1.89 -3.14,5.1 -3.14,9.66l0 20.67 -7.37 0zm74.98 -4.66c-2.47,1.84 -5.03,3.22 -7.69,4.14 -2.68,0.94 -5.44,1.4 -8.3,1.4 -4.54,0 -8.15,-0.97 -10.84,-2.93 -2.7,-1.94 -4.06,-4.58 -4.06,-7.89 0,-2.19 0.63,-4.12 1.91,-5.81 1.26,-1.7 3,-3.02 5.2,-3.97 2.2,-0.95 5.53,-1.66 10.01,-2.11 6,-0.61 10.41,-1.34 13.2,-2.19l0.06 -1.64c0,-2.6 -0.65,-4.43 -1.94,-5.49 -1.82,-1.52 -4.63,-2.29 -8.43,-2.29 -3.42,0 -5.98,0.51 -7.69,1.52 -1.68,1.01 -2.93,2.92 -3.73,5.71l-7.37 -0.95c1.04,-4.03 3.12,-6.95 6.28,-8.79 3.15,-1.84 7.67,-2.75 13.53,-2.75 4.57,0 8.15,0.61 10.76,1.84 2.6,1.22 4.25,2.74 4.93,4.54 0.68,1.81 1.02,4.44 1.02,7.91l0 8.55c0,5.99 0.15,9.76 0.47,11.32 0.31,1.55 0.94,3.07 1.88,4.54l-7.67 0c-0.78,-1.3 -1.29,-2.86 -1.53,-4.66zm-0.57 -14.32c-2.69,0.95 -6.71,1.75 -12.05,2.41 -3.1,0.38 -5.27,0.82 -6.49,1.3 -1.25,0.49 -2.2,1.18 -2.89,2.07 -0.68,0.89 -1.02,1.92 -1.02,3.09 0,1.8 0.78,3.25 2.35,4.33 1.57,1.08 3.73,1.62 6.49,1.62 2.64,0 5.03,-0.48 7.18,-1.46 2.15,-0.97 3.77,-2.27 4.83,-3.91 1.07,-1.62 1.6,-3.99 1.6,-7.11l0 -2.35zm35.34 13.22l1.02 5.69c-2.05,0.39 -3.89,0.58 -5.53,0.58 -2.57,0 -4.64,-0.36 -6.23,-1.1 -1.57,-0.72 -2.64,-1.72 -3.22,-2.98 -0.6,-1.26 -0.89,-3.78 -0.89,-7.54l0 -21.83 -5.42 0 0 -4.96 5.42 0 0 -9.35 7.37 -3.87 0 13.22 7.47 0 0 4.96 -7.47 0 0 22.19c0,2.06 0.22,3.37 0.65,3.97 0.63,0.86 1.82,1.29 3.56,1.29 0.84,0 1.92,-0.09 3.26,-0.29zm6.85 -39.13l0 -7.38 7.37 0 0 7.38 -7.37 0zm0 44.9l0 -37.89 7.37 0 0 37.89 -7.37 0zm15.87 -18.91c0,-6.54 1.92,-11.46 5.76,-14.8 3.84,-3.32 8.71,-4.99 14.6,-4.99 5.79,0 10.62,1.67 14.52,4.99 3.89,3.33 5.83,8.13 5.83,14.41 0,6.79 -1.91,11.86 -5.74,15.19 -3.82,3.32 -8.7,4.99 -14.61,4.99 -5.82,0 -10.68,-1.67 -14.54,-5.01 -3.87,-3.34 -5.81,-8.27 -5.81,-14.77zm7.57 -0.02c0,4.92 1.25,8.56 3.73,10.96 2.49,2.4 5.57,3.59 9.26,3.59 3.44,0 6.41,-1.2 8.88,-3.63 2.47,-2.42 3.7,-6.06 3.7,-10.93 0,-4.88 -1.24,-8.52 -3.73,-10.92 -2.48,-2.4 -5.57,-3.59 -9.25,-3.59 -3.48,0 -6.44,1.2 -8.9,3.61 -2.46,2.4 -3.68,6.03 -3.68,10.89zm41.84 18.93l0 -37.89 6.64 0 0 5.42c1.61,-2.09 3.55,-3.65 5.85,-4.68 2.32,-1.03 4.96,-1.54 7.94,-1.54 2.34,0 4.48,0.33 6.46,0.98 1.98,0.65 3.56,1.5 4.77,2.56 1.22,1.06 2.12,2.43 2.71,4.12 0.6,1.68 0.91,4.27 0.91,7.77l0 23.26 -7.36 0 0 -23.02c0,-2.79 -0.32,-4.82 -0.99,-6.1 -0.66,-1.28 -1.7,-2.27 -3.12,-2.98 -1.42,-0.7 -3.03,-1.04 -4.91,-1.04 -3.51,0 -6.31,0.94 -8.4,2.81 -2.1,1.89 -3.14,5.1 -3.14,9.66l0 20.67 -7.36 0zm74.97 -4.66c-2.47,1.84 -5.03,3.22 -7.69,4.14 -2.68,0.94 -5.44,1.4 -8.31,1.4 -4.53,0 -8.15,-0.97 -10.84,-2.93 -2.71,-1.94 -4.06,-4.58 -4.06,-7.89 0,-2.19 0.63,-4.12 1.91,-5.81 1.26,-1.7 3,-3.02 5.2,-3.97 2.19,-0.95 5.53,-1.66 10.01,-2.11 6,-0.61 10.41,-1.34 13.21,-2.19l0.05 -1.64c0,-2.6 -0.65,-4.43 -1.94,-5.49 -1.82,-1.52 -4.63,-2.29 -8.43,-2.29 -3.42,0 -5.98,0.51 -7.69,1.52 -1.68,1.01 -2.93,2.92 -3.73,5.71l-7.37 -0.95c1.04,-4.03 3.12,-6.95 6.28,-8.79 3.15,-1.84 7.67,-2.75 13.53,-2.75 4.57,0 8.15,0.61 10.76,1.84 2.6,1.22 4.25,2.74 4.93,4.54 0.68,1.81 1.02,4.44 1.02,7.91l0 8.55c0,5.99 0.15,9.76 0.47,11.32 0.31,1.55 0.94,3.07 1.88,4.54l-7.67 0c-0.78,-1.3 -1.29,-2.86 -1.53,-4.66zm-0.56 -14.32c-2.69,0.95 -6.72,1.75 -12.05,2.41 -3.11,0.38 -5.27,0.82 -6.49,1.3 -1.24,0.49 -2.2,1.18 -2.88,2.07 -0.68,0.89 -1.02,1.92 -1.02,3.09 0,1.8 0.78,3.25 2.35,4.33 1.57,1.08 3.73,1.62 6.49,1.62 2.64,0 5.03,-0.48 7.18,-1.46 2.15,-0.97 3.77,-2.27 4.83,-3.91 1.07,-1.62 1.6,-3.99 1.6,-7.11l0 -2.35zm18.67 18.98l0 -52.28 7.36 0 0 52.28 -7.36 0zm48.6 -12.12l7.57 0.8c-1.26,4.03 -3.56,7.07 -6.87,9.11 -3.33,2.06 -7.43,3.08 -12.33,3.08 -6.17,0 -11.15,-1.67 -14.97,-5.01 -3.82,-3.34 -5.73,-8.15 -5.73,-14.46 0,-6.53 1.92,-11.51 5.78,-14.96 3.85,-3.43 8.71,-5.15 14.62,-5.15 5.63,0 10.33,1.68 14.1,5.05 3.75,3.37 5.65,8.25 5.65,14.64l-0.05 1.7 -32.53 0c0.31,4.27 1.69,7.49 4.16,9.66 2.48,2.18 5.48,3.26 9.02,3.26 5.54,0 9.41,-2.58 11.57,-7.74zm-24.31 -10.44l24.31 0c-0.34,-3.29 -1.31,-5.73 -2.94,-7.35 -2.37,-2.35 -5.39,-3.53 -9.06,-3.53 -3.3,0 -6.12,0.98 -8.45,2.94 -2.34,1.96 -3.61,4.6 -3.85,7.94zm-752.83 231.74c4.33,4.49 4.47,5.52 9.05,-0.82 11.83,-16.36 19.44,-17.47 26.18,-29.85 -8.34,2.6 -14.28,7.68 -20.25,13.11 -5.21,4.74 -12.3,10.18 -14.97,17.56zm49.67 -34.3c0.45,0.46 1.01,1.07 1.35,1.39l5.04 4.39c21.88,17.59 27.14,32.62 34.52,29.45 0.59,-2.5 1.74,0.7 0.23,-4.38 -0.16,-0.54 -1.13,-2.22 -1.45,-2.75 -4.79,-7.74 -27.92,-24.55 -39.69,-28.09zm135.11 -270.04c-5.95,-24.06 -13.52,-35.34 -32.56,-42.67 7.21,15.44 19.53,36.19 32.56,42.67zm-283.57 3.41c5.88,-3.45 0.46,0.73 5.73,-3.99 1.66,-1.48 2.84,-2.84 5.09,-5.38 13.65,-15.49 15.31,-24.29 22.75,-34.66 -17.36,5.52 -29.35,20.85 -33.57,44.03zm300.44 30.37c-5.25,-3.77 -6.18,-12.3 -27.36,-29.6 -4.96,-4.05 -4.73,-5.69 -9.84,-9.06 3.12,11.39 9.2,18.91 17.05,26.51 4.15,4.03 7.18,6.42 11,9.98l11.65 11.2c-0.63,-37.97 3.75,-45.1 -16.69,-64.02 3.35,11.17 12.95,41.83 14.2,54.98zm-319 13.51c5.12,-3.21 0.08,1.65 5.58,-4.24 2.32,-2.48 1.47,-2.48 4.68,-5.86 3.14,-3.29 7.4,-7.12 10.6,-10.54 4.26,-4.56 6.61,-7.92 9.6,-11.82 5.06,-6.59 5.4,-5.15 7.9,-15.52l-20.03 16.83c-11.16,9.33 -7.94,13.83 -15.62,22.14l11.11 -54.09c-19.08,13.72 -13.59,40.16 -13.82,63.09zm58.76 237.83c26.99,27.06 54.86,0.48 78.37,-16.63 3.93,-2.87 2.06,-1.75 4.53,-4.78 -16.82,0.69 -27.05,6.69 -41.08,13.14 -21.23,9.77 -20.01,5.81 -41.82,8.27zm117.94 -21.59c7.89,4.48 13.62,3.96 22.04,10.63 19.48,15.44 33.12,26.31 58.42,15.15 11.71,-5.17 8.44,-5.22 10.06,-7.29 -41.24,2.26 -52.97,-21.09 -90.52,-18.49zm-176.93 -106.07c3.5,-27.85 10.94,-45.01 12.86,-73.74 -10.98,19.95 -19.26,30.02 -14.55,63.54 -5.97,-5.15 -1.16,6.13 -5.61,-7.88 -2.97,-9.35 2.24,-3.37 -12.14,-42.19 -3.65,-9.86 -1.94,-8.34 -6.87,-15.29 -2.61,26.31 4.68,45.1 16.54,63.38 3.37,5.19 7.33,7.87 9.77,12.18zm330.39 -75.35c-4.97,-5.11 -5.08,-17.6 -12.01,-27.35 -4.67,-6.56 -3.93,-5.23 -8.92,-10.26 -2.82,-2.84 -2.19,-3.03 -4.59,-5.91 -3.8,-4.55 -2.21,-2.71 -6.43,-5.34 1.56,6.87 3.13,12.72 6.05,17.86l8.99 15.05c11.42,16.61 10.33,18.5 16.85,28.59 9.68,-29.12 16.79,-57.19 0.89,-82.32l-0.82 69.68zm-4.84 60.61c3.43,-25.26 -0.39,-37.47 -11.12,-55.88 -1.86,-3.19 0.09,-0.09 -1.63,-2.8l-1.89 -2.73c-0.21,-0.31 -0.69,-0.9 -1.02,-1.37 1.77,29.4 12,45.96 14.02,72.52 18.41,-23.53 28.57,-41.17 24.7,-80.06 -2.51,5.6 -9.15,26.37 -11.48,33.75 -1.93,6.11 -3.5,11.5 -4.56,18.33 -3.49,22.57 -2.32,14.41 -7.03,18.25zm-332.53 -43.42c9.81,-19.62 28.63,-46.79 29.69,-62.13 -3.64,4.89 -4.22,5.11 -8.75,9.42 -5.85,5.57 -13.33,16.03 -16.14,25.19 -1.82,5.95 -1.36,11.69 -5.41,14.68 -1.56,-10.54 0.33,-21.92 -0.36,-32.87 -0.78,-12.36 -2.11,-22.77 -2.09,-35.36 -15.94,21.62 -6.38,61.56 3.07,81.06zm228.97 163.95c10.86,0.83 61.28,17.84 79.07,-15.74 -19.13,7.61 -48.77,10.45 -70.33,13.24 14.26,-17.67 17,6.43 35.8,-45.48 -11.35,7.46 -24.89,37.86 -45.45,42.14l-3.76 4.91 4.67 0.94zm-162.35 -43.54c2.72,10.88 8.79,22.11 14.02,28.3 7.8,9.24 15.26,6.59 21.88,14.58 -22.09,-1.94 -48.7,-4.77 -69.48,-10.72 2.67,5.06 -0.9,1.39 4.2,6.73l12.53 7.87c19.7,9.88 47.22,4.64 65.41,-4.35 -37.8,-21.49 -34.71,-35.58 -48.57,-42.42zm239.14 -12.78c12.91,-6.94 24.35,-18.09 33.76,-28.8 8.16,-9.28 18.64,-23.64 17.78,-46.01 -4.09,7.77 -5.01,11.04 -9.78,17.48 -4.19,5.65 -7.25,9.64 -11.06,14.79 -2.06,2.78 -4.42,5.19 -6.53,8.33 -2.45,3.64 -2.4,4.98 -4.74,8.58 -4.74,7.33 -5.55,11.08 -11.55,13.69 4.3,-22.12 12.07,-12.2 2.7,-65.85 -6.89,16.73 -3.63,54.12 -10.57,77.79zm-268 -31.4c10.98,74.75 15.21,42.89 23.11,66.76 -3.04,-0.56 -23.36,-15.71 -29.8,-19.76l-31.76 -21.41c10.42,29.09 36.69,42.28 69.85,47.23 -2.41,-6.1 -5.43,-9.54 -8.86,-17.52 -7.98,-18.55 -10.79,-41.31 -22.55,-55.3zm-57.15 -38.15c-1.77,19.51 11.46,40.37 18.47,46.67 9.05,8.14 22.94,21.08 34.02,26.62 -4.74,-25.48 -5.89,-52.01 -10.71,-77.42 -3.15,8.08 -4.91,23.73 -4.68,34.8 0.39,19.69 5.06,17.72 7.43,31.19 -8.99,-5.01 -16.59,-23.5 -22.83,-31.48 -10.5,-13.45 -11.98,-8.47 -21.7,-30.39zm298.43 102.54c11.05,-28.29 14.35,-1.75 21.5,-67.11 -5.33,5.82 -6.02,7.62 -9.48,17.47 -2.2,6.29 -3.98,12.89 -5.81,19.16 -4.92,16.79 -8.95,24.24 -14.51,36.02 14.86,-2.47 31.23,-6.72 43.29,-15.51 10.08,-7.34 24.47,-22.11 26.5,-36.1 -4.53,8.91 -19.21,15.89 -29.28,22.7l-32.2 23.37zm-181.92 -218.06c0.35,0.37 0.86,0.84 1.05,1.1 0.19,0.25 0.75,0.87 0.97,1.19 7.41,10.82 42.51,84.58 43.88,89.28l-91 -0.74 45.09 -90.83zm91.61 95.67c25.88,33.1 75.71,34.91 102.59,-0.61 -3.09,-9.1 -49.18,-102.8 -52.61,-104.53l-139.72 0.25c-12.74,17.61 -34.44,67.8 -46.77,92.01 -3.75,7.37 -3.6,4.83 -5.52,12.27 31.67,39.48 82.54,30.9 102.12,0.66 -4.28,-16.38 -38.95,-76.54 -48.55,-101.59l65.37 0.63c-2.1,39.12 -5.18,81.34 -8.58,120.07 -1.4,16.01 -5.45,21.6 -12.51,21.76l-48.98 1.05c-6.85,0.13 -9.89,4.16 -9.68,13.67l168.37 0.34c-4.72,-11.41 -3.12,-14.59 -14.42,-14.64l-48.19 0.04c-6.62,0 -9.66,-12.01 -10.88,-24.93 -3.64,-38.61 -5.85,-79 -8.5,-117.93l65.21 -0.24c-7.2,20.31 -11.4,24.19 -20.05,41.62l-28.68 60.1z"/>
 </g>
</svg>
