<?xml version="1.0" encoding="UTF-8"?>
<!DOCTYPE svg PUBLIC "-//W3C//DTD SVG 1.1//EN" "http://www.w3.org/Graphics/SVG/1.1/DTD/svg11.dtd">
<!-- Creator: CorelDRAW 2021 (64-Bit) -->
<svg xmlns="http://www.w3.org/2000/svg" xml:space="preserve" width="19.9488mm" height="19.9346mm" version="1.1" style="shape-rendering:geometricPrecision; text-rendering:geometricPrecision; image-rendering:optimizeQuality; fill-rule:evenodd; clip-rule:evenodd"
viewBox="0 0 176.8 176.68"
 xmlns:xlink="http://www.w3.org/1999/xlink"
 xmlns:xodm="http://www.corel.com/coreldraw/odm/2003">
 <defs>
  <style type="text/css">
   <![CDATA[
    .fil0 {fill:black}
   ]]>
  </style>
 </defs>
 <g id="Capa_x0020_1">
  <metadata id="CorelCorpID_0Corel-Layer"/>
  <path class="fil0" d="M92.38 171.18c2.31,0.31 3.48,0.5 4.35,2.02 -1.66,0.02 -2.43,-0.73 -3.68,-0.85 -1.48,-0.14 -1.83,1.19 -2.6,1.82 -0.87,0 -2.26,0.09 -2.78,-0.46 -1.04,-1.08 0.73,-1.04 1.2,-1.39 -0.21,-0.67 -0.69,-1.16 -1.54,-1.25 -0.67,0.99 0.4,1.12 -1.21,1.2 -0.85,0.05 -1.58,0.11 -2.43,0.01 0.24,-0.92 4.2,-4.51 4.57,-5.29 0.23,-0.97 -0.1,-2.59 -0.23,-3.71 -0.29,-2.42 -0.31,-1.74 -1.84,-1.97 -0.47,-3.87 0.13,-2.54 0.51,-4.58 0.28,-1.54 0.77,-2.84 1.64,-3.51 1.08,0.12 2.44,1.59 2.84,2.37 0.43,0.83 0.86,3.55 0.84,4.56 -1.17,0.79 -1.44,-0.45 -1.55,1.91 -0.19,4.05 0.68,4.16 1.18,6.11 0.38,1.49 0.27,2.35 0.71,3.01zm-13.22 -100.41c-1.64,0.11 -1.42,-1.88 -1.42,-3.3 -0,-0.85 -0.12,-3.5 0.81,-3.74 2.09,-0.55 1.41,6.34 0.62,7.04zm-3.86 -8.22c0.01,1.68 0.16,3.41 0.24,5.1 0.07,1.45 -0.14,3.78 0.64,4.72 1.05,0.7 3.95,0.57 4.98,-0.13l-0.14 -10.02c-1.56,-0.53 -4.55,-0.29 -5.71,0.33zm4.59 99.66l0.97 0.38c-1.91,0.6 -12.72,-2.36 -14.99,-2.94l0.68 -0.26c0.23,-0.05 0.51,-0.09 0.76,-0.13 2.1,-0.39 1.92,-0.2 3.73,-1.64 0.47,-0.37 1.66,-1.46 2.07,-1.6 1.23,-0.4 1.85,0.83 2.67,-0.26 0.58,-0.78 0.23,-2.09 0.74,-2.73 0.59,-0.73 2.28,-0.42 3.06,-0.1 1.87,0.76 2.43,2.28 2.54,4.8 -3.96,1.01 -1.43,3.43 -2.25,4.49zm-14.59 -4.72c-0.65,-1.39 1.07,-2.05 2.44,-2.06 -0.36,0.65 -0.51,0.82 -0.98,1.36 -0.37,0.43 -0.63,0.89 -1.46,0.7zm43.82 -3.02c0.77,0.02 1.43,-0.05 1.65,0.63 -0.86,0.61 -1.36,-0.02 -1.65,-0.63zm-47.15 -0.92c0.09,-0.11 0.03,-0.33 0.84,-0.35 0.59,-0.01 0.7,0.05 1.08,0.35 -0.5,0.47 -1.39,0.39 -1.91,0zm3.17 -3.76c0.71,-0.01 0.36,-0.17 0.52,0.58 -0.65,-0.34 -0.27,0.09 -0.52,-0.58zm-1.04 -0.76c0.45,-0.26 0.41,-0.17 0.59,0.32 -0.83,0.02 -0.37,0.25 -0.59,-0.32zm28.18 1.13c-0.67,-1.25 0.4,-1.98 0.81,-2.66 1.02,0.06 2.49,0.15 2.94,0.83 -0.27,0.71 -0.9,0.64 -1.72,1.07 -0.85,0.45 -0.93,1.17 -2.03,0.76zm-20.4 -1.31c0.26,-0.75 1.2,-1.1 2,-1.45 0.67,-0.29 2.12,-1.14 2.29,-0.1 0.26,1.69 -3.31,2.85 -4.29,1.55zm-2.95 -1.91c-0.15,0.07 0.04,0.15 -0.33,0.1 -0.06,-0.01 -0.3,-0.12 -0.36,-0.16 0.82,-0.5 0.6,-0.02 0.69,0.06zm-12.23 -1.93c0.86,0.04 1.18,0.44 1.41,1.21 -1.14,-0.13 -1.56,0.03 -1.41,-1.21zm10.49 0.54c0.09,-0.08 -0.22,-0.37 0.44,-0.17 0.24,0.07 0.29,0.25 0.37,0.35 -0.64,0.24 -0.58,0.35 -0.81,-0.18zm10.55 -0.17c1.43,-1.46 3,-0.38 4.54,-0.2 0.71,0.09 2.11,0.04 2.68,0.31 0.53,0.25 1.07,1.19 1.13,1.95 -0.98,0.09 -0.68,0.05 -1.38,-0.32 -0.94,-0.5 -3.84,-0.04 -5.25,-0.02l-1.73 -1.73zm26.17 -0.13c2.09,0.39 2.68,1.75 9.86,2.3 0.27,0.02 0.67,0.1 0.8,0.12l0.5 0.08c-0.55,0.73 -0.28,-0.13 -1.46,1.8l0.52 0.85c-1.7,1.95 -6.31,0.84 -8.67,-0.04 -1.26,-0.47 -1,-0.42 -1,-2.38 0.04,-0.03 0.11,-0.12 0.12,-0.08 0.02,0.04 0.09,-0.06 0.12,-0.08 0.01,-0.01 0.25,-0.13 0.29,-0.16l-1.09 -2.42zm-12.09 -3.14c0.62,0.28 0.7,0.88 0.74,2.05 0.03,0.97 -0.16,1.9 -0.94,2.03 -1.36,0.22 -0.14,-3.69 0.2,-4.07zm5.64 3.09c0.19,-0.49 0.42,-0.76 0.98,-0.85 -0.18,0.57 -0.31,0.8 -0.98,0.85zm-36.74 -2.1c0.88,0.08 1.21,0.51 1.28,1.45 -0.88,0.09 -1.31,-0.41 -1.28,-1.45zm41.9 -0.24c-0.35,0.37 0.13,0.41 -0.9,-0.04 0.2,-0.16 -0.38,-0.34 0.54,-0.22 0.44,0.06 0.07,-0.05 0.36,0.25zm-3.94 19.48l0.81 -0.76c-0.66,-1.46 -0.61,-1.07 -0.02,-1.59 -0.94,-2.44 -2.6,-1.06 -3.04,-3.89 -0.39,-2.52 4.01,-2.62 4.42,-2.53 0.66,0.13 4.53,1.89 5.34,3.38 0.72,1.32 0.9,0.68 3.21,2.24l3.25 -0.65 0.14 -1.07c1.17,-0.34 0.38,-0.13 1.12,-0.91 0.94,-0.55 1.25,0.45 3.26,0.43l-0.19 -1.9c3.8,-0.34 4.45,-0.38 7.11,-2.12 2.07,-1.36 3.58,-2.57 5.48,-3.91 0.87,-0.62 3.73,-2.73 4.46,-3.54l2.98 -2.93c1.28,-1.01 1.77,-1.12 3.72,-1.06 -0.63,1.26 -7.49,6.6 -8.45,7.29 -6.28,4.48 -13.16,8.25 -20.83,10.64 -3.4,1.06 -9.08,2.72 -12.78,2.9zm-11.71 -19.74c-0.44,-0.84 0.03,-1.59 0.33,-2.28 0.67,-1.59 0.07,-1.67 0.72,-2.28 0.36,0.62 0.74,4.69 -1.04,4.57zm-5.38 -1.44c0.67,0.14 0.81,0.32 0.99,0.89 -0.63,-0.12 -0.82,-0.3 -0.99,-0.89zm13.95 1.2c-0.17,-0.96 0.34,-1.55 1,-1.84 -0.02,0.9 -0.33,1.65 -1,1.84zm-15.37 -2.55c0.55,0.18 0.16,-0.08 0.43,0.44 -0.9,-0.39 -0.14,-0.09 -0.43,-0.44zm-42.34 -0.61c0.83,-0.14 1.17,0.6 0.94,1.27 -0.63,-0.1 -1.1,-0.53 -0.94,-1.27zm33.15 4.39c-0.35,-0.46 -0.09,-0.29 -0.36,-0.74l-2.49 -0.38c0.4,-0.47 1.78,-0.99 2.38,-1.18l-0.19 -1.06c1.78,-0.22 1.8,-0.72 2.76,-1.6 1.72,-1.56 0.95,-1.77 2.19,-2.14 0.08,2.08 1.18,2.02 0.21,3.49 -0.39,0.6 -0.45,0.33 -1.15,0.59 -1.95,0.71 -0.47,3.27 -3.35,3.01zm68.93 -5.59c0.04,-0.91 0.96,-1.99 1.65,-2.15 0.36,1.04 -0.84,2.16 -1.65,2.15zm-108.13 -1.27c0.67,1.17 1.68,0.35 2.1,1.72 0.02,0.05 0.05,0.24 0.06,0.29 0.15,0.53 5.39,4.91 6.42,5.77 0.87,0.72 2.11,0.54 5,2.31 1.03,0.63 1.96,1.14 2.96,1.74 1.05,0.63 1.94,1.25 3.1,1.76 1.2,0.52 2.25,0.93 3.56,1.31 1.32,0.38 2.96,0.22 3.79,1.06 -1.24,1.48 -2.67,1.5 0.77,3.42 1.17,0.65 0.88,0.49 1.68,1.28 0.5,0.49 0.33,-0.21 0.32,0.69 -4.42,-0.94 -13.65,-6.81 -17.33,-9.41 -1.42,-1 -2.41,-1.9 -3.69,-2.91 -2.12,-1.68 -5.13,-4.47 -6.88,-6.51l-2.39 -2.65c-0.34,-0.45 -0.3,-0.53 -0.81,-0.91 0.14,-0.31 0.39,-1.69 1.06,-1.1 0.43,0.38 0.17,1.66 0.28,2.14zm5.31 -0.76c-0.07,-1.13 0.91,-2.58 1.55,-2.94 0.35,0.9 0.45,0.85 -0.05,1.89 -0.33,0.67 -0.52,1.04 -1.49,1.05zm92.65 5.06c0.27,-2.7 2.14,-2.08 3.47,-3.65 0.74,-0.87 0.43,-1.31 1.49,-2.16 1.22,-0.98 0.77,-0.62 1.55,-2.1 0,0 0.15,0.18 0.17,0.21l0.13 0.19c0.02,0.02 0.05,0.09 0.06,0.11 0.01,0.02 0.04,0.07 0.06,0.11 -1.6,2.79 -3.72,6.26 -6.94,7.29zm8.59 -6.13c0.48,-0.8 0.42,-0.58 0.81,-0.7 -0.18,1.19 -1.73,3.5 -2.27,4.06 -0.54,0.56 -1,1.01 -1.56,1.57 -1.8,1.77 -0.91,0.78 -1.36,1.94 -0.3,0.11 -1.38,0.4 -1.75,1.16 -0.23,0.46 -0.02,-0.24 0.16,0.62 -0.81,0.56 -0.3,0.49 -2.02,1.63 0.3,-0.59 0.1,-0.53 -0.31,-0.93 -0.43,-0.43 -0.47,-0.51 -0.75,-0.94l2.75 -2.24c3.2,-2.85 4.3,-4.74 6.48,-8.84 0.59,1.23 0.07,1.59 -0.16,2.68zm-12.4 -2.4c0.76,0.09 0.77,0.26 1.28,0.64 0.44,0.33 0.86,0.43 1.24,0.74l-0.39 0.55c-0.63,-0.33 -1.74,-1.4 -2.13,-1.93zm-86.39 -1.19c0.21,-0.62 0.54,-1.2 1.17,-1.39 0.53,0.67 0.29,1.59 0.23,2.5 -0.57,-0.34 -0.99,-0.61 -1.4,-1.11zm87.43 -0.16c0.27,0.07 0.36,0.01 0.47,0.25 0.31,0.65 -0.11,0.6 -0.13,0.62l-0.34 -0.87zm-91.05 -1.14c-0.58,-0.73 -0.28,-1.53 0.27,-2.14 0.61,0.68 0.67,1.94 -0.27,2.14zm104.63 -4.99c0.2,0.33 -0.09,-0.31 0.18,0.34 0.09,0.23 0.05,0.2 0.12,0.41 0.21,0.61 2.88,3.88 1.37,5.12 -0.48,-0.24 -0.31,-0.41 -1.15,-0.82 -0.53,-0.26 -0.99,-0.43 -1.53,-0.74l1.01 -4.31zm-56.92 3.15c0.81,-0.17 1.19,0.02 2.01,0.19l-0.76 2.62c-0.73,-0.39 -1.51,-1.66 -1.25,-2.81zm54.65 0.57c-0.01,-0.01 -0.49,0.23 -0.1,-0.62 0.15,-0.33 0.24,-0.28 0.58,-0.42 0.2,0.49 0.12,1.21 -0.47,1.04zm-104.8 -3.77c0.11,1.14 0.27,1.92 -0.19,2.6 -0.45,0.03 -0.52,-0.23 -0.91,-0.55 0.12,-0.47 0.68,-1.75 1.1,-2.05zm-9.26 1.68c1.28,0.82 1.58,1.7 3.25,2.93l0.05 1.16c0.68,0.33 1.01,0.47 1.09,1.27 -0.81,0.53 -0.81,0.3 -2.43,-2.17l-1.96 -3.2zm77.46 -1.66l0.39 0.63c0.11,0.28 0.14,0.55 0.18,0.85 -0.57,-0.5 -0.64,-0.47 -0.58,-1.48zm-75.08 -0.29c0.89,0.18 1.43,0.76 1.92,1.42 0.37,0.5 1.27,1.47 0.89,2.27 -0.83,-0.32 -2.41,-2.6 -2.81,-3.68zm36.82 -0.34c1.85,-1.61 0.68,-2.51 4.38,-1.37 1.12,0.35 1.08,0.08 1.96,-0.16l1.7 1.87 1.41 0.01 1.32 1.4c-0.23,0.61 -0.6,0.76 -0.38,1.48 1.01,-0.06 0.6,-0.55 1.87,-0.3 1.09,0.21 0.56,0.16 0.86,0.52l0.6 0.47c0.03,0.02 0.09,0.05 0.12,0.09l0.01 4.7c-0.04,1.96 -0.86,1.16 -1.56,1.79 -0.69,0.62 0.63,-0.09 -1.65,1.47 -0.67,0.46 -0.3,0.17 -0.63,0.95 -0.25,0.59 -1.05,1.1 -1.56,1.57 -1.01,0.94 -0.92,0.49 -2.44,0.86 -0.06,0.68 0.04,0.54 0.24,1.12l-2.9 1.39c-0.61,-0.2 -1.19,-0.54 -1.7,-0.98 0.3,-2.05 1.72,-4.47 1.38,-6.78 -0.46,-0.33 -1.07,-0.59 -1.62,-0.83 -0.93,-0.4 -0.91,-0.22 -1.33,-1.11 -0.51,-1.08 -1.23,-2.17 -1.54,-3.27 0.3,-0.53 0.39,-0.47 0.46,-1.22 0.2,-2.26 1.74,-0.57 0.98,-3.65zm79.06 -0.52c-0.51,-1.57 0.89,-1.69 1.28,-0.62 0.48,1.33 -0.89,1.82 -1.28,0.62zm-36.16 -1.84l0.94 1.4c0.02,0.04 0.1,0.16 0.11,0.2 0.09,0.34 0.09,-0.02 -0.06,0.28 -0.57,0.12 -1.04,-0.96 -0.99,-1.88zm44.64 -1.11c0.07,1.31 -1.46,3.24 -2.1,2.61 -0.42,-0.41 0.36,-1.23 0.61,-1.48 0.4,-0.4 0.76,-0.97 1.49,-1.13zm-67.48 -0.92l0.07 0.34c-0,0.02 -0.05,0.07 -0.07,0.11l0 -0.46zm-20.91 -1.88l0.86 0.3c-0.09,0.1 -0.03,0.27 -0.37,0.15 -0.4,-0.15 -0.36,-0.29 -0.48,-0.45zm26.71 -2.18c0.36,1.77 0.14,0.94 -0.11,1.27 -0.25,-1.22 -0.22,-0.85 0.11,-1.27zm7.94 -1.48c0.23,0.33 0.17,0.33 0.52,0.51l1.05 -0.37c0.01,1.42 -0.19,1.41 1.21,1.36 0.36,0.47 0.61,0.84 0.96,1.22 0.7,0.75 0.73,0.46 0.98,0.5l0.31 0.11c-0.25,0.28 -0.66,0.84 -0.88,1.19 -1.38,-0.76 -0.42,-0.21 -1.18,-0.46 -1.21,-0.41 -1.33,-2.72 -2.91,-1.31 -0.24,-0.49 -0.33,-0.91 -0.45,-1.48 -0.19,-0.91 -0.12,-0.74 0.39,-1.28zm33.59 1.13c-0.4,-0.2 -0.04,0.14 -0.46,-0.3 -0.18,-0.19 -0.19,-0.31 -0.27,-0.46 0.78,0.13 0.61,-0.03 0.73,0.77zm17.96 0.51c-0.7,-0.16 -0.78,-0.34 -1,-1.2 -0.16,-0.63 -0.16,-1.25 -0.07,-1.93 0.51,0.77 1.31,2.11 1.07,3.13zm-15.83 -0.56c-0.01,-0.85 -0.08,-0.87 0.2,-1.46 0.13,0.16 0.56,-0.4 0.16,0.82 -0.07,0.21 -0.3,0.53 -0.37,0.64zm-29.14 -1.05c0.53,-0.01 -0.01,0.02 0.35,-0.08 0.25,0.35 0.49,0.76 0.6,1.3 -0.77,-0.1 -0.88,-0.59 -1.27,-1.06l-1.42 0.09c0.17,-0.89 0.18,-0.51 0.85,-1.08l0.2 0.35c0.03,0.06 -0.01,0.42 0.42,0.47 0.34,0.05 -0.1,0.02 0.27,0.01zm47.67 2.53l0.4 -4.09c0.41,-0.44 0.31,-0.24 0.73,-0.6 0.29,-0.25 0.43,-0.42 0.73,-0.65 2.35,-1.82 1.91,-3.75 3.33,-5.02 0.26,3.13 0.17,8.3 0.06,11.52 -0.05,1.5 -2.96,6.42 -3.73,7.77 -1.76,3.08 -4.78,7.5 -7.09,10.13 -0.27,0.3 -0.35,0.5 -0.6,0.79l-2.12 2.29c0.58,-1.89 0.49,-4.03 1.68,-5.51 2.67,0.4 1.03,0.25 3.14,-0.88 -0.09,-1.22 0.13,-1.54 0.6,-2.51 1.46,-2.96 -0.95,-1.08 2.52,-4.09 0.42,-0.37 1.09,-1.24 1.48,-1.83 1.24,-1.92 3.47,-6.92 2.94,-9.91 -0.37,-0.36 -0.36,-0.33 -1,-0.48 -0.46,1.14 -1.79,2.78 -3.07,3.07zm-53.38 -4.17c0.28,0.43 0.24,0.37 0,0.77 -0.54,-0.22 -0.65,-0.08 0,-0.77zm34.87 0.58c-0.19,0.3 -0.21,0.29 -0.43,0.56 -0.13,0.16 -0.13,0.19 -0.24,0.29 -0.33,0.34 0.09,-0.03 -0.36,0.28 -0.31,-0.5 -0.17,-0.31 -0.63,-0.55 -0.06,-0.57 -0.2,-1.15 -0.09,-1.69 0.19,-0.93 0.17,-0.66 0.12,-1.65 0.72,0.65 1.21,1.68 1.63,2.75zm-37.18 -1.35c0.28,-0.39 0.56,-0.63 1.09,-0.77 1.24,-0.33 1.16,0.24 1.19,0.3l-0.82 0.01 -0.17 1.56c-0.68,-0.34 -0.62,-0.49 -1.28,-1.11zm-70.07 -2.14c1.2,-0.63 1.59,1.4 1.15,2.49 -0.67,-0.12 -0.78,-0.28 -1.08,-0.91 -0.26,-0.56 -0.21,-1.07 -0.08,-1.58zm-4.83 1.96c0.32,3.16 -0.36,1.31 2.87,5.13 0.84,0.99 1.83,2.22 1.61,4.07 -1.36,0.14 -0.57,-0.76 -2.2,-0.29 -0.04,1.22 0.09,3.59 0.35,4.64 -0.83,-0.83 -2.67,-4.86 -3.31,-6.26 -0.51,-1.13 -0.22,-7.61 -0.22,-9.37 0.08,-0.42 -0.09,-0.39 0.54,0.05l0.35 -1.09c1.43,0.88 0.76,2.05 0,3.13zm61.82 -1.47c-0.78,-2.4 -0.54,-0.3 -0.21,-2.48 0.82,1.02 1.75,2.74 2.33,4.19 1.39,3.42 1.2,3.01 0.69,5.13 -3.47,-1.11 -2,-4.35 -2.81,-6.83zm19.84 -2.18c0.96,-0.55 1.12,0.04 1.15,0.07 -0.27,0.17 -0.49,0.52 -1.15,-0.07zm-34.63 -1.66l-0.01 0.86c-0.91,0.16 -0.93,0.06 -1.12,-0.69l1.14 -0.18zm1.18 0.51c-0.84,-0.07 -0.3,0.18 -0.48,-0.52 0.52,0.3 0.22,-0.44 0.48,0.52zm10.85 -0.94c0.66,0.26 1.24,1.24 1.38,1.98 -0.58,-0.39 -1.25,-1.33 -1.38,-1.98zm36.07 0.18c-0.57,-0.18 -0.35,-0.03 -0.57,-0.57 0.63,0.23 0.24,-0.35 0.57,0.57zm24.4 11.78c-1.18,-7.84 -4.92,-11.24 -5.43,-12.57 2.79,-0.02 9.98,-0.24 12.09,0.67 0.12,1.09 -0.21,2.23 -0.55,3.17 -0.42,1.15 -0.88,1.2 -1.27,2.38 -0.79,2.33 0.39,4.04 -2.49,4.83 -0.16,0.54 -0.59,0.92 -1.24,1.86 -0.83,-0.34 -0.04,-0.58 -1.1,-0.34zm-54 -4.27c-0.95,-2.53 -1.73,-4.3 -3.21,-6.51 -0.44,-0.66 -0.86,-1.17 -1.21,-1.79l12.75 0.01c-0.46,0.93 -1.43,2.03 -2.1,3.16 -0.59,0.99 -1.2,2.72 -1.84,3.54 -0.61,-0.57 -1.62,-2.16 -2.26,-2.4 -0.94,-0.02 -1.62,3 -1.84,3.53 -0.21,0.5 -0.15,0.3 -0.28,0.47zm-50.38 9.02l-0.54 0.5c-0.53,-0.45 -0.81,-1.16 -1.07,-1.88 -1.14,-3.2 -1.11,-2.22 -2.78,-3.47 -0.62,-0.46 -0.87,-1.02 -2.06,-0.79 -0.46,0.84 -0.1,1.77 -0.69,3.01 -0.97,-0.27 -1.65,-1.89 -1.34,-3.22 0.21,-0.9 2.2,-5.66 2.02,-7.53 -0.04,-0.39 -0.4,-1.4 -0.52,-1.92 -0.14,-0.63 -0.23,-1.32 -0.24,-2l12.89 -0.03 -2.24 3.41c-2.62,4.29 -3.33,8.86 -3.45,13.92zm93.36 -17.68c-0.74,-0.25 -0.67,-0.39 -1.05,-1.06 0.6,0.21 0.82,0.41 1.05,1.06zm-49.56 -0.24c-0.89,-0.32 -1.24,-0.96 -1.61,-1.81 0.66,0.43 1.5,1 1.61,1.81zm-29.38 12.39c0.09,-0.12 0.35,0.15 0.27,-1.25 -0.03,-0.55 -0.15,-0.85 -0.17,-1.28 0.02,0.55 0.61,1.2 0.74,1.84 0.44,2.22 -0.28,1.72 2.4,3.33 1.02,0.61 0.95,0.61 2.32,0.64 0.69,0.6 0.32,0.63 1.23,1.03 2.84,1.25 2.83,2.27 4.16,2.87l1.01 -0.45c0.43,0.5 0.56,1.14 0.57,1.79 -0.35,0.3 -1.05,1.02 -1.2,1.41 -0.2,0.56 0.03,0.56 -0.12,1.09 -0.51,1.76 -1.17,-0.62 1.15,4.39 0.94,2.04 1.64,1.07 2.98,2.29 -0.14,1.51 -0.78,4.68 -1.44,5.79 -0.59,-0.16 -0.89,-0.47 -1.56,-0.42 -0.81,0.06 -0.71,0.39 -1.22,0.78 -1.54,-0.07 -2.48,-0.8 -3.88,-1.03 -0.27,0.9 -0.38,1.78 -0.62,2.71 -1.25,0.17 -2.19,-0.69 -3.9,-0.7l0.52 2.97c-0.68,-0.09 -1.17,-0.35 -1.78,-0.63 -0.3,-0.13 -0.54,-0.24 -0.84,-0.38 -0.12,-0.05 -0.4,-0.18 -0.47,-0.23 -0.56,-0.35 -0.18,-0.1 -0.41,-0.37 0.25,-0.76 0.91,-1.37 1.56,-1.66 0.36,-0.16 3.77,-0.13 3.08,-2.9 -0.88,-3.51 -2.67,-1.14 -4.21,-0.49 -0.83,-0.79 -1.92,-1.55 -2.86,-2.19 -1.43,-0.98 -2.1,-1.14 -4.17,-1.14 0.14,-2.07 0.4,-3.28 0.28,-5.54 -0.1,-2.02 -0.06,-3.8 -1.6,-4.39 -1.49,1.22 -1.22,1.93 -2.92,2.52l-0.57 0.31c-1.13,-2.61 -2.03,-2.22 -1.64,-7.96 0.55,-8.13 4.62,-14.15 10.53,-18.62 0.58,0.6 0.68,0.37 2.5,0.05 0.29,1.36 -0.12,2.67 -0.3,4.26 -0.22,2.01 -0.69,-0.31 -1.61,3.57 -0.32,1.33 -0.15,0.95 0.21,2.05 0.24,0.73 0.17,1.59 0.27,2.36l1.03 2.76c0.26,0.65 0.18,0.57 0.66,0.76zm76.81 -12.73c-0.33,0.62 -0.86,1.02 -0.56,1.81 0.22,0.57 0.68,1.27 0.95,1.62l1.1 -0.3c0.36,0.9 1.6,1.69 1.8,2.47 0.21,0.85 0.11,1.17 -0.04,1.93 -0.13,0.66 0.07,1.23 0.05,1.95l-1.51 0.07c-0.13,0.21 -0.04,-0.21 -0.17,0.37 -0.01,0.06 -0.06,0.43 -0.06,0.5 -0.05,0.74 0.03,1.47 0.94,1.46 -0.32,1.55 0.94,1.03 1.36,2.24 0.3,0.84 0.13,2.42 -0.33,3.09 -0.09,0.14 -0.29,0.32 -0.4,0.46 -0.2,0.25 -0.24,0.33 -0.45,0.59 -0.81,1 -0.18,0.38 -0.99,0.63 -0.66,0.21 -1.3,1.31 -1.22,2.43 0.71,0.43 1.23,0.33 1.49,1.14 0.29,0.91 -0.25,1.01 -0.62,1.75 -0.05,-0.02 -0.12,-0.11 -0.15,-0.07 -0.02,0.04 -0.11,-0.05 -0.14,-0.07l-1.08 -0.52c-0.29,-0.13 -0.38,-0.21 -0.64,-0.24 -1.14,-0.13 -0.51,0.34 -1.47,-1.23l-0.92 0.36c-0.25,-0.88 -0.2,-0.89 -0.75,-1.36 -0.37,-0.32 -0.72,-0.66 -1.18,-0.91 -2.45,0.75 -1.34,1.31 -2.96,2.6 -3.11,2.47 -0.29,1.64 -2.25,3.87l-0.18 -0.19c-0.11,-0.16 -0.1,-0.14 -0.2,-0.34 -1.49,-3.01 -1.08,-2.51 -1.47,-5.11 -0.61,0.08 -0.51,0.11 -0.9,0.5 -0.03,0.03 -0.07,0.08 -0.11,0.11 -2.24,-3.49 -3.4,-1.06 -5.21,-3.09l-1.14 -0.06c-0.52,-0.71 -0.78,-1.34 -1.27,-1.87l-1.04 0.22c-0.05,1.95 0.35,1.89 1.24,3.37 1.54,-0.35 1.4,-0.38 2.43,0.86 -0.57,1.57 -3.87,2.19 -5.92,2.49 -0.4,-1.4 -0.18,-1.34 -0.39,-2.23 -0.17,-0.73 -0.45,-1.17 -0.58,-2.01 -0.18,-1.16 0.01,-3.54 -1.65,-3.35 -0.48,1.2 0.07,2.68 0.27,3.88 0.08,0.49 -0.02,1.06 0.07,1.49 0.14,0.65 0.77,0.97 1.03,1.91 0.35,1.28 0.27,1.19 0.9,2.01l2.53 0.03c-0.34,2.44 -3.1,2.7 -4.55,4.15l-1.2 -0.3c-0.26,0.18 -0.47,0.43 -0.77,0.6 -0.86,0.51 -0.9,0.07 -0.98,-0.01 -0.98,-1.15 1.16,-3.61 -2.05,-3.33 -0.18,-1.41 2.38,-4.08 1.08,-7.33 -0.41,-1.03 -0.68,-1.11 -1.96,-1.18l-0.01 -6.97c-3.01,-0.02 -1.52,-0.06 -2.44,-0.62 -0.18,-0.11 -0.3,0.12 -0.61,0.04 -0.45,-1.43 1.76,-2.48 2.31,-2.81l0.4 0.61c1.31,0.25 1.35,0.44 1.96,1.24 -0.24,0.45 -0.16,0.31 -0.6,0.74 -0.09,1.34 0.48,3.53 1.55,3.78l0.48 -0.88 0.72 0.58c1.04,1.18 0.8,0.75 1.85,1.47 0.94,0.65 2.41,-1.42 2.63,-2.17 -0.63,-0.74 -0.67,-0.34 -1.46,-0.59 -0.46,-0.14 -0.91,-0.64 -0.76,-1.15 0.59,-0.32 1.55,-0.33 2.21,-0.3 0.31,0.5 0.3,0.56 0.75,0.96l1.69 -0.12c0.01,-0.8 -0.41,-1.23 -0.7,-1.93 0.43,-0.57 0.79,-0.38 0.75,-1.2 -1.03,0.04 -1.73,0.51 -2.05,-0.54 -1.16,0.15 -1.88,1.04 -2.47,1.9 -0.58,-0.24 -0.72,-0.56 -1.33,-0.4 0.35,-0.74 0.49,-2.29 0.11,-3.24 -0.85,-0.34 -0.85,0.1 -1.16,0.67l-0.11 -0.78c-0.94,-0.35 -0.95,-0.87 -1.73,-0.5 -0.04,0.02 -0.08,0.06 -0.11,0.08l-1.4 0.83 -0.28 -0.5c0.23,-0.65 0.81,-1.08 1.33,-1.53 0.25,0.46 0.11,0.44 0.68,0.74 0.51,-0.3 1.14,-0.94 1.39,-1.45 0.94,0.01 1.16,-0.19 1.97,-0.31 1.33,-0.19 1.51,1.55 3.13,1.05 0.73,-0.22 1.05,-0.49 1.37,-1.03l1.06 0.44c0.34,-0.47 0.27,-0.33 0.38,-0.85 -0.23,-0.28 -0.17,-0.13 -0.34,-0.28 -0.3,-0.27 -0.18,-0.06 -0.35,-0.41 0.4,-0.49 1.43,-0.39 1.91,-0.87 -0.35,-1.3 -1.21,-0.63 -1.76,-0.43 -1.3,0.48 -0.97,-0.08 -1.84,1.11 -0.25,0.34 -0.09,0.15 -0.34,0.38 -0.27,-0.39 -0.1,-0.62 -0.29,-1.11 -0.01,-0.03 -0.04,-0.09 -0.05,-0.13l0.43 -0.43c1.75,0.21 2.38,-0.69 4.67,-0.66l0.79 1.22c-0.96,-0.15 -0.03,-0.23 -1.04,-0.45 -0.95,1.07 -0.58,2.45 0.96,1.63 0.76,-0.41 0.47,-0.33 1.17,-0.33 0.6,-0 0.69,-0.19 1.19,-0.26 0.54,-0.08 1.09,0.02 1.72,-0.04l0.56 0.86c0.51,1.01 1.7,-0.04 2.05,-0.91l0.68 0.19c0.43,-0.73 0.48,-1.18 -0.05,-1.84 0.36,-0.55 0.81,-1.09 1.63,-1.24 0.27,0.22 0.09,-0.01 0.34,0.38 0.02,0.03 0.21,0.43 0.23,0.45 0.75,-0.03 1.53,-0.62 2.15,-0.58 0.29,0.02 0.42,0.14 0.99,0.16 0.26,-0.6 0.61,-1.3 1.15,-1.61 0.96,-0.55 0.93,-0.58 0.99,-1.99 3.23,1.68 1.48,0.58 2.28,2.72 0.32,0.86 0.5,0.81 0.87,1.35zm-67.49 -1.64c1.1,-0.7 1.21,-0.03 2,-0.23 0.14,-0.28 0.23,0.42 0.11,-0.52 -0.09,-0.7 -0.74,-1.05 0.58,-0.92 0.03,0.59 -0.29,3.59 -0.39,4.52 -0.65,-1.14 0.34,-0.96 -1.16,-1.37 -0.54,-0.15 -1.22,-0.72 -1.62,-1.06l0.48 -0.42zm97.04 -2.06c0.04,-0.02 0.1,-0.04 0.13,-0.05 0.3,-0.07 0.61,0.18 0.85,-0.72 0.13,-0.49 0.21,-1.29 0.3,-1.83l4.12 1.52c-0.37,3.48 -2.93,13.82 -4.41,16.08l-0.01 -8.35c-0.03,-2.71 -1.2,-0.81 0.08,-3.71l-2.72 0.14c0.22,-0.58 0.68,-1.05 1.09,-1.58 0.98,-1.26 0.3,-0.61 0.57,-1.5zm-139.57 -2.02c1.36,2.05 0.19,6.19 1.34,8.03 0.63,1.02 0.39,7.41 0.34,8.99 -1.52,-2.48 -4.02,-12.42 -4.39,-16.03l2.71 -0.99zm129.47 0.77c0.54,0.3 0.84,0.45 0.91,1.11 -0.88,0.08 -0.86,-0.26 -0.91,-1.11zm-15.89 15.95l0.44 0.83c0.66,-0.1 0.56,-0.15 0.93,-0.49 0.44,0.58 0.21,0.86 0.87,1.21 0.55,-0.39 0.24,-0.08 0.67,-1.43 0.58,-1.83 1.11,-3.22 -0.67,-4.5 0.12,-0.86 -0.3,-1.85 -0.68,-2.4 -0.44,0.11 -0.44,0.21 -0.72,0.48 -0.4,-0.42 -0.81,-0.74 -1.24,-1.17 -0.46,-0.47 -0.73,-0.82 -1.15,-1.23l-1.26 0.3 -0.7 -1.17c0.23,-0.51 0.3,-0.73 0.7,-1.02 0.55,0.49 1.96,1.76 2.86,1.44 -0.04,-0.56 -0.59,-1.25 -0.87,-1.73 -1,-1.71 -0.93,-0.2 -2.86,-2.88 -0.69,-0.96 -0.48,-0.82 -1.23,-1.19l-0.18 -0.96c1.28,0.37 4.13,2.42 4.97,3.12 4.47,3.75 7.85,9.37 8.7,15.73 -0.17,0.18 -0.02,0.12 -0.32,0.29 -0.27,0.15 -0.3,0.11 -0.52,0.18 0.99,4.43 1.5,1.11 0.57,7.94 -1.15,0.09 -1.44,0.54 -1.79,1.61 -0.3,-0.21 -0.28,-0.23 -0.77,-0.23l-0.11 1.38c1.2,0.19 1.09,-0.14 1.58,0.84l-0.54 1.37c-0.39,-0.38 -0.02,-0.21 -0.63,-0.33 -2.38,2.34 -1.09,1.72 -2,2.69 -0.37,0.4 -0.83,0.58 -1.22,1.04 -1.4,1.65 0.94,0.37 -3.62,3.52 -1.68,1.16 -0.47,2.8 -1.4,3.63 -0.35,-0.12 -0.27,-0.15 -0.64,-0.38 -0.75,0.53 -2.09,2.13 -3.08,2.3 -0.42,-1.34 0.71,-1.91 0.45,-3.22 -2.8,-0.98 -3.54,2.59 -5.74,2.62 0.47,-3.37 1.93,-2.77 1.69,-4.48 -2.18,-1.08 -5.03,3.24 -5.91,4.72 -0.5,0.84 -0.81,1.75 -1.31,2.55 -2.05,0.19 -10.14,-1.25 -11.42,-3.58 -0.64,-1.17 -1.39,-2.14 -1.3,-3.76 0.49,-0.31 0.66,-0.41 0.98,-0.87 -0.76,-2.81 -2.07,-3.41 0.7,-4.95 1.12,-0.62 1.42,-0.51 2.14,-1.51 0.41,-0.57 1.33,-1.65 0.99,-2.67l-2.97 -0.09c1.13,-0.9 2.49,-0.38 4.7,-1.47 3.52,-1.74 1.46,-2.7 1.03,-3.33 0.54,0.09 0.98,0.32 1.5,0.46 1.25,0.32 1.51,-0.39 2.84,1.34 0.49,0.63 0.34,0.73 1.27,0.96 0.02,0.83 1.47,4.71 2.49,5.12 0.55,-0.24 0.34,-0.27 0.81,-0.73l0.11 1.61c0.73,0.2 1.3,-0.23 1.66,-0.63 -0.21,-0.59 -0.79,-1.17 -1.23,-1.56 0.12,-2.53 -0.22,-1.45 1.95,-3.48 0.52,-0.48 0.43,-0.43 0.69,-1.03 0.26,-0.6 0.5,-0.51 1.09,-0.8 1.57,0.94 0.82,0.86 1.69,2.37 0.79,-0 0.38,-0.02 1,-0.32 0.6,1 0.26,1.33 0.43,2.56 0.66,0.85 0.97,0.52 1.13,1.68l-2.07 -0.24c0.07,0.79 1.12,1.67 1.93,2.39l2.44 1.77c0.76,-0.04 2.91,-0.19 3.41,-0.45 0.63,-0.32 1.97,-1.11 1.96,-1.85 -0.77,-0.28 -4.38,1.28 -5.37,1.55 0.27,-0.62 0.6,-0.84 0.64,-1.52l-1.07 -0.49 -0.13 -1.95c-0.59,-0.4 -1.11,-0.86 -1.76,-1.16l0.19 -1.17c1.23,0.34 1.08,0.58 1.78,1.11 0.68,-0.28 1.65,-1.72 1.69,-2.11 0.02,-0.19 -0.28,-1.3 -0.38,-1.46 -0.28,-0.48 -0.77,-0.45 -1.23,-0.82 0.37,-0.23 0.93,-0.07 1.26,-0.36 0.65,-0.57 -0.46,-0.29 1.19,-2.3 0.41,-0.49 0.45,-0.5 0.69,-1.03 0.66,0.22 0.55,0.34 1.22,0.16 0.14,-0.69 0.19,-1.16 0.06,-1.84l-0.88 0c0.17,-2.24 -0.99,-2.48 -1.54,-3.13l0.37 -1.35zm-109.82 -15.68c0.65,0.27 1.02,1 1.11,1.91 -0.91,-0.17 -1.33,-1.11 -1.11,-1.91zm84.19 -0.22c0.81,-0.37 2.35,-0.18 3.35,-0.31 1.82,-0.25 2.42,-0.67 2.97,-0.64l0.01 1.38c-3.37,0.24 -4.05,0.67 -5.42,0.84l-0.9 -1.02c-0.12,-0.24 -0.04,-0.1 -0.01,-0.25zm-47.76 0.06c0.95,0.31 0.5,0.76 1.2,1.49 0.9,-0.1 1.79,-0.97 2.83,-1.14 0.51,-0.08 1.71,0.51 2.25,0.79 0.7,0.37 0.35,0.08 0.51,0.56 -0.86,1.01 -0.95,-0.25 -1.25,-0.73l-1.38 -0.34c-0.45,0.48 -0.65,0.81 -0.69,1.49 -0.94,-0.02 -1.98,0.72 -2.59,1.15 0.16,0.88 0.89,1.24 1.58,1.68 1.66,1.07 0.9,-0.2 1.56,1.91 0.64,0.07 0.77,-0.02 1.27,-0.36l0.25 -3.3c0.86,0.26 1.01,0.35 1.57,0.92 1.49,-0.06 0.69,-0.33 2.6,1.07 0.5,0.37 0.48,0.32 0.72,0.71 -1.16,0.53 -1.05,0.13 -2.04,0.4 -0.45,0.12 -1.02,0.73 -1,1.2 0.63,0.25 0.19,0.08 0.76,0.12 0.37,0.03 -0.02,-0.05 0.33,0.01 0.34,0.06 0.17,0.02 0.4,0.15 -0.41,1.02 -0.97,0.05 -1.31,1.33 -0.28,1.04 -0.53,0.97 -1.11,1.64 -0.04,-0.02 -0.1,-0.11 -0.12,-0.08l-0.62 -0.3c-0.44,0.31 -0.39,0.23 -0.63,0.71l0.76 1.42c-0.62,0.28 -1.83,1.22 -2.19,1.71l0.65 1.84c-1.44,-0.62 0.54,-1.76 -2.06,-1.74 -1.82,0.01 -2.56,-0.22 -3.86,0.56 -1.05,0.63 -1.92,3.87 -0.37,4.62 0.16,0.08 0.61,0.26 0.77,0.28 0.56,0.08 1.14,-0.09 1.66,-0.23 0.35,-0.63 0.23,-0.84 1.06,-0.93 -0.13,0.73 -0.54,1.34 -0.6,1.59 -0.11,0.47 -0.04,0.45 0.07,0.69l1.48 0.24 0.19 1.54c-0.87,-0.48 -0.9,-0.81 -1.9,-1.21 -1.26,-0.51 -1.03,-0.44 -1.8,-1.33 -1.88,-0.18 -1.04,0.17 -2.59,-0.71 -0.78,-0.45 -1.61,-0.7 -1.72,-1.72 -0.17,-1.55 -1.01,-3.69 -1.84,-4.96l-0.85 0.01c-0.05,-0.47 -0.92,-3.23 0.1,-4.72 0.24,-0.36 0.71,-0.59 0.93,-0.99 0.18,-0.33 0.37,-2.63 0.51,-3.28 0.27,-1.26 0.2,-2.05 -0.64,-2.88 1.16,-0.43 1.8,-1.09 3.14,-1.26l0.98 1.71 1.44 -0.53c0.71,0.4 0.58,0.54 1.48,0.6 0.25,-0.61 0.43,-0.65 0.12,-1.4zm97.07 0.45c-0.04,-1.03 0.16,-1.53 0.91,-1.83 -0.07,0.97 -0.36,1.34 -0.91,1.83zm-1.79 -0.64c0.16,-0.74 0.24,-0.8 0.69,-1.19 -0.08,0.69 -0.25,0.95 -0.69,1.19zm-83.96 0.34c-0.05,1.01 -0.29,1.28 -0.07,2.27 -1.41,-0.17 -1.88,-1.16 -2.63,-1.86 -1.3,-1.21 -2.51,-1.51 -2.68,-1.62 0.3,-0.49 0.63,-0.58 1.38,-0.65 0.77,-0.07 3.43,1.48 4,1.87zm34.39 0.89l1.76 -0.21c0.29,0.58 0.55,0.76 1.03,1.19 0.97,-0.09 1.63,-0.56 2.95,-0.68 0.98,-0.09 2.43,-0.07 3.19,-0.44 0.45,-1 0.31,-1.97 -0.33,-2.63 1.99,-1.54 3.44,-0.85 5.91,-0.27 1.55,0.36 1.59,0.27 2.83,0.99 1.74,1.01 0.74,0.6 2.6,0.69l0.34 0.36c0.09,2.59 -0.41,1.62 -1.96,2.41 0.04,0.48 0.12,0.49 0.35,0.74l-0.23 0.43 -1.04 -0.26c-0.6,0.44 -0.37,0.44 -1.26,0.64l-0.48 -0.77 -1.27 0.09c-0.76,0.83 -1.31,1.14 -2.04,1.99 -0.93,-0.51 -1.06,0.21 -1.68,0.65 -0.62,0.43 -1.55,0.13 -2.49,0.36l-0.32 -0.28c-0.18,-0.17 -0.04,-0.04 -0.21,-0.27l-0.71 0.31c-0.26,-0.48 -0.26,-0.36 -0.59,-0.79 -0.26,-0.34 -0.18,-0.37 -0.43,-0.78 -1.09,-0.18 -1.93,-0.12 -2.91,0.21 -3.85,1.32 -1.06,-1.34 -3.82,1.91 -0.7,0.83 -1.12,0.89 -1.77,0.97 0.35,-0.53 0.64,-0.81 1.11,-1.27 0.29,-0.28 0.73,-0.76 0.73,-1.14 0.01,-0.43 0.01,-0.1 -0.17,-0.34 -0.12,-0.05 -2.99,0.87 -3.38,1.08 0.08,2 0.17,0.26 -0.23,1.62l0.5 0.41c-0.59,-0.18 -0.3,-0.26 -1.02,-0.29 -0.3,0.97 -0.02,1.03 -0.87,1.51 -0.29,-0.44 -0.29,-0.55 -0.69,-0.83 -0.49,0.21 -0.99,0.97 -1.29,1.31 -0.78,0.9 -0.63,0.41 -0.81,1.77 -0.58,0.32 -0.96,0.65 -1.53,0.93 -0.81,0.4 -0.87,0.27 -1.18,1.12 0.47,-2.54 3.19,-6.18 4.53,-7.68 2.51,-2.82 3.47,-3.45 6.79,-5.4l0.09 0.65zm2.8 -2c1.24,-0.54 3.45,-1.55 4.87,-0.96 -0.35,0.7 -1.28,0.71 -2.14,0.83 -0.91,0.12 -1.8,0.18 -2.74,0.13zm-89.23 -2.54l0.4 1.91 -2.73 0.96 -0.2 -1.94 2.53 -0.93zm106.86 2.51c-1,-0.48 -1,0.31 -1.93,-0.13 -0.24,-0.11 -0.51,-0.29 -0.77,-0.45l-0.74 -0.56c0.77,0.07 1.3,0.26 2.03,0.48 1.02,0.32 1.27,0.28 1.4,0.66zm34.74 -3.22l4.27 1.65 -0.26 1.98 -4.05 -1.53 0.04 -2.09zm-95.95 3.73l0.27 0.14c0.65,0.19 -0.14,-0 0.28,0.08 1.49,0.28 1.35,0.15 3.01,1.82 0.49,0.49 0.85,1 1.51,1.26 3.28,1.33 1.9,-0.3 1.86,-1.11 -0.03,-0.6 0.22,-1.36 0.21,-2.16 -1.14,-0.3 -2.86,-1.1 -3.59,-1.83 1.53,0.12 5.66,1.3 6.61,2.11 0.5,0.42 0.46,0.69 0.98,1.11 0.45,0.38 0.57,0.19 0.86,0.68 0.2,0.35 -0.16,-0.2 0.09,0.25l0.14 0.22c0.27,0.37 0.03,-0.08 0.27,0.27 0.02,0.03 0.05,0.07 0.07,0.11 0.37,0.66 -0.18,-0.4 0.09,0.26 0.4,0.97 0.52,0.79 1.51,1.74 0.91,-0.23 -0.06,-0.31 1.04,-0.27l0.14 0.2c0.39,0.7 0.66,0.92 1.66,1.31 -0.36,1.06 0.36,-0.83 -0.18,0.39 -0.17,0.38 -0.07,-0.11 -0.2,0.54l1.57 2.19c0.69,0.87 1.46,-0.57 1.89,5.94 -0.83,0.36 -0.94,0.4 -1.21,1.4 -0.47,1.72 -0.19,2.8 -0.8,4.61 -0.28,0.84 0.08,1.52 0.05,2.46 -2.29,0.36 -1.94,0.32 -2.98,1.96 0.38,0.9 0.84,1.01 0.74,2.26l-1.03 0c-0.63,-0.55 -0.94,-0.44 -2.08,-0.68 -0.82,-1.75 -0.01,-0.48 -1.91,-2.44l-1.47 0.02 -1.8 -2.01c-2.39,0.34 0.47,0.84 -3.46,-0.17 -2.2,-0.57 -2.99,1.3 -3.02,1.33 -1.76,-0.79 -0.4,-0.42 -2.23,-0.27 -0.58,-0.67 -0.49,-0.57 -0.64,-1.8 -0.15,-1.21 -0.24,-0.97 -1.51,-1.08 0.22,-0.87 0.78,-1.51 0.73,-2.46 -0.8,-0.06 -1.74,-0.08 -2.15,0.44 -0.16,0.21 -0.06,0.15 -0.19,0.35 -0.49,0.72 -1.37,0.33 -2.01,0.11 -0.09,-1.32 -0.33,-2.63 0.72,-3.31 1.05,-0.68 2.82,-0.43 4.21,-0.43 0.19,1.4 0.47,1.23 0.97,2.15 -0.72,0.57 -1.06,0.19 -1.41,1.05 1.61,0.76 1.34,-0.07 2.81,1.36 0.98,-0.01 1.17,-0.47 2.03,-0.27 -0.21,0.54 -0.58,0.4 -0.31,1.03 0.73,0.25 2.77,-0.21 3.46,-0.55 -0.09,-0.65 -0.36,-0.64 -1.1,-0.95 -0.75,-0.31 -3.01,-0.18 -5.02,-1.66 1,-2.03 0.44,-0.81 0.05,-2.78 2.39,-2.23 2.36,-1.1 1.87,-2.83 1.4,-0.74 1.66,-1.35 2,-2.52 0.51,0.16 0.1,0.19 0.67,0.45 0.46,-0.21 1.14,-0.66 1.56,-1.02 0.92,-0.78 0.96,-0.24 1.87,-0.55 0.04,-0.01 0.09,-0.05 0.12,-0.06 0.79,-0.33 -1.71,-2.67 -1.88,-2.79 -1.48,-1.02 -2.16,-2.03 -3.24,-1.7l-0.63 -0.51c0.33,-0.4 0.85,-0.98 0.95,-1.68 -3.2,-1.95 -3.53,-1.92 -6.23,-0.59 -0.77,-0.84 0.12,-0.8 -2.01,-1.59 -1.48,-0.55 -0.46,0.84 -0.22,1.45 -1.16,-0.47 -0.7,-0.56 -1.94,-0.01 -0.43,-0.4 -0.75,-1.29 -1.02,-1.69 1.81,-1.12 8.33,-1.76 10.61,-1.25 -0.89,0.58 -0.79,-0.06 -1.43,0.71 -0.36,0.43 -0.6,0.86 -0.59,1.3zm92.22 -3.19c0.23,-0.64 0.73,-1.21 1.39,-1.09l0.04 1.72 -1.43 -0.63zm-4.17 1.23c-0.2,-0.56 -0.33,-1.32 -0.28,-2.11l1.86 0.72c-0.34,0.8 -0.54,1.41 -1.58,1.39zm-9.57 5.21c-0.04,1.75 -0.85,1.95 -2.56,1.95 -0.9,-0 -3.79,0.18 -4.42,-0.13 -0.61,-0.3 -3.62,-4.55 -10.91,-7.01 -3.89,-1.31 -4.84,-0.88 -7.1,-1.27 -0.45,-0.08 -0.29,-0.09 -0.43,-0.15 -0.06,-2.68 2.61,-1.97 7.21,-1.97 2.24,0 16.73,-0.38 17.64,0.33 0.99,0.78 0.62,6.49 0.58,8.26zm-51.94 -6.62c0,-2.68 2.54,-1.97 4.86,-1.97 5.28,0 10.55,0 15.82,0 2.37,0 4.89,-0.69 4.7,2.12 -6.24,0.18 -10.41,2 -15,5.2 -0.96,0.67 -2.86,2.4 -3.39,3.2l-0.74 0.01c-4.21,0.04 -6.25,0.58 -6.25,-1.95l0 -6.61zm-6.1 -1.97c5.68,0 5.04,-0.74 5.04,6.32 0,1.81 0.45,3.94 -1.38,4.19 -1.17,0.16 -4.31,0.06 -5.6,-0 -1,-1.62 -5.11,-4.58 -7.58,-5.79 -3.1,-1.51 -6.82,-2.47 -10.8,-2.62 -0.31,-2.45 1.68,-2.1 3.63,-2.1l16.69 0zm-46.9 1.97c0,-1.45 0.55,-2 2.04,-2l18.61 0.02c2.25,0 4.91,-0.66 4.75,1.97 -1.47,0.59 -5.04,-0.04 -10.86,2.77 -2.8,1.35 -6.13,3.91 -7.55,5.79l-0.78 0.01c-3.86,0.02 -6.21,0.6 -6.21,-1.95l0 -6.61zm-19.59 -2.27l0.18 1.88c-0.61,0.26 -1.88,0.84 -2.46,0.85l-0.13 -1.91 2.41 -0.82zm134 0.86c0.62,-1.91 1.41,-1.68 2.86,-0.97 0.41,0.2 0.29,0.18 0.42,0.29 -0.33,0.64 -0.7,0.79 -1.03,1.53l-2.25 -0.86zm7.58 -1.96l4.96 1.99 -0.15 1.84c-0.57,-0 -3.92,-1.38 -4.55,-1.68l-0.26 -2.15zm-29.67 0.28c0.73,-1.98 0.28,-3.66 0.47,-5.96l16.3 6.33c-0.03,0.45 -0.11,0.75 -0.33,1.12 -0.52,0.86 -0.92,0.1 -0.76,2.65 0.03,0.53 0.3,0.75 0.17,1.28 -0.35,1.45 -0.25,1.62 -0.28,3.3 0.67,0.19 2.57,1.79 0.05,2.21l-0.35 0.74 -2.04 -0.07c0.74,-1.6 0.44,-4.1 0.44,-6.07 0,-2.21 0.37,-4.08 -1.29,-5.11 -1.34,-0.84 -9.95,-0.18 -12.38,-0.43zm-102.67 5.36c-0.06,-1.81 0.29,-2.43 1.56,-2.81 2,-0.6 0.84,-0.74 2.75,-1.43 3.78,-1.38 15.67,-6.32 18.19,-7.04 0.17,2.24 -0.28,3.97 0.45,5.92 -2.5,0.26 -11.1,-0.47 -12.48,0.5 -1.59,1.12 -1.18,2.93 -1.18,5.21 0,1.93 -0.29,4.34 0.44,5.95l-6.76 0.02c-0.15,-1.15 -0.7,-4.69 -1.53,-5.27l-0.67 -0.38c-0.34,-0.23 -0.46,-0.4 -0.77,-0.65zm131.34 -5.91c-2.94,1.94 -4.89,0.54 -3.5,-1.43 0.64,0.15 1.2,0.43 1.81,0.66 0.67,0.26 1.25,0.41 1.69,0.77zm-81.24 -8c0,-1.53 0.6,-1.96 2.01,-1.96l21.3 0c1.5,0 2.1,0.44 2.1,1.96l0 6.61c0,1.33 -0.54,1.99 -1.84,1.99l-21.65 0c-1.39,0 -1.93,-0.66 -1.93,-1.99l0 -6.61zm27.46 -1.81c0.89,-0.38 15.63,-0.16 17.94,-0.16 5.07,0 6.54,-0.68 6.53,2.48 -0,1.51 -0,3.02 -0,4.52 0,1.35 0.23,2.9 -0.88,3.39 -0.82,0.37 -15.77,0.16 -18,0.16 -7.56,0 -6.57,1.08 -6.57,-7.03 0,-1.55 -0.29,-2.82 0.97,-3.37zm-53.01 0.02c0.83,-0.41 15.64,-0.18 17.91,-0.18 7.51,0 6.57,-1.04 6.57,7.01 0,1.48 0.25,2.94 -0.91,3.4 -0.94,0.38 -15.71,0.16 -18,0.16 -5.3,0 -6.54,0.66 -6.53,-2.51 0,-1.51 0,-3.02 0,-4.52 -0,-1.58 -0.31,-2.73 0.96,-3.35zm100.32 7.32c-0.1,0.68 0.14,0.44 -0.5,0.56 0.07,-0.61 0.13,-0.43 0.5,-0.56zm3.16 0.2c0.34,-1.78 0.74,-1.86 1.26,-5.46l8.27 1.71 -0.2 7.41c-0.87,-0.16 -8.85,-3.29 -9.34,-3.66zm-10.43 0.85c0.75,0.59 1.26,0.64 1.58,1.44 -1.2,-0.28 -3.03,-1.13 -4.22,-1.58l-11.01 -4.29c-0.63,-0.24 -0.57,-0.11 -0.87,-0.59l0 -1.78 8.88 3.4c7.37,2.83 3.21,1.49 5.65,3.4zm-95.07 -6.8c0,2.09 0.25,1.93 -1,2.42 -2.81,1.09 -15.6,6.2 -16.89,6.5l0.4 -1.57c-0.02,-0.01 -0.31,-0.09 -0.34,-0.1 -0.33,-0.14 -0.23,-0.12 -0.4,-0.2l18.24 -7.04zm-30.69 1.45c-0.77,1.58 -0.24,1.85 -0.53,3.6 -0.23,1.39 -0.73,2.37 -0.65,3.72l-2.47 0.85 -0.08 -7.45 3.73 -0.72zm4.32 -0.86c-0.11,0.48 -0.38,1.29 -0.39,1.71 -0.01,0.56 0.24,1.33 -0.53,1.27l-0.24 -2.82 1.16 -0.17zm133.39 -2.74l7.83 1.57 0.07 2.03 -7.95 -1.63 0.05 -1.97zm-134.67 2.16c-0.13,-1.07 -0.27,-1.03 0.19,-1.98l0.93 -0.11 0.12 1.78c-0.12,0.07 -0.06,0.09 -0.41,0.2l-0.82 0.1zm-0.7 -1.75c-0.38,0.68 -0.55,0.8 -1,1.37 -0.52,0.66 -0.34,0.85 -1.21,1.04 -1.18,0.27 -2.65,0.59 -3.85,0.74l0.16 -1.99 5.9 -1.17zm129.66 5.82c-1.22,-0.7 -0.15,-3.75 0.21,-4.69 0.29,-0.77 0.54,-1.42 0.82,-2.14 0.28,-0.72 0.95,-2.35 1.41,-1.01 0.66,1.92 -1.03,2.66 -1.62,6.04 -0.24,1.38 -0.14,1.54 -0.81,1.81zm-5.43 -4c-1.14,-1.91 -1.81,-2.08 -1.47,-3.47 1.58,-0.2 4.19,4.98 3.77,6.18 -0.96,-0.07 -1.76,-1.81 -2.3,-2.71zm-43.47 -2.78l2.27 0.03c-0.32,0.18 -0.25,0.15 -0.54,0.39 -0.39,0.31 -0.23,0.23 -0.65,0.43l-1.08 -0.85zm39.97 4.49l0.86 2.32 -12.53 -4.87c-0.56,-0.34 -0.48,-1.07 -1.34,-1.61 -0.65,-0.41 -1.45,-0.41 -2.37,-0.47l0.5 -1.26 14.88 5.89zm-62.53 -4.51c-0.13,-1.4 -0.12,-3.32 0.69,-4.23 1.64,0.09 1.54,3.05 1.37,4.23l-2.06 0zm-51.68 9.93c0.2,-0.18 -0.14,-0.02 0.45,-0.32 0.09,-0.05 0.27,-0.11 0.38,-0.15 0.29,-0.11 0.47,-0.17 0.75,-0.28 0.41,-0.16 1.26,-0.43 1.62,-0.65 0.81,-0.49 1.26,-1.92 2.19,-2.34l19.56 -7.56 0.38 1.25c-1.53,0.09 -2.52,0.26 -3.15,1.37 -0.5,0.88 -0.24,0.61 -1.27,0.99l-7.88 3.08c-2.26,0.87 -11.3,4.74 -13.03,4.6zm63.34 -10.3c0.36,-0.92 2.88,-1.34 3.36,0.39 -1.09,0.01 -2.71,0.25 -3.36,-0.39zm-61.65 -0.28c-0.41,0.39 -0.77,0.69 -1.23,1.07 -0.38,0.31 -0.87,0.78 -1.37,0.96l-0.3 -1.54 2.9 -0.49zm134.62 0.14c0.32,0.3 0.29,1.49 0.29,1.94l-7.96 -1.71 -0.33 -1.94c1.22,0.18 7.42,1.33 8,1.71zm-35.34 -0.98c-1.73,-0.68 -1.38,-0.32 -1.39,-0.96 0.65,-0.46 5.77,0.93 6.93,1.16 2.33,0.47 4.76,0.89 7.03,1.46 -0.1,1.23 0.31,2.17 0.5,3.36 -1.28,-0.31 -2.72,-0.99 -3.93,-1.46l-9.13 -3.56zm-99.26 5.33c0.11,-0.42 0.32,-1.15 0.47,-1.53 0.24,-0.65 0.46,-0.53 1.24,-0.68l18.34 -3.74c0.53,-0.11 1.08,-0.21 1.59,-0.33 1.65,-0.36 1.05,-0.22 1.31,0.08 -0.05,0.55 -0.12,0.4 -0.91,0.69 -3.19,1.18 -16.38,6.53 -17.76,6.85 0.3,-0.56 0.59,-0.72 0.88,-1.34l-5.16 -0zm61.44 -6.8c0.85,-0.51 3.74,-0.76 4.86,-0.71 0.45,1.71 0.2,0.83 0.05,1.14 -1.17,0.32 -4.33,0.76 -4.91,-0.43zm56.8 0.46c-0.15,0.43 -0.02,0.09 -0.27,0.3 -0.13,-0.28 -0.19,-0.47 -0.26,-0.88 -0.12,-0.7 -0.02,-0.62 0.09,-0.83 0.45,0.35 0.63,0.88 0.45,1.41zm-19.67 -2.66c1.03,-0.05 5.44,1 6.75,1.27 2.19,0.45 4.7,1.08 6.88,1.37l-0.24 1.9c-1.04,0.01 -13.33,-2.55 -13.77,-2.87l0.39 -1.67zm-96.75 4.11c1.07,-0.41 19.73,-4.15 20.43,-4.11l0.38 1.67c-0.44,0.32 -19.59,4.25 -21.6,4.48l0.79 -2.05zm97.23 -6.81l13.45 2.74 -0.23 1.93 -13.51 -2.72 0.29 -1.96zm-20.81 2.55c1.25,0.65 0.79,0.39 0.98,0.79 -1.07,0.55 -3.76,-0.96 -4.57,-1.35 0.21,-0.28 0.36,-0.61 1.17,-0.5 0.59,0.08 1.85,0.76 2.42,1.06zm-92.33 6.72c0.09,-2.26 -0.43,-1.86 3.22,-2.6 4.49,-0.91 31.06,-6.54 32.65,-6.61l0.27 1.9c-3.15,0.41 -7,1.4 -10.16,2.04 -1.68,0.34 -3.39,0.69 -5.07,1.04 -0.88,0.18 -1.75,0.36 -2.6,0.53l-2.23 0.04c-0.92,0.89 -3.3,1.13 -4.87,1.41 -0.74,-0.43 0.13,-0.22 -0.69,-0.38 -0.27,-0.05 -0.86,0.07 -2.44,-0.23 -0.68,0.83 -0.32,0.22 -0.57,1.38l-7.51 1.49zm84.13 -4.74c-0.29,-1.55 -0.54,-0.97 -0.83,-1.82 -0.14,-0.41 -0.38,-2.6 0.07,-3.29 1.01,-0 0.75,-0.09 0.65,0.72 -0.12,0.97 -0.53,0.89 0.13,1.89 1.35,2.04 1.59,2.16 2.69,1.17 0.73,0.18 2,0.63 2.22,1.36 -0.92,0.9 -3.29,1.19 -4.66,0.76l-0.28 -0.79zm-10.37 -4.98c-0.06,0.65 -0.03,0.55 -0.71,0.68l0.15 -0.7 0.56 0.02zm-2.91 -0.06c0,0.01 0.42,-0.1 0.07,0.42 -0.25,0.37 0,0.06 -0.4,0.11 0.05,-0.51 0.18,-0.41 0.33,-0.53zm63.97 1.97c-0.4,-0.85 -1.29,-1.46 -1.7,-2.33l14.58 0.43 1.04 7 -8.23 -1.73c-0.43,-2.04 -0.18,-2.16 -0.96,-2.88 -0.27,-0.25 -0.33,-0.37 -0.63,-0.59 -1.09,-0.8 -2.63,-0.01 -4.1,0.11zm-4.23 -2.39c-0.04,0.94 -0.36,2.49 -0.79,3.25 -2.98,-0.16 -5.88,-0.84 -8.71,-1.42l-6.34 -1.28c-1.89,-0.39 -1.48,-0.09 -1.44,-1.06l17.29 0.51zm-94.9 -0.45c0.04,0.92 0.46,0.61 -1.73,1.06l-24.69 5.02c-2.94,0.59 -6.07,1.37 -9.1,1.81l1.18 -6.99 34.34 -0.91zm52.56 2.66c-1.17,0.05 -2.13,-1.29 -2.26,-2.45 0.96,0.03 2.09,1.51 2.26,2.45zm-11.25 -2.26c0.26,-0.54 2.09,-0.45 2.65,-0.17 -0.21,0.63 -1.03,1.2 -2,1.13 -0.37,-0.3 -0.49,-0.4 -0.65,-0.96zm-41.49 -3.01l-0.02 1.86 -33.96 0.94 0.41 -1.94 33.57 -0.85zm3.44 11.75c-1.35,-2.85 -2.23,-8.05 -2.39,-11.55 -0.5,-10.95 3.32,-19.92 10.22,-27.72 0.54,-0.62 1.12,-1.07 1.6,-1.68 1.47,0.53 2.35,1.24 4.09,1.7l3.54 0.66c1.18,0.21 0,0.21 0.93,-0.26 0.4,0.51 0.52,0.84 0.52,1.57 0,4.64 0.15,35.41 -0.06,37.32l-18.45 -0.04zm74.55 -11.84l33.55 0.94 0.38 1.96 -14.85 -0.41c-0.5,-0.16 -0.71,-0.97 -1.48,-1.4l-0.26 1.34 -17.41 -0.49 0.06 -1.94zm-37.52 0.9c-0.06,-1.81 0.29,-4.55 0.91,-5.88 0.69,0.11 1.45,0.78 1.88,1.27 0.07,1.25 0.28,3.68 -0.33,4.63 -0.82,0.26 -1.61,0.12 -2.46,-0.02zm-2 -0.99c-0.17,-0.45 -0.3,-1.73 0.52,-2.02 0.33,0.47 0.5,1.83 -0.52,2.02zm46.26 -0.43c-7.72,-0.22 -6.71,0.45 -6.71,-2.14l32.77 0.91 0.5 1.97 -26.56 -0.74zm-34.77 0.63l-0.05 2.07c-0.33,-0.22 -2.63,-2.51 -2.47,-3.36 0.8,-0.09 2.2,0.67 2.52,1.29zm-49.99 -2.71c0,0.32 0.01,0.66 0.01,0.98 -0.02,0.8 -0.02,0.66 -0.2,0.81 -0.56,0.31 -29.74,0.97 -33.12,1.02l0.56 -1.95 32.74 -0.86zm77.92 -2.68c1.24,-0.62 12.47,-2.33 14.85,-2.77 2.45,-0.45 4.94,-0.87 7.36,-1.32 2.28,-0.42 5.21,-1.11 7.41,-1.29 0.75,1.05 2.7,6.61 3.04,8.21l-32.57 -0.95 -0.09 -1.88zm-110.45 2.82c0.34,-1.58 2.3,-7.17 3.04,-8.2 1.78,0.15 12.28,2.15 14.93,2.64 2.34,0.43 13.47,2.13 14.72,2.74l-0.12 1.91 -32.57 0.91zm71.66 -2.4c0.22,0.52 0.09,0.35 0.02,0.72 -0.61,-0.12 -0.93,-0.42 -0.65,-1.15 0.35,0.07 0.43,-0.04 0.63,0.42zm-9.15 -5.33c4.27,0 4.19,-1.27 5.28,0.49 0.8,1.29 0.26,4.39 0.26,6.15 0,1.17 0.25,5.21 -0.31,5.9 -0.6,-1.62 -0.71,-4.43 -0.81,-6.28 -0.06,-1.21 -0.04,-3.95 -0.27,-4.97 -0.17,-0.76 -0.21,-0.81 -0.84,-0.91 -1.18,1.23 -0.14,8.45 -0.01,10.62 0.22,3.59 0.59,7.55 0.5,11.14l-1.44 0.02 -0.57 -5.07c-0.33,-0.89 -3.66,-1.82 -4.57,-0.7 -0.61,0.76 -0.43,4.79 -0.28,5.93 -0.64,0.2 -0.68,0.32 -1.11,0.69l-0.61 -0.45c-0.25,-0.18 -0.27,-0.17 -0.7,-0.29 -0.44,-9.88 -0.25,-11.51 0.01,-22.34l5.47 0.07zm7.88 -0.2c0.21,0.57 0.3,1.07 0.37,1.68 -0.75,-0.37 -1.61,-1.29 -1.72,-2.34 0.93,-0.08 1.06,-0.11 1.35,0.66zm39.7 2.49c1.16,-0.65 5.51,-1.11 7.18,-1.41 4.59,-0.83 18.13,-3.46 21.77,-3.87l0.74 1.8 -29.47 5.25 -0.21 -1.78zm-106.07 -5.29c2.37,0.28 5,0.86 7.36,1.29l14.45 2.59c1.67,0.31 6.01,0.75 7.2,1.41l-0.22 1.81 -29.51 -5.27 0.74 -1.83zm80.89 1.14c2.91,1.59 1.03,0.48 3.05,1.12 2.2,0.7 3.65,1.86 3.71,4.54l-1.17 -0.68c-0.46,0.26 -0.45,0.39 -0.89,0.65 -0.98,-0.71 -2.44,-4.07 -3.83,-3.45 -0.22,0.35 -0.08,-0.38 -0.18,0.4l0.22 0.83c0.19,0.35 0.34,0.53 0.57,0.82 1.37,1.78 7.38,11.34 6.97,13.35 -3,0.76 -5.15,-0.99 -7.18,-2.53 -0.66,-0.5 -2.51,-2.21 -2.73,-3.18 1.28,-0.26 2.35,-0.03 2.56,-1.39 -1.15,-0.24 -2.71,-0.14 -3.7,-0.56 0.19,-1.7 1.95,-1.34 1.45,-3.41 -1.29,-0.21 -1.33,1.01 -2.32,1.03 -0.94,0.02 -1.29,-1.32 -2.22,-0.97 -0.5,0.92 0.03,1.43 -0.41,2.39 -0.89,-0.07 -1.72,-1.34 -2.01,-2.21 0.61,-0.7 0.43,-0.51 1.57,-0.84 0.61,-0.17 1.15,-0.51 1.66,-0.77 2.32,-1.19 2.46,0.6 3.7,0.27 1.41,-1 -0.81,-2.1 -1.68,-2.41 -0.78,-0.28 -1.2,-0.14 -1.88,-0.55 -0.56,-0.34 -0.86,-0.72 -1.66,-0.4 -1.3,0.51 -4.17,4.74 -5.92,3.12 0.45,-0.84 1.88,-0.21 2.51,-2.33 0.71,-2.37 2.02,-1.36 1.93,-2.83 -1.38,-0.74 -2.86,0.39 -4.11,0.6 -0.59,-0.53 -0.85,-1.11 -1.47,-1.62 -0.82,-0.67 -1.51,-0.2 -2.31,-0.77 0.24,-0.76 1.19,-0.87 1.96,-1.13 0.94,-0.32 1.34,-0.63 2.05,-0.97 0.42,0.68 1.52,2.45 2.8,1.66 0.85,-0.52 0.89,-0.44 1.9,-0.7 0.95,-0.24 0.81,-0.51 1.16,-1.29 1.63,0.75 1.99,2.48 2.34,3.39 1.28,0.16 2.53,0.26 3.55,0.81zm52.9 -3.58l0.76 1.64c-0.04,0.03 -0.1,0.06 -0.13,0.08 -0.03,0.02 -0.09,0.05 -0.13,0.07 -0.34,0.14 -0.02,0.02 -0.27,0.09 -0.11,0.03 -0.32,0.06 -0.44,0.08l-6.22 1.11c-3.28,0.62 -20.56,3.86 -21.5,3.74l-0.28 -1.8 28.22 -5.01zm-132.57 -0.06l28.31 5.05 -0.34 1.81c-0.93,0.12 -21.04,-3.63 -25.19,-4.4 -0.85,-0.16 -2.82,-0.36 -3.52,-0.78l0.75 -1.69zm61.96 3.48c-0.76,0.27 -0.69,-0.35 -1.16,-0.97 -0.35,-0.46 -0.67,-0.78 -0.97,-1.29 -1.08,-1.86 0.38,-2.99 0.92,-2.84 0.38,0.68 0.23,1.88 0.58,2.72 0.19,0.44 0.39,0.71 0.59,1.15 0.58,1.28 0.04,1.22 0.04,1.22zm66.58 -10.07c0.96,1.29 2.82,4.22 3.51,5.86 -0.54,0.3 -25.92,4.94 -28.01,5.08l-0.31 -1.38 24.8 -9.57zm-128 5.86c0.67,-1.61 2.57,-4.62 3.52,-5.88l24.81 9.59 -0.31 1.37c-2.07,-0.14 -27.48,-4.79 -28.01,-5.08zm52.14 3.52c-0.16,-0.74 1.23,-2.03 1.68,-2.59 0.46,-0.58 1.63,-2.04 2.19,-2.28 -0.02,0.34 -2.03,5.71 -3.87,4.87zm22.4 -5.85c1.41,0.22 3.27,1.75 3.19,3.16 -1.44,-0.11 -2.94,-1.77 -3.19,-3.16zm-24.23 2.65c-0.14,-1.14 1.04,-1.65 1.82,-2.12 0.56,-0.34 1.87,-1.09 2.56,-1.04 0.23,1.44 -2.49,3.87 -4.38,3.16zm15.62 -1.75c-2.02,-0.86 -2.05,-2.36 -1.36,-2.52 0.74,-0.18 2.2,1.61 2.46,2.08l-1.09 0.44zm27.56 -1.1c-0.91,-1.07 -0.38,-3.58 0.03,-4.64 0.29,0.21 0.16,-0.13 0.46,0.5 0.1,0.21 1.24,4.17 -0.5,4.13zm-7.67 0.03c-0.26,-0.85 0.03,-3.69 0.83,-4.26 0.55,0.86 1.03,4.73 -0.83,4.26zm-30.03 -2.49c-1.1,-2.37 0.89,-2.65 2.86,-2.16 1.33,0.33 3.38,0.98 3.5,2.35 -1.79,0.13 -4.84,0.4 -6.36,-0.19zm58.52 1.56c2.03,-0.78 4,-1.55 6.02,-2.32 1.62,-0.62 4.52,-1.96 6.11,-2.3 0.43,0.43 0.86,0.99 1.09,1.61l-24.61 9.42 -0.59 -1.71 11.98 -4.69zm-110.35 -2.97c0.25,-0.67 0.68,-1.23 1.11,-1.66l24.1 9.32 -0.57 1.81 -24.65 -9.47zm62.63 -3.89c2.86,-1.13 2.63,0.59 2.46,2.71 1.29,1.08 3.8,5.18 3.29,6.15 -0.37,0.71 -1.04,1.41 -1.78,1.62 -0.52,-0.84 -1.17,-2.17 -1.79,-3.04 -0.68,-0.97 -2.01,-1.43 -1.74,-2.83 0.86,0.03 1.35,1.26 1.65,2.05 0.6,-0.25 0.74,-0.45 1.09,-0.89 -0.15,-0.82 -0.83,-3.1 -1.23,-3.68 -0.99,-0.23 -1.27,-0.02 -1.9,0.57 -0.73,0.68 -0.79,0.62 -1,1.77 -1.43,-0 -2.66,-1.31 -2.99,-2.31l3.94 -2.12zm-13.01 4.92c-1.43,0.67 -1.92,-0.58 -1.76,-1.93 0.14,-1.17 0.52,-2.43 1.75,-2.23 0.44,1.02 -0.24,1.68 -0.63,2.41 0.3,0.62 1.05,0.98 0.64,1.76zm71.36 -4.94c0.32,0.69 0.66,0.87 1.03,1.62l-23.93 9.2 -0.68 -1.78 23.59 -9.04zm-119.41 1.67c0.38,-0.8 0.72,-0.98 1.07,-1.73l23.58 9.18 -0.78 1.72 -23.87 -9.17zm53.04 -2.54c0.95,0.15 1.64,0.33 1.68,1.34 -1.11,0.29 -1.63,-0.16 -1.68,-1.34zm41.6 7.51c0.63,-0.24 1.9,-1.15 2.59,-1.58l7.3 -4.7c1.65,-1.04 3.2,-2.09 4.86,-3.13 0.83,-0.52 1.58,-1.03 2.43,-1.57 0.77,-0.49 1.67,-1.23 2.52,-1.51 0.95,1.39 3.45,3.57 4.4,5.3l-23.28 8.97 -0.82 -1.77zm-92.89 -7.27c0.59,-1.06 1.48,-1.81 2.19,-2.73 0.71,-0.92 1.56,-1.6 2.18,-2.49 0.82,0.27 4.03,2.5 5.06,3.15l12.17 7.83c0.67,0.46 1.76,1.18 2.53,1.55l-0.97 1.74 -23.17 -9.04zm70.6 6.47c-0.74,-1.63 -1.27,-2.86 -1.48,-5.12 -0.29,-3.11 0.86,-2.33 3.36,-3.18 1.77,-0.6 3.08,-1.28 4.68,-1.93 2.6,-1.06 4.5,1.08 3.93,1.68 -1.42,0.77 -2.01,-0.48 -2.81,1.7 -0.93,2.55 -1.81,8.56 -1.89,11.21 0.81,0.45 1.59,1.44 3.1,1.27 0.64,-0.07 1.13,-0.34 1.52,-0.72 0.32,-0.31 0.74,-0.66 1.06,-1.12 0,-0 -1.7,-9.48 -1.3,-10.26 0.76,-0.79 2.47,-0.68 3.35,-0.07 2.03,1.41 0.24,4.44 -0.17,6.38 -0.27,1.25 -0.37,2.49 -0.42,3.77 0.41,0.66 1.34,1.65 2.62,1.72 1.26,0.07 2.41,-0.7 2.73,-1.38 0.07,-1.29 0,-2.85 0,-4.18 0,-1.14 -0.39,-2.43 -0.44,-3.62 3.16,3.61 6.18,9.98 7.34,16.07 1.18,6.2 0.77,15.15 -1.75,20.49 -1.1,0.11 -2.43,0.03 -3.56,0.04 -1.75,0.02 -1.35,-0.51 -2.64,-0.96 -3.21,-1.11 -3.31,-1.04 -4,-3.11 -0.65,-1.93 -1.35,-3.18 -1.73,-5.38 -1.03,-6.08 0.28,-11.39 -4.28,-13.82 -0.65,-0.34 -1.78,-1.02 -2.03,-1.46 -0.83,-1.46 0.43,-5.22 -0.25,-6.53 -1.56,-3.01 -3.41,-1.35 -4.94,-1.51zm-18.44 -8.91c0.3,-0.91 0.78,-1.59 1.1,-2.62 0.27,-0.89 0.36,-2 0.68,-2.76 0.82,0.11 1.07,0.5 1.71,0.92 1.91,1.25 3.72,1.47 2.95,4.24 -0.48,1.73 -4.46,2.85 -6.43,0.23zm10.67 1.18c-1.53,-0.72 -2.64,-3.98 -2.16,-5.07 0.28,-0.65 0.63,-1.08 1.29,-1.19 0.47,0.87 0.39,0.94 1.03,1.79 0.38,0.51 0.76,0.91 1.13,1.48 0.9,1.39 0.06,2.69 -1.29,2.99zm-13.56 0.62c-1.06,-0.07 -2.38,-1 -2.68,-1.57 -0.49,-0.9 0.27,-2.4 0.6,-3.19 0.65,-1.57 1.84,-4.5 3.88,-4.35 0.69,0.97 0.77,0.98 0.73,2.43 -0.05,1.52 -0.52,3.67 -1.13,5.05 -0.39,0.89 -0.58,1.24 -1.4,1.62zm42.28 5.66c3.18,-1.93 6.31,-4.09 9.52,-6.1l7.19 -4.63c0.76,-0.47 1.63,-1.19 2.45,-1.46 0.66,0.86 0.82,0.56 1.21,1.49 -0.75,0.33 -1.71,1.01 -2.46,1.52l-12.08 7.75c-1.58,1.01 -3.19,2.2 -4.81,3.07l-1.02 -1.63zm-86.49 -10.7c0.38,-0.9 0.57,-0.66 1.21,-1.49 0.93,0.31 18.12,11.55 19.16,12.19 -0.14,0.35 -0.28,0.61 -0.47,0.92l-0.55 0.72 -9.68 -6.2c-1.66,-1.07 -3.29,-2.02 -4.88,-3.12l-4.79 -3.01zm85.04 8.62c0.42,-0.55 4.03,-2.71 4.61,-3.08l9.3 -6c0.85,-0.53 1.47,-0.96 2.32,-1.5 0.61,-0.38 1.68,-1.16 2.24,-1.37 0.62,0.52 1.11,0.82 1.4,1.4l-4.76 3.03c-1.56,0.99 -3.2,1.98 -4.68,2.98l-9.36 5.99 -1.08 -1.45zm-83.1 -10.55c0.3,-0.58 0.79,-0.89 1.4,-1.4l18.39 11.85c0.01,-0.03 0.05,0.07 0.08,0.11l-1.08 1.45c-3.18,-1.66 -16.15,-10.69 -18.79,-12zm81.77 8.81c0.41,-0.62 1.15,-1.1 1.78,-1.84 0.53,-0.63 1.25,-1.19 1.88,-1.77 1.28,-1.17 2.45,-2.4 3.73,-3.57l7.53 -7.08c0.8,0.45 3.73,2.88 4.21,3.48 -0.11,0.1 -0.06,0.09 -0.29,0.27 -0.09,0.07 -0.21,0.14 -0.32,0.21l-13.11 8.45c-0.82,0.56 -1.56,0.97 -2.33,1.5 -0.72,0.5 -1.48,1.05 -2.24,1.39 -0.44,-0.41 -0.54,-0.51 -0.84,-1.02zm-79.71 -10.78c0.47,-0.6 3.41,-3.04 4.21,-3.48l14.92 14.26c-0.3,0.5 -0.4,0.61 -0.84,1.02l-18.29 -11.8zm62.93 3.43c1.96,-0.41 9.89,-3.39 10.8,-1.15 -0.95,0.69 -2.31,0.14 -3.52,0.59 -1.3,0.48 -4.7,3.11 -8.29,3.71 -1.61,0.27 -1.66,-0.04 -2.92,-0.69 -0.94,-0.48 -1.74,-1 -2.43,-1.57 -0.62,-0.51 -2.74,-3.94 -2.79,-5.18 1.45,0.07 3.65,1.52 4.72,2.21 2.56,1.65 2.57,2.46 4.44,2.07zm-28.54 -2.56c0.33,-0.74 2.79,-1.41 3.49,-1.52 -0.79,0.91 -1.79,2.07 -2.5,3.08 -0.87,-0.4 -0.98,-0.76 -0.98,-1.57zm31.24 0.43c-1.84,0.55 -3.46,1.46 -4.56,-0.08 -0.94,-1.32 -2.24,-1.51 -3.52,-2.78 1.98,0.2 5.29,1.48 7.27,2.33l0.81 0.54zm15.72 4.21c0.29,-0.28 0.44,-0.54 0.73,-0.83 1.06,-1.08 2.5,-2.09 3.43,-3.19 1.22,-1.45 2.68,-2.44 4.31,-4.21l2.55 -2.34c0.49,0.16 1.2,0.68 1.55,1.06 -0.21,0.36 -0.11,0.23 -0.47,0.56l-6.83 6.56c-0.95,0.87 -6.88,6.73 -7.47,7 -0.32,-0.51 -0.45,-1.53 -0.58,-2.16l2.78 -2.46zm-64.04 -0.17c0.99,1.08 2.5,2.32 3.59,3.31 -0.21,0.56 -0.8,1.06 -1.22,1.47 -0.57,-0.24 -6.54,-6.14 -7.47,-6.99l-5.55 -5.4c-0.31,-0.31 -0.57,-0.53 -0.91,-0.83l-0.84 -0.89c0.34,-0.38 1.07,-0.9 1.55,-1.06l7.19 6.91c1.4,1.36 2.2,1.92 3.65,3.48zm68.48 -7.73c1.11,-1.13 3.98,-3.73 4.28,-4.29l1.64 1.14c-0.45,0.94 -2.86,2.65 -3.62,3.55 -1.18,1.4 -2.47,2.19 -3.66,3.47l-3.65 3.48c-2.2,2.03 -1.39,2.13 -3.02,2.08 -0.61,-0.02 -1.1,0.02 -1.72,-0.05l9.74 -9.38zm-76.99 -4.23c0.25,0.49 5.8,5.66 6.96,6.72l6.94 6.93 -1.29 1.14c-1.61,-1.23 -5.43,-5.16 -7.19,-6.87 -0.39,-0.38 -6.84,-6.29 -7.14,-6.91l1.72 -1.01zm76.08 -3.1c0.96,0.34 3.85,2.07 4.64,2.67 -0.58,0.52 -1.06,1.13 -1.66,1.69l-10.64 10.05c-0.7,0.66 -0.88,1.19 -1.71,1.61l-0.39 -2.37 9.77 -13.66zm-75.58 2.67c0.77,-0.6 3.69,-2.34 4.64,-2.67 0.57,0.53 3.75,5.28 4.56,6.39 1.16,1.59 0.58,0.86 0.74,1.69 0.2,1.04 1.66,4.29 1.96,5.95 -0.98,-0.85 -2.08,-1.75 -2.99,-2.82 -0.76,-0.9 -2.13,-2 -3.06,-2.85l-5.85 -5.68zm36.31 -1.14c1.84,-0.92 3.83,-1.39 6.24,-1.51 -0.75,7.32 -3.13,3.13 -3.13,7.86 1.47,0.08 2.5,0.05 2.57,1.7 0.05,1.22 -0.65,2.49 -1.87,2.44 -1.79,-0.07 -4.12,-2.7 -4.76,-3.83 0.38,-1.17 0.91,-1.27 0.95,-2.95 0.02,-1.22 -0.03,-2.44 0.01,-3.69zm28.66 8.9c0.88,-1.36 7.72,-10.79 8.11,-11.71 0.68,0.17 1.39,0.48 1.78,0.93 -1.16,2.04 -7.84,10.93 -8.46,12.18 -0.55,-0.26 -1.1,-0.67 -1.43,-1.4zm-57.83 -11.71c0.45,1.05 2.15,2.83 2.37,3.71 0.22,0.9 0.09,1.64 0.54,2.41 0.64,1.1 0.63,0.86 0.75,2.37 -0.68,-0.49 -1.05,-1.3 -1.52,-1.95l-3.92 -5.62c0.39,-0.45 1.1,-0.76 1.78,-0.93zm55.25 10.81c0.47,-0.99 7.71,-10.77 8.31,-11.95 0.62,0.18 1.34,0.47 1.75,0.86 -0.78,1.53 -7.46,10.38 -7.93,11.48l-2.14 -0.39zm-54.64 -11.1c0.42,-0.38 1.13,-0.67 1.75,-0.86l2.87 4.18 -0.96 1.78c-0.53,-0.34 -0.6,-0.68 -1.03,-1.3l-2.63 -3.81zm57.97 -2.96l4.32 1.7c-0.41,0.91 -4,5.86 -4.85,7.05 -0.82,1.15 -1.64,2.3 -2.43,3.49 -1.16,1.77 -1.06,1.87 -3.58,2.32l6.53 -14.55zm-51.22 0.05c0.81,1.77 1.59,3.47 2.38,5.26 0.46,1.05 1.02,1.67 0.66,2.89 -0.39,1.31 -0.42,2.61 -0.78,3.13 -0.24,-0.41 -0.53,-0.8 -0.81,-1.27 -1.44,-2.47 -4.94,-6.47 -5.79,-8.36l4.34 -1.66zm48.75 -0.88l1.76 0.68 -6.77 15.1c-0.73,-0.05 -1.19,-0.38 -1.84,-0.67l6.85 -15.11zm-42.45 11.26c-0.59,-1.32 -1.36,-2.21 -2.11,-3.28 -0.77,-1.11 -1.2,-2.16 -1.82,-3.58 -0.5,-1.14 -1.31,-2.62 -1.66,-3.82l1.82 -0.55 6.24 14.04c-1.4,0.04 -0.83,0.83 -2.47,-2.81zm39.79 -12.08l1.91 0.63 -6.69 14.98 -1.84 -0.73 6.62 -14.89zm-41 0.06l6.59 14.84 -0.86 0.34 -1.22 -0.37 -6.39 -14.28 1.88 -0.53zm35.07 -1.42c0.85,-0.05 4.64,0.85 5.25,1.28l-6.52 14.72 -2.09 -0.61 3.36 -15.39zm-34.34 1.27c0.75,-0.53 4.09,-1.14 5.23,-1.3l3.3 15.4 -1.99 0.57 -6.55 -14.66zm25.98 12.93c-0.17,-0.69 2.71,-14.08 3.2,-15.08l1.86 0.22 -3.28 15.16 -1.78 -0.31zm-14.73 -11.52c0.76,3.36 0.34,1.52 0.24,3.8 -0.21,5.05 0.37,4.43 1.13,7.3l-0.85 0.42 -3.2 -14.87 1.83 -0.18c0.5,0.98 0.6,2.41 0.86,3.53zm20.54 -3.2l1.8 0.33c-0.01,1.3 -1.24,5.93 -1.6,7.58 -0.37,1.69 -1.14,6.54 -1.78,7.7l-1.79 -0.41 3.37 -15.21zm-20.6 -0.5c9.35,-0.57 7.84,-0.57 17.19,0 -0.43,2.54 -1.1,5.16 -1.64,7.67 -0.16,0.76 -1.32,6.69 -1.74,7.37 -0.85,-0.09 -0.89,-0.53 -1.25,-1.25 -0.4,-0.77 -0.24,-0.85 0.01,-1.81 0.93,-3.6 0.75,-4.5 -0.92,-7.7 -0.56,-1.08 -1.57,-1.43 -2.3,-2.35 -0.99,0.01 -1.66,0.15 -2.75,0.07 -1.12,-0.08 -1.48,-0.3 -2.43,0.2 -2.92,1.51 -1.9,1.54 -3.19,2.35l-0.97 -4.55zm-0.08 15.68l-1.76 0.41c-0.64,-1.15 -1.39,-5.97 -1.77,-7.68 -0.36,-1.64 -1.59,-6.3 -1.6,-7.61l1.88 -0.26 3.26 15.14zm3.03 136.79c-4.84,-0.04 -11.68,-1.58 -16.15,-2.84 -5.11,-1.44 -9.25,-3.28 -13.7,-5.43 -4.34,-2.1 -12.2,-7.14 -15.71,-10.55 -0.44,-0.43 -0.89,-0.68 -1.32,-1.12 -1.84,-1.85 -4.18,-3.95 -5.91,-5.91l-3.32 -3.99c-1.32,-1.62 -2.75,-3.69 -3.98,-5.58 -2.49,-3.82 -4.66,-7.85 -6.63,-12.5 -21.11,-49.7 14.78,-107.92 70.97,-108.69 55.75,-0.75 94.2,54.05 74.59,106.57 -1.67,4.48 -4,9.09 -6.33,12.8 -2.08,3.31 -3.6,5.52 -5.99,8.44 -1.72,2.11 -4.94,5.74 -6.94,7.5 -0.45,0.39 -0.79,0.65 -1.18,1.08 -0.55,0.59 -0.77,0.68 -1.3,1.14 -4.95,4.3 -8.3,6.54 -14.13,9.86 -7.27,4.13 -19.6,8.4 -29.51,9.04 0.06,-1.1 -0.15,-1.09 0.35,-2.05l7.9 -1.31c14.4,-3.18 26.19,-9.65 36.72,-19.43l4.58 -4.81c11.11,-12.71 20.35,-32.08 18.8,-55.82 -3.4,-51.88 -58.26,-86.9 -108.87,-63.64 -4.36,2 -8.2,4.45 -11.72,6.89 -1.13,0.78 -5.49,4.22 -6.44,5.2 -0.7,0.72 -1.81,1.44 -2.45,2.24 -0.45,0.56 -0.71,0.85 -1.19,1.24 -1.33,1.08 -5.3,5.98 -6.45,7.46 -9.76,12.56 -15.29,29.27 -15.4,45.65 -0.12,18.31 6.57,36.2 18.02,49.65l5.63 6.01c0.43,0.39 0.77,0.68 1.22,1.05 6.48,5.46 9.45,8.11 18.22,12.38 7.83,3.81 16.76,6.39 25.62,7.24 2.44,0.23 2.57,-0.31 2,2.21zm-0.38 1.73c0.3,2.15 -0.89,2.62 -2.49,2.65 -1.68,0.03 -2.74,0.61 -4.03,1.22 -1.26,0.59 -3.11,-0.09 -4.46,-0.36 -12.06,-2.36 -23.19,-7.57 -32.87,-14.43 -4.25,-3.01 -7.91,-6.34 -11.15,-9.71l-5.02 -5.58c-12.26,-15.15 -19.24,-33.85 -19.08,-54.4 0.35,-46.23 37.64,-83.67 83.57,-84.42 47.07,-0.77 84.6,36.05 86.61,81.29 0.57,12.85 -1.8,25.27 -6.18,35.91 -2.92,7.1 -8.65,17.15 -13.82,22.87 -2.31,2.55 -6.57,7.28 -9.15,9.28 -0.51,0.39 -0.92,0.79 -1.43,1.18 -0.53,0.42 -0.85,0.72 -1.42,1.19 -9.36,7.71 -21.37,13.3 -33.48,16.25 -6.17,1.51 -4.13,-0.59 -8.62,-0.65 -2.9,-0.04 -2.02,-2.55 -2.01,-2.61 10.13,-0.67 21.13,-4.86 29.75,-9.44 8.58,-4.55 14.01,-9.58 20.54,-16.14l3.41 -4.07c0.75,-0.99 1.35,-1.78 2.1,-2.76 3.97,-5.16 7.9,-12.64 10.26,-18.95 3.89,-10.41 5.72,-21.64 4.92,-33.8 -0.75,-11.4 -3.99,-21.82 -8.42,-30.64 -3.65,-7.29 -10.47,-16.74 -16.82,-22.3 -0.52,-0.45 -0.77,-0.84 -1.33,-1.27 -0.49,-0.38 -0.81,-0.77 -1.29,-1.14 -0.93,-0.72 -1.67,-1.41 -2.68,-2.19 -5.79,-4.5 -11.34,-7.78 -18.41,-10.8 -9.56,-4.09 -21.01,-6.38 -32.72,-6.18 -42.7,0.72 -77.17,35.4 -78.34,77.87 -0.35,12.55 2.03,22.51 6.07,32.94 2.71,7 7.29,14.24 11.92,19.9 1.49,1.82 4.27,4.95 5.88,6.47l2.48 2.39c4.04,3.33 6.39,5.44 11.12,8.36 6.96,4.3 11.91,6.52 20.13,9.08 6.62,2.06 10.15,2.06 16.46,3zm-82.31 -83.05c0,2.48 -0.19,8.44 0.24,10.89 0.29,1.61 0.27,3.22 0.55,4.84 0.89,5.07 1.89,10.19 3.53,15.08l3 7.78c1.18,3.02 2.86,6.04 4.5,8.89 2.22,3.85 4.77,7.59 7.6,11.01 0.3,0.36 0.27,0.41 0.61,0.78l12.76 12.63c0.35,0.26 0.44,0.38 0.76,0.63l2.26 1.74c0.57,0.4 1.03,0.72 1.61,1.17l8.12 5.09c0.31,0.16 0.58,0.27 0.93,0.46l5.33 2.67c0.32,0.15 0.54,0.29 0.94,0.45 7.62,3.08 14.53,5.41 22.86,6.52 11.5,1.53 23.11,1.03 34.28,-1.76 5.22,-1.3 8.92,-2.78 13.89,-4.72 3.08,-1.2 6.02,-2.84 8.89,-4.5l2.47 -1.53c0.33,-0.22 0.54,-0.31 0.87,-0.52l12.1 -9.29c1.5,-1.43 4.69,-4.42 5.85,-5.98l3.13 -3.65c2.3,-3.06 4.64,-6.07 6.64,-9.36l1.46 -2.54c1.84,-3.17 3.49,-6.51 4.87,-9.91l4 -12.17 1.78 -8.82c0.91,-5.27 1.24,-15.98 0.51,-20.78l-0.55 -4.84c-0.36,-3.02 -1.08,-6.05 -1.78,-8.83 -0.33,-1.33 -0.66,-2.74 -1.12,-4.1 -0.24,-0.73 -0.38,-1.31 -0.61,-2l-3.86 -9.7 -3.67 -6.94c-0.71,-1.17 -1.31,-2.23 -2.05,-3.34 -1.91,-2.86 -3.81,-5.91 -6.18,-8.42l-1.19 -1.42c-0.31,-0.41 -0.27,-0.4 -0.63,-0.76l-1.3 -1.48c-0.94,-0.95 -1.76,-1.75 -2.7,-2.69 -1.07,-1.07 -2.13,-2.23 -3.29,-3.14l-8.19 -6.59c-1.99,-1.53 -5.89,-3.99 -8.13,-5.09 -0.68,-0.33 -1.08,-0.63 -1.8,-0.98l-7.25 -3.36c-6.77,-2.74 -13.73,-4.66 -21,-5.78 -4.75,-0.73 -10.48,-0.83 -15.52,-0.83 -4.74,0 -9.65,0.66 -14.25,1.58l-8.51 2.1 -7.95 2.83c-3.68,1.47 -7.32,3.27 -10.74,5.26l-4.92 3.08c-2.91,1.94 -5.63,4.07 -8.29,6.32l-2.26 1.91c-1.84,1.66 -3.54,3.56 -5.3,5.3l-3.69 4.31c-2.33,3.17 -3.06,3.9 -5.56,7.65l-2.49 4.12c-1.78,3.38 -3.45,6.27 -4.88,9.9l-2.21 5.79c-1.85,5.6 -3.3,11.47 -3.96,17.43 -0.28,2.58 -0.54,4.87 -0.54,7.64z"/>
 </g>
</svg>
