<?xml version="1.0" encoding="UTF-8"?>
<!DOCTYPE svg PUBLIC "-//W3C//DTD SVG 1.1//EN" "http://www.w3.org/Graphics/SVG/1.1/DTD/svg11.dtd">
<!-- Creator: CorelDRAW 2021 (64-Bit) -->
<svg xmlns="http://www.w3.org/2000/svg" xml:space="preserve" width="22.8045mm" height="22.2297mm" version="1.1" style="shape-rendering:geometricPrecision; text-rendering:geometricPrecision; image-rendering:optimizeQuality; fill-rule:evenodd; clip-rule:evenodd"
viewBox="0 0 207.41 202.18"
 xmlns:xlink="http://www.w3.org/1999/xlink"
 xmlns:xodm="http://www.corel.com/coreldraw/odm/2003">
 <defs>
  <style type="text/css">
   <![CDATA[
    .fil0 {fill:#5B90E5}
   ]]>
  </style>
 </defs>
 <g id="Capa_x0020_1">
  <metadata id="CorelCorpID_0Corel-Layer"/>
  <path class="fil0" d="M104.55 142.92l-0.82 0 0 -11.18c0,-0.45 0.55,-0.31 1.03,-0.31 0.43,0 0.88,0.03 1.31,-0.03 0.75,-0.1 1.7,-0.1 2.55,-0.22 1.74,-0.24 3.19,-0.39 4.84,-0.7 1.88,-0.35 4.68,-1.02 6.55,-1.65 2.44,-0.82 1.72,-0.84 3.86,-0.29 1.51,0.39 0.47,2.03 4.66,-0.21 0.5,-0.27 0.86,-0.54 1.37,-0.79 4.68,-2.3 5.96,-3.37 8.17,-7.52 0.41,-0.78 0.29,-0.7 1,-1.26 0.45,-0.35 0.84,-0.64 1.26,-1l1.8 -1.58c0.22,-0.22 0.34,-0.37 0.59,-0.54l8.54 8.49c-0.74,1.08 -6.75,5.72 -7.87,6.45 -1.65,1.09 -3.27,2.23 -5.02,3.19l-4.03 2.12c-0.49,0.24 -0.91,0.48 -1.38,0.67l-4.27 1.79c-7,2.81 -16.35,4.59 -24.14,4.59zm-101.19 58.89l0 -15.75 3.09 0 6.48 10.56 0 -10.56 2.95 0 0 15.75 -3.19 0 -6.38 -10.36 0 10.36 -2.95 0zm30.08 0l-3.44 0 -1.36 -3.59 -6.32 0 -1.31 3.59 -3.37 0 6.12 -15.75 3.37 0 6.31 15.75zm-5.83 -6.25l-2.19 -5.83 -2.13 5.83 4.32 0zm17.61 0.44l3.08 0.95c-2.19,8.01 -13.73,6.59 -13.73,-2.89 0,-10.06 11.67,-10.77 13.69,-3.67l-3.15 0.75c-0.85,-3.68 -7.26,-4.29 -7.26,2.69 0,7.07 6.26,7.03 7.37,2.17zm5.7 5.81l0 -15.75 3.19 0 0 15.75 -3.19 0zm5.56 -7.78c0,-11.18 15.29,-11.1 15.29,-0.07 0,10.98 -15.29,10.94 -15.29,0.07zm3.28 -0.11c0,7.28 8.73,7.44 8.73,-0.04 0,-7.33 -8.73,-7.28 -8.73,0.04zm14.5 7.89l0 -15.75 3.09 0 6.48 10.56 0 -10.56 2.95 0 0 15.75 -3.19 0 -6.38 -10.36 0 10.36 -2.95 0zm15.89 0l0 -15.75 11.66 0 0 2.66 -8.47 0 0 3.5 7.88 0 0 2.66 -7.88 0 0 4.27 8.78 0 0 2.66 -11.97 0zm13.84 -5.11l3.1 -0.31c1.16,6.39 12.48,1.02 2.51,-1.47 -7.74,-1.94 -5.98,-9.15 0.71,-9.15 3.41,0 5.9,1.45 6.02,4.82l-3.19 0.11c-0.83,-4.99 -10.61,-0.72 -2.13,1.28 9.29,2.19 6.57,10.11 -0.52,10.11 -3.77,0 -6.06,-1.68 -6.5,-5.39zm21.62 -10.65l3.19 0c0,7.57 -1.35,13.31 3.16,13.31 4.3,0 2.98,-5.6 2.98,-13.31l3.19 0c0,9.55 1.66,16.04 -6.07,16.04 -8.11,0 -6.45,-6.13 -6.45,-16.04zm15.89 15.75l0 -15.75 3.09 0 6.48 10.56 0 -10.56 2.95 0 0 15.75 -3.19 0 -6.38 -10.36 0 10.36 -2.95 0zm15.78 0l0 -15.75 3.19 0 0 15.75 -3.19 0zm6.22 -15.75c6.52,0 13.18,-1.45 13.18,8.03 0,9.15 -7.08,7.73 -13.18,7.73l0 -15.75zm3.19 2.66l0 10.43c4.41,0 6.71,0.59 6.71,-5.21 0,-5.63 -2.47,-5.22 -6.71,-5.22zm26.89 13.09l-3.44 0 -1.36 -3.59 -6.32 0 -1.31 3.59 -3.37 0 6.12 -15.75 3.37 0 6.31 15.75zm-5.83 -6.25l-2.19 -5.83 -2.13 5.83 4.32 0zm6.69 1.14l3.1 -0.31c1.16,6.39 12.48,1.02 2.51,-1.47 -7.74,-1.94 -5.98,-9.15 0.71,-9.15 3.41,0 5.9,1.45 6.02,4.82l-3.19 0.11c-0.83,-4.99 -10.61,-0.72 -2.13,1.28 9.29,2.19 6.57,10.11 -0.52,10.11 -3.77,0 -6.06,-1.68 -6.5,-5.39zm-11.41 -58.09l0.12 -0.2 -0.12 0.2c-0.65,0.43 -1,1.17 -1.69,1.7 -0.38,0.3 -0.53,0.51 -0.86,0.78 -1.67,1.35 -3.2,2.35 -5.28,3.24 -3.16,1.35 -7.44,2.4 -10.95,2.69l-9.33 0.82c-1.6,0.07 -7.42,0.83 -8.97,1.19 -1.91,0.44 -3.72,0.86 -6.01,0.86 0.18,-0.15 0.13,-0.12 0.39,-0.22 2.07,-0.79 3.62,-0.96 5.83,-2.07 1.69,-0.84 3.72,-2.16 5.04,-3.48l1.95 -2.36c0.77,-1.14 1.51,-2.24 2.14,-3.5l2.29 -4.89c0.72,-1.63 1.58,-3.2 2.43,-4.76 0.21,-0.38 0.35,-0.57 0.54,-0.89 0.23,-0.39 1.04,-1.37 1.13,-1.74l0.1 0 -0.08 -0.12 -0.02 0.12c-0.88,0.47 -4.51,3.27 -5.26,3.98 -0.23,0.22 -0.27,0.24 -0.5,0.42l-7.24 6.81c-0.35,0.35 -0.62,0.51 -0.98,0.87 -1.81,1.83 -4.73,4.9 -6.61,6.42 -2.59,2.09 -5.45,3.47 -8.61,4.52 -0.95,0.32 -1.89,0.61 -2.83,0.86l-3.06 0.94c2.88,0 12.77,2.55 16.25,3.35 6.86,1.56 14.05,2.57 21.39,0.13 3.44,-1.15 6.82,-2.88 9.73,-5.04 1.49,-1.11 4.13,-3.37 5.17,-4.67 1.18,-1.48 2.12,-2.54 3.09,-4.29 0.32,-0.57 0.63,-0.99 0.79,-1.67zm-143.74 18.47l0 -0.1 -0.12 0.09 0.12 0.02 3.17 3.3 2.29 1.71c4.44,2.94 10.21,5.38 15.68,5.36 3.58,-0.02 6.54,-0.46 9.25,-1.32 1.98,-0.63 3.75,-1.32 5.56,-2.23l4.91 -2.99c2.53,-1.7 5.29,-3.98 7.85,-5.39 3.12,-1.73 6.42,-2.74 10.03,-1.76 0.5,0.13 0.22,-0.08 0.46,0.25 -0.43,0.1 -1.17,0.53 -1.61,0.75 -2.69,1.34 -5.34,2.82 -7.83,4.48l-2.92 2.01c-0.49,0.37 -0.9,0.62 -1.36,1l-2.74 2.18c-0.29,0.22 -0.42,0.36 -0.68,0.56l-3.87 3.51c-0.61,0.54 -1.42,1.14 -1.87,1.82 0.39,0.58 2.58,2.24 3.26,2.79 0.42,0.34 0.72,0.61 1.15,0.9 0.13,-0.5 1.25,-1.7 1.63,-2.17 0.11,-0.14 0.17,-0.18 0.29,-0.32 1.34,-1.6 3.84,-4.43 5.43,-5.65l2.07 -1.83c0.28,-0.26 0.43,-0.37 0.72,-0.61 0.97,-0.79 1.86,-1.51 2.87,-2.26 1.48,-1.12 2.99,-2.24 4.59,-3.21 0.56,-0.34 1.05,-0.68 1.6,-0.97 1.11,-0.57 2.22,-1.29 3.66,-1.59 0.79,-0.17 2.71,1.08 3.47,1.54 2.98,1.81 7.12,4.62 9.73,7.1 1.11,1.06 2.31,2 3.39,3.08l3.95 3.95c0.51,0.51 2.2,2.38 2.59,2.64 0.2,-0.13 0.32,-0.26 0.51,-0.41 0.21,-0.16 0.34,-0.27 0.57,-0.45l2.07 -1.83c0.44,-0.44 0.6,-0.59 0.95,-1.1 -0.31,-0.45 -0.73,-0.82 -1.19,-1.17 -0.65,-0.5 -1.23,-1.17 -1.87,-1.73 -3.25,-2.87 -6.75,-5.51 -10.41,-7.86 -1.71,-1.1 -3.56,-2.09 -5.31,-3.1 -0.77,-0.45 -3.69,-1.71 -4.01,-2.15 0.71,-0.02 1.48,-0.29 2.25,-0.31 5.26,-0.15 6.27,0.44 10.02,2.92 0.54,0.36 0.97,0.71 1.5,1.07l4.62 3.18c3.38,2.13 6.88,3.86 10.75,4.94 8.41,2.35 15.89,0.91 22.87,-3.29 1.32,-0.79 2.63,-1.76 3.78,-2.79 0.58,-0.51 3.03,-2.69 3.21,-3.36l0.1 0 -0.09 -0.12 -0.02 0.12 -3.18 1.75c-2.42,1.19 -7.14,2.38 -9.96,2.36 -0.87,-0.01 -1.46,0.21 -2.42,0.06 -0.66,-0.1 -1.67,-0.1 -2.3,-0.16 -1.87,-0.16 -4.56,-0.74 -6.17,-1.32 -1.23,-0.45 -2.31,-0.92 -3.52,-1.41 -1.25,-0.5 -2.35,-0.94 -3.59,-1.44 -0.64,-0.25 -1.13,-0.44 -1.76,-0.7 -0.59,-0.24 -1.08,-0.53 -1.65,-0.81 -0.55,-0.28 -1.13,-0.53 -1.71,-0.76 -3.54,-1.4 -8.14,-2.75 -11.98,-3 -2.58,-0.17 -4.5,-0.38 -7.16,-0.09 -1.1,0.12 -5.38,0.61 -6.26,1.13 -0.55,0.33 -0.95,0.71 -1.94,0.57 -1.15,-0.16 -1.99,-0.75 -3.9,-1.03 -0.62,-0.09 -1.4,-0.26 -2.1,-0.36 -9.61,-1.36 -17.95,1.8 -26.28,5.39 -1.17,0.5 -2.22,1.01 -3.42,1.51 -1.23,0.51 -2.24,1.05 -3.52,1.51 -1.13,0.41 -2.55,0.78 -3.89,1.04 -0.64,0.12 -1.37,0.24 -2.12,0.34 -0.8,0.11 -1.59,0.07 -2.38,0.19 -1.4,0.21 -3.38,-0.03 -4.66,-0.14 -3.43,-0.29 -6.59,-1.34 -9.54,-2.87 -0.43,-0.22 -1.24,-0.82 -1.64,-0.92zm70.59 -89.47l-0.1 0 0.09 0.12 0.02 -0.12c0.46,-0.11 0.33,-0.2 0.72,-0.31 -0.26,1.11 -1.14,0.95 -1.31,1.77l-0.02 0.9c0.16,0.16 0.25,-0.16 0.82,-0.21 0,0.64 -0.37,0.97 0.21,1.13 -0.41,0.35 -0.25,0.24 -0.21,0.82 -1.33,0 -1.68,0.12 -2.48,0.7 -0.06,0.05 -0.39,0.28 -0.41,0.31 -0.26,0.27 -0.05,0 -0.13,0.22 -0.01,0.02 -0.02,0.1 -0.03,0.12l-0.04 0.1c-0.09,0.13 -0.34,0.21 -0.5,0.29 -0.06,0.03 -0.19,0.09 -0.27,0.14 -0.21,0.12 -0.11,0.05 -0.24,0.17 1.39,0 1.32,-0.2 2.16,-0.2 0.22,0.45 -0.06,0.29 0.33,0.49l1.34 0.42c0.55,0.14 0.35,0.01 0.7,0.04 0.64,0.04 0.32,0.5 0.98,0.73 0.61,0.22 0.97,-0.1 1.47,-0.14l-0.43 0.5c0.14,0.25 0.19,0.33 0.33,0.53 -0.4,-0.03 -0.27,-0.09 -0.72,-0.1l0 0.21c0.26,0.06 0.11,0.01 0.31,0.1 0.17,0.08 0.19,0.1 0.31,0.21 -0.62,-0.05 -0.34,-0.16 -1.03,0 0.02,0.74 0.27,0.53 1.07,0.98l1.48 0.57c0.26,0.07 0.74,-0.02 1.25,-0.02 -0.21,0.29 -0.06,0.14 -0.42,0.3 -0.19,0.08 -0.35,0.16 -0.5,0.22 -0.41,0.16 -0.69,-0.01 -1.23,-0.01 0.06,0.24 0.21,0.52 0.02,0.7 -0.36,0.35 -0.01,-0.5 -0.47,0.17l-0.4 0.64c-0.66,0.9 -0.61,0.54 -1.16,0.18 -0.36,-0.23 -0.34,-0.16 -0.87,-0.16 0.17,0.62 0.55,0.36 1.61,1.26 0.24,0.2 0.29,0.31 0.54,0.48 -0.4,0.6 -0.24,1.37 0.51,1.44l-0.9 0.95 -1.46 -0.85c2.11,0 1.28,-1.39 0.95,-1.66 -0.28,-0.23 -1.79,-0.48 -1.98,-0.49 -0.27,-0.01 -0.42,0.05 -0.55,0.06 -0.58,0.04 -0.98,-0.35 -1.54,-0.29l-0.14 0.01c-0.17,0.05 0.1,-0.14 -0.12,0.05l-0.11 0.16c-0.1,-0.36 -0.06,-0.32 -0.41,-0.41 0.03,0.33 0.13,0.47 0.17,0.76 0.1,0.79 -0.67,0.28 -0.42,2.26l-0.27 3.44c-0.36,0.01 -0.45,0.07 -0.78,0.14 -0.85,0.19 -1.82,0.27 -2.71,0.27 -1.5,-0 -2.43,-0.04 -3.65,-0.35 -5.1,-1.29 -8.83,-4.53 -10.67,-9.34 -0.29,-0.76 -0.76,-2.29 -0.76,-3.24 0.43,-0.23 1.2,-0.63 1.33,-1.13 -0.4,-0.1 -0.42,-0.05 -0.51,-0.41 0.4,-0.59 0.3,-0.01 1.06,-0.79 0.32,-0.33 0.54,-0.7 0.58,-1.26 -2.9,0 -2.58,-0.13 -2.41,-1.07 0.09,-0.47 0.06,-0.51 0.33,-0.81 0.59,-0.66 0.89,-0.48 1.06,-1.2l1.23 0c0.22,0.32 0.31,0.43 0.48,0.85 0.13,0.31 0.31,0.67 0.33,1 -0.4,0.01 -0.24,-0.03 -0.51,0.1 -0.03,0.4 -0.1,0.41 -0.1,0.92 0.42,-0.11 0.3,-0.22 0.67,-0.46 0.41,-0.26 0.49,-0.11 1.04,-0.19 0.63,-0.09 1.47,-0.57 1.68,0.24l-2.46 0c0.12,0.43 0.5,0.6 1.03,0.62 -0.1,0.44 -0.29,0.6 -0.61,0.82 -0.86,-0.02 -0.51,-0.27 -1.03,-0.61 -0.33,0.24 -0.31,0.57 -0.69,0.95 -0.77,0.77 -0.35,0.48 -0.64,1.1 0.86,-0.2 0.24,0.46 1.23,-0.2 0.01,0.02 0,0.03 0,0.05l0.01 0.12c0.21,1.04 0.97,-0.19 1.49,-0.51 0.53,-0.33 1.39,-0.94 1.74,-1.45 0.01,-0.01 0.03,-0.04 0.04,-0.06 0.4,0.6 0.38,-0.03 1.03,0.92 -1.09,0.25 -0.82,0.48 -1.07,0.88 -0.41,0.68 -0.93,0.47 -1.36,1.1 -0.35,0.51 -0.26,0.4 -1.03,0.51 -0.43,0.06 -0.43,0.07 -0.74,0.29 -0.19,0.14 -0.38,0.31 -0.55,0.49l-56.09 1.25 56.09 -1.25c-0.96,1.01 -1.53,2.47 -0.55,2.22 0.9,-0.23 0.43,-0.62 1.93,-0.17 0.33,0.1 0.09,-0.03 0.37,0.14 0.26,0.16 0.29,0.29 0.64,0.38 0.65,-0.07 0.64,-0.96 0.92,-1.04 0.01,-0 0.04,-0.01 0.05,-0.01 0.32,-0.1 0.35,-0.26 0.68,-0.67 0.29,-0.36 0.44,-0.69 0.84,-0.96l17.62 -0.39 -17.62 0.39 0.03 -0.02c0.41,-0.27 0.36,-0.13 0.54,-0.69 0.39,-1.26 0.43,-0.51 0.12,-1.83 0.44,-0.29 0.63,-1.08 0.23,-1.57 -0.31,-0.38 -0.46,-0.19 -0.76,-0.22 -0.62,-0.06 -0.42,-1.04 -1.32,0.25l0 -0.72c0.19,0.1 0.23,0.11 0.33,-0.14 0.16,-0.4 -0.39,-0.3 0.28,-0.37 -0.03,-0.43 -0.12,-0.34 -0.2,-0.72 -0.5,0.04 -0.36,0.16 -0.66,0.24l-0.58 -0.03c0.01,-0.01 0.16,-0.25 0.16,-0.26 0.04,-0.34 0.12,-0.14 -0.16,-0.25 0.01,-0.49 -0,-0.41 0.31,-0.62 -0.06,0.75 -0.07,0.07 0.1,0.72 0.63,-0.15 0.62,-0.04 1.23,0.1 -0.26,-1.11 0.33,-0.17 0.41,-1.13l0.1 0.41c0.46,-0.01 0.6,-0.06 0.63,-0.51 0.02,-0.45 -0.1,-0.63 -0.42,-0.72 -0.27,0.19 -0.22,0.23 -0.31,0.61 -0.25,-0.26 -0.54,-0.42 -0.92,-0.51 0.29,-0.43 0.32,-0.25 0.74,-0.49 1.51,-0.88 0.63,-0.81 1.23,-1.23 0.57,-0.4 1.79,-0.06 2.59,-1.11 1.01,-1.32 0.67,-0.53 0.67,-1.69 0.85,-0.02 1.25,-0.7 0.31,-0.92l0.49 -0.43c0.19,-0.18 0.32,-0.29 0.42,-0.5 0.08,-0.17 0.19,-0.55 0.08,-0.79l-0.05 -0.08c-0.06,-0.16 -0.05,0.06 -0.01,-0.35l-0.72 0c0.99,-1.49 1.21,-0.57 1.44,-1.44 -0.69,0.16 -1.39,0.61 -1.88,1.1 -0.28,0.28 -0.37,0.52 -0.63,0.82 -0.4,0.48 -0.34,-0 -0.85,0.47 -0.47,0.43 -0.04,0.47 -0.82,0.61 -0.45,0.08 -0.87,0.14 -1.29,-0.09 -0.37,-0.2 -0.56,-0.46 -0.82,-0.62 -0.6,-0.35 -0.52,0.14 -0.99,-0.55 0.67,-0.16 3.24,-2.36 8,-2.36 0.05,0.54 0.28,0.78 0.51,1.13 -0.6,0.32 -0.73,0.52 -0.59,1.51 0.22,1.62 -0.02,2.32 1.46,2.86 0.28,0.1 0.58,0.23 0.72,-0.01 0.23,-0.42 -0.2,-0.54 0.26,-0.88 0.23,0.98 0.08,0.66 1.64,1.03 0,0.52 -0.39,1.54 1.03,1.54 0,0.38 0.05,0.46 0.04,0.69 -0.04,0.88 0.38,2.37 1.37,1.44 0.27,-0.25 0.35,-0.3 0.64,-0.49 0.15,0.65 0.36,0.34 0.41,0.92zm-87.62 72.13l0 -0.1 -0.12 0.09 0.12 0.02c0.2,0.88 2.12,3.55 2.85,4.44 7.09,8.62 17.59,13.33 29.28,12 3.97,-0.45 4.7,-0.68 8.4,-1.45l7.87 -1.98c1.21,-0.33 2.65,-0.73 3.93,-1 1,-0.21 2.37,-0.26 3.28,-0.41 0.39,-0.07 0.65,-0.18 1.02,-0.21l0 -0.21c-0.48,0 -1.17,-0.19 -1.56,-0.29 -4.8,-1.13 -8.96,-2.65 -12.92,-5.55l-4.88 -4.45c-0.33,-0.33 -0.59,-0.6 -0.92,-0.93l-6.67 -6.26c-2.65,-2.33 -5.39,-4.57 -8.33,-6.54l2.14 3.51c0.2,0.33 0.32,0.57 0.5,0.94l1.47 2.84c0.64,1.28 1.25,2.52 1.91,3.83 2.15,4.23 5.31,8.34 9.75,10.25l2.04 0.83c1.05,0.36 3.86,0.73 4.35,1.39 -2.52,0 -6.05,-0.95 -8.78,-1.38l-3.02 -0.36c-0.6,-0.03 -0.92,-0.09 -1.54,-0.1l-1.62 -0.12c-0.47,-0.05 -0.98,-0.05 -1.55,-0.09l-7.9 -0.61c-4.98,-0.43 -9.36,-1.52 -13.34,-3.59 -3.3,-1.71 -4.93,-3.97 -5.74,-4.51zm86.39 -37.96c0,-0.49 -0.07,-0.42 -0.1,-0.82 -0.14,0.1 -0.28,0.22 -0.3,0.43 -0.03,0.35 0.15,0.33 0.4,0.38zm-13.95 -31.09c0.6,0 0.81,-0.13 0.82,-0.72 -0.27,0.13 -0.7,0.42 -0.82,0.72zm35.71 -16.11c0.06,0.25 0.06,0.31 0.24,0.48 1.04,0.93 1.37,-1.1 -0.24,-0.48zm-35.09 14.88l0 0.31c0.21,0.11 0.24,0.14 0.51,0.21 0.07,-0.9 0.35,0.01 0.42,-0.6 0.01,-0.1 -0.01,-0.4 -0.01,-0.53 -0.37,0.03 -0.92,0.24 -0.92,0.62zm46.79 8c0,0.24 0.2,0.46 0.31,0.62l0.62 0c0.12,-0.44 0.61,-0.95 -0.31,-1.44 -0.23,0.12 -0.62,0.29 -0.62,0.82zm-41.35 8.62c0.87,0 1.07,-1.21 0.1,-1.23l0 -0.41 -0.31 0c-0.02,0.83 -0.25,-0.01 -0.22,0.92 0.01,0.29 0.21,0.72 0.42,0.72zm16.83 -32.93l0.79 -0.44c0.47,-0.17 0.95,0.12 0.95,-0.38 0,-0.45 -0.24,-0.21 -0.46,-0.28 -0.85,-0.27 0.14,-0.54 -2.51,-0.54 0.19,0.29 0.97,0.65 1.23,1.64zm-1.44 0.82c-0.28,0 -0.28,-0.05 -0.51,-0.1 -0.13,0.54 -0.99,2.26 -0.41,2.26 0.74,0 0.86,-0.75 1.16,-1.3 0.32,-0.59 0.88,-0.89 0.89,-1.67l-0.72 0c-0.06,0.25 -0.13,0.82 -0.41,0.82zm-76.03 40.22c0,-2.67 -1.37,-4.15 -1.44,-4.92l-0.2 0c0,0.82 -0.02,0.79 0.23,1.41 0.46,1.11 0.09,1.31 0.66,2.63 0.21,0.48 0.33,0.67 0.75,0.89zm57.97 1.74c0.37,0.39 0.46,0.31 1.23,0.31 0.77,0 0.84,-0.2 1.05,-0.8 0.11,-0.31 0.62,-0.79 -0.25,-1.15 -0.53,-0.22 -0.59,0.05 -0.99,0.22 -0.18,0.08 -0.26,0.06 -0.39,0.13 -0.35,0.2 -0.18,0.24 -0.3,0.62 -0.16,0.5 -0.23,0.2 -0.36,0.67zm39.4 -43.09c-0.32,-0.03 -0.79,-0.19 -1.03,-0.31 0,1.89 1.15,2.09 2.13,3 0.41,0.38 0.91,0.87 1.28,1.28 0.19,0.22 0.38,0.52 0.54,0.79 0.23,0.4 0.21,0.52 0.76,0.57 0.92,-1.91 0.41,-1.72 -0.4,-3.71 -0.11,-0.27 -0.2,-0.57 -0.32,-0.8 -0.26,-0.5 -0.61,-0.86 -1.21,-1.05l-1.76 -0.5 0 0.72zm-41.45 20.11l-0.1 -0.1 0.1 0.1zm-0.1 -0.1l-0.1 -0.1 0.1 0.1zm-0.1 -0.1l-0.21 -0.1 0.21 0.1zm-0.21 -0.1c-0.46,-0.05 -0.26,0.15 -0.31,-0.31l0.31 0.31zm-72.23 -38.58l8.75 -7.46 2.45 -2.47 10.58 -13.95 2.88 -2.87c0.24,-0.22 0.31,-0.22 0.38,-0.44l-9.2 3.83c-0.4,0.2 -0.58,0.35 -0.99,0.55 -2.51,1.24 -4.65,2.92 -6.61,4.88 -1.79,1.79 -4.15,5.42 -5.07,7.97 -0.96,2.68 -1.41,5.08 -2.26,7.59l-0.91 2.37zm157.29 -1.23c-0.12,-0.52 -0.7,-1.48 -0.92,-2.36 -1.26,-4.86 -2.24,-7.53 -4.72,-11.69 -0.21,-0.35 -0.41,-0.62 -0.67,-0.97 -1.03,-1.43 -2.14,-2.78 -3.45,-3.93l-1.31 -1.15c-2.44,-1.91 -4.55,-2.93 -7.4,-4.09 -1.37,-0.56 -6.34,-2.35 -7.17,-2.78 0.12,0.45 2.83,2.98 3.21,3.36l2.46 2.46c0.38,0.38 0.41,0.53 0.69,0.95 2.48,3.75 3.17,4.46 5.59,7.55l1.52 1.76c0.55,0.59 1.02,1.12 1.59,1.69 1.12,1.12 2.16,2.16 3.28,3.28 0.33,0.33 0.55,0.44 0.88,0.77 0.35,0.35 0.49,0.46 0.86,0.77l4.99 4.03c0.3,0.21 0.26,0.26 0.58,0.35zm-165.9 15.7l-0.29 4.94c-0.08,0.71 0.07,1.09 0.09,1.63l1.31 -2.18c1.14,-1.7 3.35,-4.42 4.87,-5.69l1.85 -1.64c1.64,-1.39 3.89,-2.74 5.89,-4.67 0.21,-0.21 0.25,-0.2 0.45,-0.37l3.08 -3.08c2.2,-2.75 4.24,-5.11 5.44,-8.72 0.57,-1.73 1.11,-3.64 1.11,-5.97l-0.92 1.85c-0.51,1.03 -1.52,2.4 -2.33,3.21 -0.49,0.49 -0.9,0.9 -1.38,1.39 -0.29,0.29 -0.43,0.36 -0.72,0.62l-2.35 1.85c-0.28,0.21 -0.49,0.34 -0.78,0.56 -1.98,1.48 -5.49,3.83 -7.14,5.49 -0.28,0.29 -0.36,0.45 -0.61,0.72 -2.02,2.18 -3.57,4.38 -4.74,7.17l-0.27 0.45c0,-1.07 1.95,-6.14 2.45,-7.71 1.85,-5.79 2.17,-14.58 6.4,-19.15 0.69,-0.74 1.48,-1.52 2.3,-2.11 0.36,-0.26 0.23,-0.06 0.34,-0.37 -0.73,0.35 -2.11,0.51 -4.12,1.72 -1.33,0.8 -2.25,1.46 -3.34,2.51 -0.27,0.26 -0.53,0.38 -0.76,0.67 -0.28,0.35 -0.36,0.44 -0.68,0.76 -3.46,3.47 -4.81,7.35 -5.51,12.24 -0.14,0.97 -0.06,1.83 -0.17,2.8 -0.14,1.21 -0.03,4.4 0.1,5.57l0.42 5.53zm172.37 -3.9c-0.33,-0.09 -0.34,-0.17 -0.62,-0.72 -1.1,-2.16 -1.07,-2.55 -2.58,-4.4l-0.44 -0.48c-0.02,-0.02 -0.04,-0.04 -0.05,-0.05 -0.03,-0.03 -0.16,-0.18 -0.2,-0.21l-1.99 -2.21c-0.28,-0.28 -0.44,-0.34 -0.72,-0.61 -0.32,-0.31 -0.41,-0.39 -0.76,-0.68 -1.56,-1.26 -3.2,-2.42 -4.87,-3.54 -0.58,-0.39 -1.07,-0.74 -1.64,-1.13 -0.57,-0.39 -1.07,-0.76 -1.61,-1.16 -1.47,-1.11 -3.28,-2.7 -4.37,-4.15 -0.4,-0.54 -0.77,-1.07 -1.12,-1.65l-0.74 -1.41c-0.04,-0.1 -0.04,-0.12 -0.09,-0.22 -0.12,-0.25 -0.03,-0.1 -0.16,-0.25 0.01,0.44 0.17,1.01 0.27,1.48 0.34,1.7 0.58,2.55 1.13,4.2 0.64,1.92 1.31,3.32 2.26,4.92 0.8,1.34 2.84,3.88 4.03,4.79l2.92 2.52c1.35,1.06 2.62,2.1 3.96,3.12l2.95 2.38c0.22,0.19 0.29,0.21 0.51,0.41 0.2,0.19 0.25,0.27 0.48,0.45 0.83,0.64 1.54,1.42 2.24,2.17l1.33 1.44c0.55,0.63 1.07,1.35 1.54,2.05 0.4,0.6 1.14,1.99 1.42,2.18 -0.02,-0.88 -0.51,-2.59 -0.51,-5.34l0.18 -5.47c0.07,-0.49 -0.01,-1.01 0.03,-1.51 0.07,-0.81 0.02,-2.01 0.11,-2.86 0.19,-1.74 0.02,-1.5 -0.02,-2.78 -0.14,-4.69 -0.99,-7.22 -2.8,-10.54 -0.48,-0.89 -1.17,-1.84 -1.77,-2.64 -0.85,-1.14 -1.81,-2.16 -2.84,-3.11l-1.64 -1.33c-0.6,-0.45 -1.16,-0.79 -1.81,-1.16 -0.8,-0.46 -3.18,-1.61 -4.31,-1.64l2.04 1.76c1.17,1.23 1.97,2.07 2.85,3.72 1.64,3.05 2.69,8.31 3.58,11.91 1.06,4.22 1.82,6.88 3.44,10.82 0.13,0.31 0.31,0.59 0.4,0.94zm-175.65 35.29l0.21 0c0,-2.63 2.59,-8.02 3.88,-10.18 2.27,-3.78 5.88,-8.58 8.52,-12.52 2.72,-4.06 3.97,-7.6 5.15,-12.39 0.17,-0.7 0.51,-2.29 0.51,-3.08 -0.09,0.11 0,-0.03 -0.13,0.18 -0.89,1.42 -0.14,0.73 -2.02,3.21 -0.8,1.05 -1.21,1.26 -2.03,2.08 -0.78,0.79 -2.57,2.26 -3.64,3.33 -2.82,2.82 -5.74,5.57 -7.57,9.26 -1.15,2.32 -1.58,3.7 -1.99,6.32 -0.12,0.72 -0.23,1.91 -0.47,2.41 -0.49,-0.33 -0.27,-0.35 -0.21,-0.93l0.48 -6.61c0.65,-4.32 -0.51,-10.78 -0.96,-14.95l-0.33 -3.57c0,-0.74 -0.08,-1.15 -0.1,-1.74 -0.04,-1.17 0.29,-4.28 0.54,-5.32 0.3,-1.3 0.87,-3.1 1.52,-4.22 0.24,-0.42 0.48,-0.78 0.71,-1.23 -0.56,0.04 -1.2,1.09 -1.52,1.56 -0.17,0.24 -0.27,0.38 -0.43,0.6 -2.89,3.83 -5.61,9.27 -6.44,14.08 -0.49,2.84 -0.45,3.03 -0.44,5.72 0.01,1.32 -0.17,2.16 0.01,3.88 0.36,3.42 0.99,5.22 2,8.26 0.35,1.05 0.74,1.96 1.13,2.98 1.31,3.44 3.63,9.1 3.63,12.88zm180.99 -26.37l-0 5.95 0.69 7.33c0.01,0.35 0.06,0.27 -0.28,0.36 -0.03,-0.37 -0.15,-0.69 -0.23,-1.1 -0.66,-3.31 -0.68,-4.56 -2.23,-7.72 -0.29,-0.59 -0.68,-1.22 -1.03,-1.74l-3.98 -4.54c-1.2,-1.11 -3.26,-3.06 -4.42,-3.99 -0.34,-0.27 -0.45,-0.36 -0.76,-0.68 -0.3,-0.31 -0.48,-0.39 -0.77,-0.67 -1.61,-1.49 -3.39,-3.42 -4.56,-5.29 -0.2,-0.32 -0.32,-0.64 -0.6,-0.84 0.22,0.96 0.4,1.89 0.64,2.85 0.23,0.94 0.51,1.86 0.81,2.78 0.49,1.48 1.32,3.82 2,5.18 3.25,6.45 6.75,9.65 10.15,14.78 1.46,2.19 2.17,3.31 3.29,5.64 0.74,1.54 0.98,2.26 1.48,3.95l0.7 2.88c0.15,-0.24 1.03,-5.13 1.42,-6.47 1.31,-4.45 1.55,-4.86 3.09,-8.71 1.08,-2.71 1.95,-7.1 1.95,-10.06 0,-4.52 0.03,-5.09 -0.91,-9.65 -0.32,-1.57 -0.86,-3.01 -1.38,-4.47 -1.17,-3.29 -2.55,-5.01 -4.29,-7.61 -0.28,-0.42 -0.5,-0.76 -0.78,-1.17 -0.55,-0.82 -1.17,-1.49 -1.97,-2.03 0.09,0.38 0.42,0.78 0.62,1.12 1.79,2.99 2.16,6.88 2.35,10.37 0.07,1.16 -0.18,2.28 -0.3,3.29 -0.35,3.06 -0.73,7.13 -0.73,10.25zm-192.48 15.9c0,5.46 0.48,8.15 1.68,12.99 1.28,5.13 2.82,7.96 6.08,11.97l3.7 4.51c1.42,1.63 3.06,3.81 4.21,5.64 0.24,0.37 0.39,0.64 0.61,1.03 0.24,0.41 0.35,0.67 0.84,0.8l-0.34 -2.95c-0.62,-4.79 0.3,-8.02 1.53,-12.27 3.01,-10.43 3.56,-11.29 5.04,-21.63 0.18,-1.27 0.75,-6.74 0.28,-8.25l-0.06 -0.15c-0.55,2.38 -1.49,5.2 -2.61,7.04l-4.54 7.57c-1.07,2.13 -1.36,2.88 -2.22,5.07 -1.79,4.52 -2.14,9.77 -0.81,14.52 0.13,0.47 0.48,1.19 0.33,1.52 -0.36,-0.1 -0.24,0.03 -0.55,-0.88 -0.93,-2.71 -1.42,-5.47 -1.97,-8.29 -1.78,-9.11 -8.76,-17.76 -8.76,-26.53l0.11 -2.97c0.04,-0.6 0.2,-0.99 0.2,-1.65 -0.22,0.25 -0.48,1.04 -0.6,1.35 -0.19,0.51 -0.31,0.91 -0.47,1.48 -0.84,2.97 -1.7,6.86 -1.7,10.1zm202.22 -11.18c0,5.58 -0.96,8.59 -2.83,13.28l-2.64 6.08c-2.51,5.23 -3.36,11.3 -4.78,16.97 -0.14,0.55 -0.2,0.64 -0.62,0.92 0,-1.48 1.21,-3.42 1.08,-7.52 -0.01,-0.48 0.05,0.11 0.05,-0.38 0,-4.51 -0.93,-6.5 -2.3,-9.81 -0.26,-0.64 -0.54,-1.05 -0.85,-1.62 -1.45,-2.71 -4.53,-7.29 -5.47,-9.2 -1.3,-2.65 -1.67,-2.92 -2.58,-6.04 -0.04,-0.15 -0.07,-0.26 -0.13,-0.49l-0.17 -0.45c0,0.58 -0.1,0.71 -0.1,1.33 0,4.39 0.39,7.14 1.24,11.38 1.33,6.65 2.45,10.21 4.39,16.54 0.41,1.34 0.93,2.54 1.29,3.95 0.68,2.66 0.69,6.33 0.46,9.17 -0.07,0.91 -0.2,1.73 -0.2,2.78l2.64 -3.72c2.1,-2.8 4.33,-5.48 6.32,-8.15 2.09,-2.8 2.83,-3.35 4.39,-6.9 1.4,-3.19 2.35,-6.54 2.93,-10 1.13,-6.78 0.66,-14.86 -2.23,-21.08l-0.07 -0.14c-0.07,-0.13 -0.06,-0.1 -0.13,-0.18 0,0.47 0.31,1.94 0.31,3.28zm-29.24 70.9l6.48 -4.49c0.48,-0.3 0.87,-0.58 1.36,-0.9l7.99 -5.24 3.07 -2.47c0.25,-0.23 0.37,-0.27 0.62,-0.51 0.21,-0.2 0.35,-0.37 0.56,-0.57 0.25,-0.22 0.36,-0.26 0.62,-0.51 1.49,-1.47 2.88,-2.97 4.19,-4.64l1.85 -2.57c0.58,-0.95 1.12,-1.77 1.65,-2.76 1.2,-2.24 1.81,-3.83 2.59,-6.24 1.37,-4.25 1.32,-7.19 1.14,-11.38 -0.03,-0.66 -0.19,-1.17 -0.21,-1.74l-0.09 0.22c-0.01,0.02 -0.02,0.05 -0.02,0.08 -0.01,0.04 -0.07,0.34 -0.07,0.34 -0.7,4.83 -3.28,9.25 -6.47,12.82 -1.22,1.36 -1.33,1.55 -2.67,2.87l-7.09 7.58 -6.86 9.66c-0.54,0.72 -0.46,0.85 -0.95,0.89l1.13 -2.05c1.7,-2.95 3.18,-7.51 3.18,-11.09 0,-7.22 -1.09,-8.65 -2.02,-15.01 -0.44,-3.03 -0.44,-3.61 -0.44,-6.54 0,-0.68 0.1,-0.89 0.1,-1.54 -0.09,0.11 -0.04,-0.01 -0.16,0.25l-1.72 4.74c-0.91,2.72 -1.98,8.67 -2.12,11.74l-0.51 6.46c-0.13,5.08 -1.25,13.09 -3.02,17.71 -0.17,0.43 -0.31,0.83 -0.5,1.24l-1.14 2.35c-0.26,0.43 -0.47,0.63 -0.47,1.27zm-150.41 -42.27c0,2.76 -0.03,3.13 -0.49,5.88 -0.59,3.57 -1.57,6.74 -1.88,10.43 -0.18,2.14 -0.19,4.48 0.14,6.75 0.47,3.19 1.52,6.35 3.23,9.08 0.31,0.49 0.69,1 0.84,1.62 -1.44,-0.96 -5.16,-7.05 -6.17,-8.4l-1.19 -1.48c-1.37,-1.64 -1.63,-1.87 -3.03,-3.33 -0.22,-0.23 -0.23,-0.28 -0.41,-0.51l-2.3 -2.31c-2.44,-2.44 -4.85,-4.85 -6.91,-7.65l-1.76 -2.75c-0.14,-0.27 -0.2,-0.31 -0.34,-0.58 -0.24,-0.45 -0.38,-0.76 -0.59,-1.26 -0.63,-1.51 -1.27,-3.39 -1.39,-5.07 -0.01,-0.2 0.01,-0.17 -0.04,-0.37l-0.27 5.3c0,4.21 0.85,7.32 2.27,10.86 1.09,2.71 2.97,5.99 4.94,8.2l3.75 3.95c4.81,4.24 8.27,6.5 13.9,10.11l7.47 4.74c-0.12,-0.5 -1.83,-4.09 -2.15,-4.72 -0.84,-1.65 -1.21,-3.23 -1.62,-5.26 -0.4,-1.98 -0.62,-3.85 -0.91,-5.97 -0.55,-4.02 -0.7,-8.68 -1.2,-12.65 -0.87,-6.84 -1.2,-9.96 -3.72,-16.18 -0.16,-0.39 -0.06,-0.36 -0.35,-0.57 0.14,0.6 0.21,1.42 0.21,2.16zm21.34 54.28c-0.97,-0.08 -3.88,-2.26 -4.91,-3.09 -2.04,-1.65 -2.31,-1.92 -4.59,-3.42 -0.85,-0.55 -1.66,-0.96 -2.52,-1.48 -0.43,-0.26 -0.81,-0.43 -1.28,-0.67 -0.49,-0.25 -0.81,-0.46 -1.33,-0.72 -1.84,-0.92 -3.66,-1.73 -5.47,-2.63 -4.64,-2.32 -7.8,-3.83 -11.62,-7.36l-0.98 -0.97c-0.39,-0.44 -0.53,-0.47 -0.99,-1.06 -0.19,-0.24 -0.3,-0.33 -0.47,-0.56 -0.86,-1.13 -2.12,-2.99 -2.73,-4.34l-0.34 -0.68c0,0.93 0.63,2.98 0.93,3.88 0.93,2.77 1.65,4.21 3.1,6.65 2.06,3.47 4.86,6.54 7.79,9.24l5.55 4.2c0.55,0.33 0.95,0.64 1.49,0.97 2.16,1.36 4.3,2.26 6.76,2.99 3.89,1.16 8.2,1.75 12.25,2.43 1.75,0.29 5.35,1 7.07,1.55 0.3,0.1 0.6,0.22 0.93,0.3 -0.27,-0.41 -0.63,-0.57 -1,-0.95l-1.08 -0.97c-0.2,-0.22 -0.2,-0.29 -0.41,-0.52 -0.18,-0.2 -0.34,-0.31 -0.51,-0.51l-0.92 -1.13c-1.1,-1.34 -2.36,-3.46 -3.12,-4.98 -4.02,-8.05 -4.49,-15.11 -9.53,-22.78l-5.06 -7.05c-0.31,-0.38 -0.59,-0.77 -0.91,-1.14 -0.25,-0.28 -0.72,-0.94 -0.95,-1.11 0.07,0.31 1.2,2.64 1.68,4.58 0.44,1.77 0.8,3.33 1.12,5.25 1.02,6.14 1.44,12.29 4.64,17.62 1.28,2.13 2.41,3.6 4.18,5.37 0.49,0.49 1.09,1.17 1.6,1.58l1.66 1.52zm109.06 4.62l3.75 -1.07c4.15,-1.04 13.37,-2.45 16.09,-3.51l3.49 -1.44c2.75,-1.14 7.96,-4.68 10.29,-6.84 3,-2.78 5.74,-5.83 7.87,-9.37 1.61,-2.68 2.92,-5.6 3.61,-8.7 0.13,-0.59 0.35,-1.52 0.35,-2.11 -0.23,0.27 -0.42,0.84 -0.65,1.3 -1.44,2.88 -3.08,4.63 -5.28,6.83 -1.6,1.6 -4.98,3.96 -7,5 -0.44,0.22 -0.9,0.47 -1.33,0.72l-5.34 2.77c-4.64,2.32 -8.56,4.21 -12.55,7.56 -0.39,0.32 -0.68,0.56 -1.07,0.88 -1.03,0.86 -0.58,0.78 -2.22,1.88 -0.46,0.31 -0.81,0.52 -1.4,0.66 0.24,-0.35 1.76,-1.62 2.7,-2.74 0.97,-1.15 1.38,-1.47 2.54,-3.01 1.02,-1.36 2.29,-3.38 2.98,-4.92 3.08,-6.94 2.59,-13.46 4.49,-20.85 0.34,-1.32 0.68,-2.3 1.19,-3.53 0.18,-0.42 0.43,-0.7 0.47,-1.17 -2.46,2.83 -4.75,6.16 -6.83,9.27 -0.55,0.82 -0.99,1.65 -1.44,2.56 -0.49,0.98 -0.87,1.75 -1.31,2.8 -1.2,2.85 -2.18,5.94 -3.18,8.93 -1.6,4.8 -3.32,9.76 -6.38,13.83 -0.57,0.76 -1.15,1.53 -1.81,2.19 -0.51,0.51 -1.69,1.57 -2.03,2.08zm-54.07 -145.79l4.97 0c2.56,0.09 5.11,0.31 7.6,0.67 3.99,0.58 7.52,1.35 11.25,2.49 4.41,1.35 10.54,3.85 14.51,6.21 2.14,1.27 4.27,2.52 6.3,3.96l2.04 1.45c0.45,0.34 0.81,0.64 1.28,0.98 1.32,0.98 2.63,2.02 3.79,3.19 0.26,0.25 0.36,0.29 0.62,0.51l2.87 2.77c0.43,0.42 0.69,0.79 1.13,1.23 3.98,3.97 7.91,9.62 10.68,14.56 0.56,1 1.11,2 1.61,3.01 0.25,0.51 0.47,1.04 0.72,1.54 2.39,4.86 4.01,10.07 5.32,15.31 0.62,2.49 1.12,5.25 1.35,7.88l0.38 4.23c0.1,0.73 -0.03,1.49 0.03,2.22 0.06,0.69 0.1,1.32 0.1,2.16 0,9.88 -2.28,20.19 -6.26,29.04 -0.47,1.05 -0.89,1.98 -1.4,3.01 -0.96,1.92 -2,3.86 -3.17,5.65l-1.74 2.67c-1.17,1.77 -2.49,3.38 -3.79,5.03 -0.68,0.86 -1.33,1.55 -2.02,2.39l-4.36 4.36c-1.49,1.47 -3.13,2.76 -4.76,4.07 -0.83,0.66 -1.64,1.28 -2.53,1.88l-4.02 2.65c-0.45,0.29 -0.88,0.51 -1.35,0.8 -1.86,1.12 -3.79,2.04 -5.72,3 -0.5,0.24 -1.02,0.45 -1.57,0.69 -1.55,0.67 -3.09,1.33 -4.7,1.86l-1.69 0.56c-10.8,3.52 -21.79,4.37 -33.07,2.83 -7.91,-1.08 -15.49,-3.64 -22.58,-7.18 -3.44,-1.72 -6.74,-3.84 -9.89,-6.01 -1.61,-1.11 -3.73,-2.7 -5.11,-4.02l-1.25 -1.11c-0.5,-0.39 -0.72,-0.7 -1.16,-1.09l-4.51 -4.62c-1.43,-1.61 -2.83,-3.27 -4.13,-5 -5.51,-7.36 -9.5,-15.6 -12.07,-24.46 -1.88,-6.47 -2.81,-13.15 -2.81,-19.97l0.1 -2.15c0.04,-0.75 -0.05,-1.47 0.06,-2.2 0.09,-0.61 0.12,-1.51 0.15,-2.11 0.11,-1.91 0.41,-3.91 0.76,-5.81 0.44,-2.44 0.95,-4.82 1.63,-7.19 0.18,-0.63 0.31,-1.13 0.51,-1.74 1.07,-3.25 2.2,-6.46 3.73,-9.51 0.99,-1.97 1.95,-3.94 3.09,-5.83 2.09,-3.46 3.86,-5.88 6.34,-9.05l3.66 -4.14c1.66,-1.68 3.93,-3.87 5.77,-5.32 6.24,-4.91 9.94,-7.1 17.12,-10.47 3.47,-1.63 7.81,-2.92 11.54,-3.85 4.72,-1.18 9.7,-1.86 14.69,-2.03zm-37.52 114.63c0.33,0.21 0.54,0.53 0.87,0.82l2.3 2.01c3.23,2.61 4.88,3.97 8.71,6.17 0.38,0.22 0.73,0.43 1.12,0.62 0.41,0.2 0.72,0.41 1.13,0.62l3.55 1.69c4.91,2.05 9.51,3.52 14.89,4.3 2.92,0.42 4.4,0.58 7.52,0.58l0 11.49c-0.42,0 -0.53,-0.08 -0.92,-0.1 -1.18,-0.06 -1.43,0.03 -3,-0.17 -0.69,-0.09 -1.38,-0.13 -1.95,-0.2 -9.4,-1.19 -19.1,-4.19 -27.24,-9.08 -4.42,-2.66 -6.02,-3.75 -10.04,-6.99l-4.55 -4.07 7.62 -7.67zm50.15 4.39c0,0.6 0.62,0.71 1.31,0.85 1.03,0.2 2.14,0.41 2.98,1.13 0.27,0.23 0.26,0.31 0.46,0.56 0.25,0.3 0.39,0.28 0.59,0.54 -0.16,0.68 -2.57,2.49 -0.86,3.32 0.39,0.19 0.53,0.25 0.96,0.37 0.42,0.11 1.74,0.43 1.95,0.72 -0.53,0.04 -2.57,0.69 -3.43,0.88 -3.85,0.84 -7.64,1.48 -11.76,1.48l0 -10.87c3.34,0 6.9,-0.72 7.59,-0.72 1.19,0 0.21,1.41 0.21,1.74zm28.42 -4.31c-0.8,-0.19 -1.58,0.16 -1.18,-0.65l0.77 -1.51c0.35,0.09 1.13,0.92 1.33,1.23 -0.19,0.27 -0.57,0.4 -0.92,0.92zm-76.64 -1.95c0.34,-0.51 6.28,-6.36 6.36,-6.36 0.78,0 2.7,1.31 3.77,1.56 0.5,0.12 0.64,-0.02 1.06,0.27 0.24,0.17 0.46,0.39 0.74,0.59l2.33 1.67c5.44,3.59 11.81,6.1 18.29,7.05 2.16,0.32 3.35,0.44 5.61,0.44l0 10.87c-6.71,0 -13.62,-1.57 -19.7,-4l-2.37 -1.01c-0.82,-0.33 -1.48,-0.71 -2.28,-1.11 -1.89,-0.95 -4.7,-2.55 -6.39,-3.77l-6.58 -5.32c-0.31,-0.31 -0.61,-0.55 -0.85,-0.9zm9.54 -9.44c0.12,-0.44 0.54,-0.69 0.85,-1l6.54 -6.39c0.25,0.37 0.49,0.53 0.84,0.8 1.24,0.99 2.23,2.02 3.93,3.05 0.41,0.25 0.69,0.43 1.08,0.66 1.47,0.88 2.99,1.62 4.61,2.27 0.79,0.32 1.7,0.66 2.58,0.91 1.66,0.46 2.53,0.69 4.25,0.98 0.37,0.06 1.29,0.15 1.49,0.25 -0.42,0.57 -1.43,0.51 -2.09,0.88 -0.45,0.26 -0.36,0.44 -0.66,0.78 -0.33,0.39 -0.61,0.24 -1.24,0.3 -0.24,0.03 -1.03,0.07 -1.31,0.13 -0.29,0.06 -0.79,0.32 -1.09,0.45 -0.51,0.22 -2.13,0.7 -2.13,0.95 0,0.84 0.29,1.2 -0.28,1.78 -0.13,0.13 -1.67,1.24 -0.61,2.09 0.92,0.74 0.71,0.35 1.6,1.68 -2.3,-0.54 -5.68,-1.97 -7.76,-3.01 -0.88,-0.44 -1.61,-0.82 -2.4,-1.29 -2.03,-1.22 -4.56,-2.89 -6.28,-4.49 -0.22,-0.21 -0.29,-0.22 -0.51,-0.41 -0.18,-0.16 -0.29,-0.29 -0.46,-0.46 -0.33,-0.34 -0.7,-0.52 -0.95,-0.9zm31.19 -0.72l0.27 -0.14c0.15,-0.07 0.24,-0.1 0.35,-0.16 0.85,-0.41 0.37,-0.82 0.89,-1.07 0.34,-0.16 0.52,0.04 0.85,0.04 0.74,0 1.53,-0.82 1.85,-0.82 0.52,0 0.71,0.4 1.17,0.57 0.37,0.14 1.11,0.26 1.5,0.35l-2.36 0.57c-0.33,0.01 -0.5,0.15 -0.75,0.22 -0.65,0.19 -2.99,0.45 -3.76,0.45zm21.44 -3.18l0.82 -0.1c0.32,0 1.75,1.55 1.95,1.85 -1.95,0 -1.95,-0.31 -2.77,-0.31 0.16,-0.69 0,-0.65 0,-1.44zm-15.39 0.2c0.1,-0.13 -0.02,-0 0.14,-0.16l0.17 -0.14c0.57,0.23 -0.41,-0.3 0.11,0.1 0.19,0.14 0.02,0.06 0.16,0.12 0.52,0.21 -0.42,-0.27 1.04,0.21 0.64,0.21 1.57,-0.09 2.48,0.39 -0.2,0.28 -0.12,0.18 -0.49,0.33 -0.96,0.39 -0.68,0.26 -1.15,0.08 -0.46,-0.17 -0.77,0.22 -2.15,-0.52 -0.43,-0.23 -0.16,-0.1 -0.32,-0.4zm-0.2 5.54c0.24,-0.36 0.41,-0.51 0.41,-1.13 0.63,-0.05 1.42,-0.36 2.03,-0.53 0.62,-0.17 1.26,-0.42 1.9,-0.67 3.26,-1.27 5.5,-2.63 8.25,-4.68 0.53,-0.4 0.96,-0.86 1.47,-1.2 0.24,0.46 0.51,1.61 0.51,2.16 0,0.51 -0.97,0.97 -1.36,1.21 -0.99,0.61 -1.28,1.94 -5.2,2.7 -2.36,0.45 -1.32,1.5 -2.02,1.88 -0.2,0.11 -0.89,0.21 -1.1,0.23 -0.4,0.05 -0.85,0.13 -1.14,0.08 -1.4,-0.27 -2.03,-0.05 -3.75,-0.05zm-57.76 -8.11c0.84,0.45 1.79,1.63 2.89,2.45l1.57 1.1c0.96,0.6 0.85,0.51 1.7,-0.06 0.93,0.49 1.25,0.79 1.98,1.51 0.8,0.8 2.11,2.4 3.34,3.64 0.66,0.67 0.83,1.31 2.18,1.31l-4.08 4.13c-0.65,-0.45 -4.03,-4.79 -4.66,-5.65l-2.89 -4.5c-0.42,-0.77 -1.85,-3.23 -2.02,-3.93zm16.21 -1.44l-16.21 1.44 16.21 -1.44zm0 0l-0.1 -0.1 0.1 0.1zm-0.1 -0.1l-0.2 -0.1 0.2 0.1zm-0.2 -0.1l-0.1 -0.1 0.1 0.1zm-0.1 -0.1l-0.1 -0.1 0.1 0.1zm-0.1 -0.1l-0.2 -0.1 0.2 0.1zm-0.2 -0.1l-0.1 -0.1 0.1 0.1zm51.4 2.46c-1.08,0 -0.7,-1.01 -0.5,-2.15 0.11,-0.64 0.3,-0.98 1.02,-1.04l0 0.41c0.56,-0.13 1.11,-0.09 1.33,-0.92 0.35,0.09 1.03,0.82 1.23,1.13 -1.19,0.28 -1.35,1.33 -2.18,2.02 -0.15,0.12 -0.72,0.54 -0.89,0.54zm1.23 -3.89l-52.74 1.32 52.74 -1.32zm0 0c0.16,-0.33 0.09,-0.55 0.41,-0.11l-0.41 0.11zm-52.74 -0.22l-0.1 -0.1 0.1 0.1zm55.61 -0.72l-55.71 0.61 55.71 -0.61zm0 0c0.41,-0.2 0.69,-0.31 1.13,-0.21 -0.01,0.46 -0.15,0.63 -0.31,0.92 -0.38,-0.1 -0.63,-0.43 -0.82,-0.72zm-22.57 0.82c0,0.73 0.1,0.18 0.39,0.84 0.18,0.42 -0.08,0.35 0.53,0.49l0 0.72c-0.38,0.03 -0.33,0.04 -0.92,0.92 0.31,0.07 0.58,0.18 0.92,0.21 -0.38,0.27 -0.65,0.16 -1.03,0.72 0.54,0 0.57,-0.09 1.03,-0.1l0 0.92c-0.44,0.04 -0.18,-0.01 -0.51,0.21 0.18,0.34 0.08,0.31 0.51,0.41l0 2.05c-0.29,-0.14 -2.06,-0.41 -2.57,-0.41 -0.48,0 -0.64,0.18 -0.73,0.6l-0.29 1.04c-2.25,0 -7.01,-1.9 -9.06,-2.94 -0.38,-0.19 -0.53,-0.32 -0.92,-0.51 -1.2,-0.61 -5.32,-3.5 -6.02,-4.55l8.64 -8.59c0.83,0.54 1.47,1.35 3.36,2.43 0.2,0.12 0.4,0.2 0.6,0.32 0.17,0.09 0.16,0.1 0.33,0.18 0.14,0.07 0.2,0.08 0.36,0.16 1.77,0.82 4.22,1.61 6.29,1.61l0 2.36c-0.35,0.01 -0.5,0.03 -0.68,0.24 -0.11,0.13 -0.24,0.46 -0.24,0.68zm11.08 -3.49c0,0.5 0.55,0.32 0.72,1.03 -0.27,0.13 -0.92,-0.08 -0.92,0.61 0,0.3 0.68,1.18 -0.04,1.71 -0.29,0.21 -0.54,0.08 -0.97,0.36 -0.3,0.19 -0.43,0.42 -0.71,0.63 -0.43,0.32 -0.52,0.08 -1.05,0.08 -0.12,0 -1.5,0.75 -1.12,-0.7 0.16,-0.6 -0.09,-0.58 -0.22,-1.14 -0.81,0.22 -1.03,0.85 -0.54,1.67 0.23,0.39 0.24,0.3 0.24,0.89 -1.84,0.43 -1.21,1.1 -2.5,1.81 -0.39,0.22 -0.44,0.42 -0.79,0.65 0,-1.09 0.15,0.07 0.24,-1 0.12,-1.41 -0.27,0.37 -0.25,-1.67l0 -4.72c0.78,0 0.83,-0.09 1.23,-0.1 0.11,0.47 0.37,0.92 0.33,1.4 -0.02,0.25 -0.45,0.19 0.18,0.25 0,1.46 1.1,0.6 1.25,0.43 0.22,-0.25 0.21,-0.42 0.49,-0.64l1.04 1.73c0.48,0.83 0.68,0.63 1.11,0.02 0.83,-1.18 0.28,-0.41 0.24,-1.66 -0.01,-0.4 0.28,-0.64 0.28,-0.91 0,-0.84 -0.85,-0.72 -0.92,-1.64 0.25,-0.13 0.73,-0.34 1.03,-0.41 0.18,0.27 0.27,0.57 0.52,0.71 1.43,0.78 1.11,-1.02 2.45,-1.02 -0.26,0.99 -1.33,0.88 -1.33,1.64zm-2.56 -4.51c0.65,0 0.49,-0.02 0.72,0.41 -0.3,0.07 -0.48,0.18 -0.72,0.31 -0,-0.02 -0.04,-0.32 -0.04,-0.32 -0,-0.17 0.04,-0.1 0.04,-0.4zm43.81 36.94l-8.54 -8.49c0.5,-0.35 2.86,-3.01 3.41,-3.72 2.21,-2.85 3.19,-4.02 5.11,-7.2l1.9 -3.44c0.42,-0.85 0.78,-1.53 1.17,-2.42 2.45,-5.73 3.89,-9.89 4.81,-16.43 0.14,-1.02 0.33,-2.23 0.35,-3.24 0.03,-1.03 0.21,-2.34 0.21,-3.39l11.39 0c0,5.77 -0.55,10.85 -1.91,16.25 -1.02,4.07 -1.95,7 -3.6,10.86 -0.23,0.54 -0.45,0.97 -0.66,1.5 -0.83,2.04 -3.12,6.08 -4.34,8.08 -0.28,0.46 -0.53,0.77 -0.81,1.24 -0.8,1.36 -4.33,6.04 -5.38,7.14l-2 2.21c-0.37,0.37 -0.68,0.77 -1.1,1.05zm-37.45 -45.86c0.45,0.12 0.17,0.2 0.76,0.37 0.47,0.13 0.56,0.02 0.68,0.45 -0.32,-0.21 -0.4,-0.28 -0.92,-0.31 -0.51,-0.02 -0.73,-0.09 -1.13,-0.1l0.15 -0.06c0.12,-0.05 0.12,-0.03 0.22,-0.09 0.23,-0.13 0.16,-0.01 0.25,-0.26zm-1.03 0.2c0.52,0 0.17,-0 0.31,0.1 -0.54,0 -0.15,0 -0.31,-0.1zm0 0l-0.51 0 0 -0.1c0.08,0 0.23,-0.01 0.3,0.01 0.2,0.05 0.11,0.03 0.21,0.09zm-1.33 -0.2c0.12,-0.12 0.58,0.17 0.13,0.04 -0.01,-0 -0.3,0.14 -0.13,-0.04zm-0.31 -0.1l0.22 0.06 -0.22 -0.06zm36.12 27.91c-0.13,-0.55 -0.35,-1.09 -0.49,-1.66 -0.13,-0.51 -0.31,-1.27 -0.84,-1.42 0.03,-0.14 0.64,-1.13 -0.51,-1.13 -2.02,0 -0.62,2.25 -1.89,4.37 -0.43,0.71 -1.05,1.41 -0.37,2 0.18,0.15 0.27,0.19 0.62,0.2 0,1.05 -0.16,1.59 0.41,1.74 -0.17,0.25 -0.51,0.65 -0.74,0.9 -0.6,0.63 -1.92,2.28 -2.54,2.69l-1.62 -1.56c0.75,-1.51 1.04,-1.81 0.02,-2.48 -0.33,-0.22 -0.39,-0.42 -0.66,-0.67 -0.32,0.03 -0.77,0.19 -1.03,0.18 -0.77,-0.01 -0.28,-0.43 -1.33,-0.18 -0.39,-1.65 1.05,-4.62 1.58,-6.73l0.44 -2.23 2.02 -3.32c2.76,-5.06 4.6,-10.02 5.45,-15.89l0.47 -4.97c1.66,0 2.95,-0.1 4.62,-0.1l6.16 0c0,2.11 -0.1,3.18 -0.32,5.21 -0.15,1.39 -0.42,2.96 -0.68,4.25 -0.85,4.22 -1.94,7.49 -3.5,11.27l-5.25 9.53zm-35.81 -28.42c0.05,-0.05 0.58,0.06 0.18,0.06 -0.19,0 -0.33,0.09 -0.18,-0.06zm-78.69 0.82c0,2.59 0.19,2.8 0.61,5.34 0.08,0.51 0.21,0.79 0.31,1.23l0.2 0c0,-1.06 -0.3,-1.54 0.15,-3.55 0.1,-0.46 0.16,-0.62 0.33,-1 0.16,-0.34 0.34,-0.66 0.34,-1.09 0.27,0.11 0.19,-0.21 0.21,0.41 0.45,-0.3 0.25,-0.51 1.03,-1.03 0.08,0.33 0.14,0.35 0.27,0.66 0.41,1.02 -0.1,0.54 0.92,1.95 0.53,0.73 0.62,2.19 1.48,2.42 0.47,-0.98 -0.11,-2.11 0.51,-2.56 0.44,0.32 0.44,1.34 1.02,2.47l1.1 1.48c0.22,0.31 0.19,0.11 0.34,0.16 0.01,0.54 0.08,0.81 0.51,0.92 0,-1.75 -0.21,-1.8 0.41,-1.95l0.3 2.26c0.11,0.83 0.22,1.41 1.14,1.43 0.11,1.31 1.95,6.55 2.4,7.75 1.04,2.73 2.67,6.05 4.17,8.55 0.32,0.53 0.61,1.04 0.98,1.58 1.42,2.11 4.27,6.21 6.07,7.99 0.25,0.24 0.46,0.42 0.64,0.69l-7.67 7.72c-0.31,-0.44 -0.61,-0.76 -0.98,-1.13l-1.43 -1.64c-4.4,-4.74 -9.19,-13.13 -11.49,-18.46 -0.22,-0.51 -0.4,-0.95 -0.6,-1.45 -2.04,-5.03 -3.67,-10.96 -4.4,-16.32l-0.61 -5.54c-0.02,-0.82 -0.1,-1.29 -0.1,-2.06l2.26 0c0,0.96 -0.41,1.64 -0.41,2.77zm104.75 -2.56l6.05 0c0,4.88 -1.14,8.88 -2.58,13.22 -0.33,0.99 -1.58,3.92 -2.1,4.78 -0.22,0.36 -0.94,2 -1.23,2.15 -0.39,0.21 -0.34,-0.12 -0.72,0.4 -0.32,0.44 -0.44,1.03 -0.7,1.56 -0.55,1.09 -0.99,1.82 -1.73,2.78 -0.11,0.14 -0.41,0.53 -0.52,0.62 -0.95,0.8 0.17,-0.72 -2.25,0.71 -1.76,1.04 -1.43,1.08 -2.7,-0.19 -0.37,-0.37 -0.77,-0.68 -1.05,-1.1 0.42,-0.1 1.35,-0.41 1.69,-0.35 1.37,0.25 1.53,1.28 3.16,-2.8 0.79,-1.98 0.52,-1.72 1.09,-3.32 0.31,-0.86 0.2,-3.68 -0.4,-3.68 -0.48,0 -0.82,0.89 -1.26,1.1 -1.07,0.5 -0.38,-0.56 -0.85,1.61 -0.14,0.65 -0.5,1.2 -1.11,1.35 -0.5,0.13 -0.24,-0.09 -1.03,0.21 -0.37,0.14 -0.55,0.14 -0.77,-0.17 0.14,-0.51 0.68,-0.59 1.16,-0.79 1.64,-0.69 1.45,-1.59 1.86,-2.15 0.17,-0.24 0.38,-0.29 0.58,-0.45 0.72,-0.56 1.32,-2.59 1.6,-3.43 0.23,-0.69 0.21,-0.91 0.68,-1.38 1.53,-1.51 0.41,-0.95 1.19,-1.19 0.78,-0.24 0.63,-1.09 0.63,-1.81 1.52,0 1.34,0.15 2.32,-0.45 0.33,-0.2 0.56,-0.35 0.88,-0.55 0.46,-0.29 1.42,-0.89 1.42,-1.56 0,-0.5 -0.33,-1.19 -0.58,-1.47 -0.5,-0.55 -0.97,-0.03 -1.46,-0.7 -0.53,-0.72 -0.8,-2.11 -1.25,-2.96zm-54.28 -0.2l0.35 1.5c0.09,0.43 0.26,0.94 0.37,1.37 0.23,0.92 0.49,1.81 0.86,2.63 0.68,1.52 0.95,2 1.83,3.3 0.21,0.3 0.61,0.72 0.7,1.05l-8.59 8.64c-0.59,-0.4 -2.41,-2.93 -2.86,-3.66 -2.51,-4.1 -4.66,-9.51 -4.66,-14.83l9.75 0c0.3,0 0.35,0.28 0.49,0.53 0.15,0.26 0.28,0.47 0.43,0.7 1.46,-0.98 0.42,-0.51 1.13,-0.51 0.44,0 0.32,-0.47 0.21,-0.72zm-16.52 21.54l0.31 0c-0.2,-0.37 -0.3,-0.75 -0.52,-1.12 -0.2,-0.34 -0.42,-0.67 -0.61,-1.03l0.61 0.12c0.17,-1.91 1.34,-0.61 -0.11,-4.51 -0.51,-1.37 -0.89,-2.15 -0.66,-3.67l0.35 -4.06c0.09,-0.78 -0.95,-3.54 -0.27,-5.19 0.42,-1.02 0.21,-1.27 -0.34,-2.08 0.62,0.05 0.03,0.22 0.6,0.08 0.76,-0.17 1.89,-0.08 2.68,-0.08 0.59,7.11 2.34,12.53 6.6,18.23l1.61 1.98 -5.35 5.32c-0.62,0.49 -1.21,1.35 -1.83,1.76 -0.33,-0.24 -1.56,-2.06 -1.73,-2.69 -0.18,-0.65 -0.33,-1 -0.56,-1.59 -0.59,-1.47 -0.2,-0.58 -0.79,-1.47zm-17.75 -21.54l4.1 0c-0.52,0.97 -0.63,0.82 -1.74,0.82 -0.3,0 -0.41,-0.38 -1.13,-0.41 -0.68,-0.03 -0.93,0.03 -1.23,-0.41zm43.09 -5.54l-20.52 0 20.52 0zm0.51 -0.92l-0.51 0.92 0.51 -0.92zm0 0c-0.1,0.39 -0.2,0.26 -0.31,0.72l-0.2 -0.61c0.28,-0.02 0.28,-0.05 0.51,-0.1zm0 0l0.2 -0.12 -0.2 0.12zm-22.98 -2.26c0,0.26 -0.62,3.49 -0.71,4.72 -0.05,0.62 -0.11,1.18 -0.11,1.74l-2.98 0c-0.02,-0.25 -0.13,-0.96 -0.19,-1.15 -0.25,-0.82 -0.72,-0.75 -0.18,-1.28 0.01,-0.02 0.04,-0.04 0.05,-0.05l0.25 -0.26c0.22,-0.26 0.31,-0.54 0.35,-0.88 0.14,-1 -0.16,-1.36 0.29,-2.17 0.86,-1.54 1.9,-0.67 2.4,-0.46 0.51,0.21 0.48,0.01 0.82,-0.22zm71.41 2.26c0.4,-0.29 0.56,-1.64 0.67,-2.2 0.16,-0.83 0.6,-1.65 0.66,-2.32l0.21 0c0,0.57 1.03,4.61 1.03,8.92l-6.98 0c-0.09,-1.09 -0.71,-0.34 0.06,-1.68 0.17,-0.29 0.18,-0.49 0.31,-0.81 0.39,-0.95 1.06,-0.44 1.06,-1.2 0,-0.58 -0.77,-0.84 -0.35,-1.58 0.83,-1.47 1.79,-0.38 2.12,-1.28 0.09,-0.25 0.12,-0.59 0.25,-0.87 0.3,-0.63 0.75,-0.7 0.75,-1.61l0.1 0c0,1.71 -0.22,3.24 0.1,4.62zm-69.46 0.92l-1.95 -3.18 1.95 3.18zm0 0c0,-0.74 0.67,-3.89 0.87,-4.15 0.31,-0.41 0.48,0.06 0.78,-0.96 0.58,-1.9 -0.77,-0.42 1.63,-4.94 1.33,0 1.61,0.31 2.06,1.02 0.46,0.73 0.87,0.24 0.81,1.32 -0.02,0.42 -0.03,0.05 -0.02,0.39 0.07,1.72 -0.86,1.53 -0.98,2.63 -0.05,0.45 0.11,0.37 0.09,0.9 -0.02,0.37 -0.5,1.07 -0.69,1.47 -0.81,1.77 -0.8,0.71 -1.92,1.26 -0.32,0.16 -0.43,0.26 -0.78,0.35 0,0.57 0.09,0.59 0.31,0.92 0.96,0 1.13,-0.31 1.95,-0.32 1.47,-0.01 1,2.03 1.92,2.7 0.5,0.37 1.28,0.17 1.67,0.69l-8 0c0,-1.83 0.15,-1.29 1.03,-3.08 0.26,-0.53 1.22,-2.78 0.1,-3.08 0,1.13 -0.06,1.46 -0.48,2.29 -0.07,0.14 -0.08,0.17 -0.14,0.27 -0.01,0.02 -0.03,0.05 -0.04,0.07l-0.17 0.24zm51.09 -13.03c-0.36,-0.08 -0.62,-0.31 -1.03,-0.31 -0.56,0 -0.08,0.17 -0.66,0.04 -0.33,-0.07 -0.33,-0.17 -0.68,-0.25 0.17,-0.64 1.4,-1.34 1.95,-2.15 1.14,0.27 0.77,-0.39 2.54,1.98 0.35,0.48 1.66,2.26 1.77,2.74 -0.56,-0.01 -0.64,-0.24 -1.54,-0.72 0.03,1.15 1,1.17 1.03,2.16 -0.65,-0.15 -1.43,-0.55 -1.74,-1.03 0.28,-0.02 0.28,-0.05 0.51,-0.1l0 -0.31c-0.22,-0.06 -0.58,-0.32 -0.75,-0.49 -0.58,-0.57 -0.04,-0.7 -0.07,-0.85l-0.12 -0.82c1.59,-0.8 -0.27,-1.44 -0.7,-1.44 -0.58,0 -0.38,0.96 -0.51,1.54zm-44.22 -2.15c0.03,0.02 1.52,1.13 0.72,1.13 -0.81,0 -0.54,-0.35 -1.23,-0.51 0.12,-0.18 0.35,-0.49 0.51,-0.62zm3.49 0.21c0.46,0.04 0.85,0.25 1.38,0.37 0.67,0.14 0.98,0.09 1.29,0.55 -0.86,0 -0.87,-0.15 -1.55,-0.2 -0.43,-0.03 -0.6,0.05 -1.12,-0.72zm17.96 -10.57l0 12.31c-2.37,0 -5.22,1.03 -7.18,2.05 -0.51,0.26 -1.53,1.09 -2.05,1.13l-0.29 -1.55c-0.07,-0.34 -0.35,-1.09 -0.51,-1.33 -0.22,-0.35 -1.67,-1.53 -2.17,-1.53 -1.12,0 -0.91,0.47 -1.91,-0.14 -1.21,-0.75 -0.74,-0.49 -1.79,-0.47 -0.05,-0.64 -0.31,-0.64 -0.83,-0.52 -0.96,0.22 -0.5,-0.07 -1.13,-0.18 -0.75,-0.13 -0.73,0.24 -1.25,-0.29 -0.28,-0.28 -0.47,-0.54 -0.79,-0.75 0.28,-0.42 1.38,-1.35 1.8,-1.69l2.02 -1.57c2.61,-1.95 6.75,-3.76 9.82,-4.54 0.91,-0.23 2.03,-0.46 2.99,-0.6l3.27 -0.32zm-34.78 23.8c0,0.56 0.89,0.73 0.36,1.49 -0.46,0.65 -0.82,-0.05 -1.28,-0.05 -0.28,0 -0.4,0.09 -0.66,0.17 -1.28,0.38 -0.75,-0.67 -1.19,-1.49 -0.38,-0.71 -0.23,-1.08 -0.5,-1.66 -0.2,-0.43 -0.31,-0.6 -0.72,-0.82 -0.55,0.37 -0.25,0.45 -0.62,0.72 -0.08,-0.97 -0.44,-1.45 -1.23,-0.92 0.4,-1.7 0.62,-2.72 1.17,-4.37 1.38,-4.18 3.05,-7.74 5.56,-11.37 0.54,-0.78 1.04,-1.43 1.62,-2.17 0.3,-0.38 0.55,-0.64 0.84,-1.01 0.35,-0.44 0.55,-0.62 0.86,-1.09l7.41 7.36c-1.36,1.97 -2.58,3.02 -4.06,5.94 -0.2,0.4 -0.35,0.69 -0.55,1.1 -0.67,1.36 -1.7,1.27 -2.4,2.63 -0.55,1.07 -0.19,1.13 -1.57,1.82 -0.42,0.21 -0.77,0.23 -1.04,0.6 -0.58,0.81 -0.97,1.19 -1.43,1.95 -0.14,0.23 -0.57,0.93 -0.57,1.17zm52.12 -15.39l0 0.51c1.29,0 0.51,-0.41 2.26,-0.41 0.43,0 0.05,0.22 0.51,0.41 -0.3,0.45 -0.85,0.9 -1.26,1.31 -0.23,0.23 -0.39,0.38 -0.61,0.62 -1.03,1.07 -2.01,0.1 -2.75,1.15 -0.33,0.46 -0.15,0.34 -0.63,0.71 -1.04,0.8 -0.18,1.27 0.02,1.56 -0.37,0.25 -0.6,0.59 -0.94,0.9 -0.33,0.3 -1.14,0.43 -1.42,0.43 -0.5,0 -0.95,-0.33 -1.29,-0.56 -0.51,-0.34 -0.92,-0.23 -1.25,-0.6 -0.24,-0.27 -0.09,-0.31 -0.44,-0.48 -0.24,-0.12 -0.46,-0.09 -0.81,-0.11 -0.69,-0.04 -0.85,-0.36 -1.44,-0.41 0.98,-1.34 2.26,0.15 2.26,-4 -0.65,0.05 -1.02,0.47 -1.48,0.78 -0.56,0.37 -1.12,0.28 -1.19,1.07 -0.28,0.02 -0.28,0.05 -0.51,0.1 0,0.6 0.07,0.79 0.1,1.23 -0.47,0.41 -0.25,0.35 -1.26,0.13 -0.86,-0.19 -2.09,-0.44 -2.95,-0.44l0 -12.31 2.99 0.29c3.79,0.54 5.67,1.3 9.04,2.76 1.23,0.53 4.11,2.38 5.17,3.24 0.5,0.4 1.48,1.17 1.78,1.61 -0.64,-0.15 -1.51,-0.82 -2.15,-0.82 -0.47,0 -0.65,0.31 -1,0.53 -0.41,0.25 -0.74,0.2 -0.74,0.8zm17.34 -2.05c0.38,0.25 0.91,0.72 1.03,1.23 -0.34,-0.09 -0.44,-0.26 -0.62,-0.51 -0.15,-0.22 -0.33,-0.43 -0.41,-0.72zm1.54 -0.62c0.27,0.18 0.73,0.88 0.82,1.23 -0.43,0 -0.41,-0.04 -0.72,0.1 0,-0.63 -0.04,-0.83 -0.1,-1.33zm-1.54 0.62c-0.54,-0.36 -0.49,-0.75 -1.33,-0.82l1.77 2.23c0.31,0.31 0.71,0.77 1.31,0.73 0.58,-0.04 0.78,-0.66 1.13,-0.91l1.4 2.6c1.09,2.19 1.59,3.25 2.41,5.6 0.31,0.87 -0.02,0.47 -0.02,1.55 0,0.91 -0.25,1.03 -0.31,1.75 -0.16,-0.23 -0.21,-0.4 -0.62,-0.62 -1.49,0.79 -0.13,1.5 -1.23,3.59 -0.66,0 -0.64,-0.05 -1.03,-0.31 0,-1.33 -0.17,-1.33 0.13,-2.54 0.25,-1.01 -0.05,-1.15 -0.77,-1.95 -0.31,-0.35 -1.07,-1.43 -1.74,-0.76 -0.35,0.35 -0.29,1.74 -0.6,2.38 -1.09,-0.02 -1.25,-1.15 -1.44,-1.54 1.69,0.39 0.64,-0.78 0.36,-0.88 -0.89,-0.31 -0.31,0.76 -1.56,-0.9 -1.14,-1.51 -1.44,-2.26 -3.67,-2.79 -0.91,-0.22 -0.67,-0.5 -1.88,-2.12l-2.37 -2.96c0.3,-0.45 4.52,-4.55 5.36,-5.41 0.38,-0.39 0.33,-0.54 1,-0.54 0,-0.57 0.02,-0.5 0.33,-0.8 0.22,-0.21 0.36,-0.38 0.6,-0.53 0.85,0.57 3.54,4.08 4.1,4.92 -0.48,0.13 -0.41,0.43 -0.41,1.03 -0.55,-0.05 -0.48,-0.18 -0.82,-0.41 -0.09,0.19 -0.08,0.13 -0.1,0.41zm-81.05 22.47l-8.51 0c0,-7.18 2.02,-16.44 5.23,-22.78 0.2,-0.39 0.33,-0.71 0.51,-1.13l3.49 -6.05c0.84,-1.27 1.75,-2.49 2.67,-3.69 0.22,-0.29 0.44,-0.55 0.69,-0.85 0.28,-0.35 0.51,-0.58 0.75,-0.89 0.33,-0.43 1.09,-1.34 1.54,-1.64l7.62 7.57 -4.09 5.3c-0.22,0.33 -0.35,0.59 -0.55,0.88 -3.39,5.09 -5.65,11.66 -6.61,17.8 -0.19,1.22 0.02,1.28 -0.9,1.87 -0.62,0.41 -0.81,0.81 -1.07,1.59 -0.3,0.9 -0.32,2.02 -0.75,2.02zm80.23 -30.37l3.05 -3.1c0.45,0.31 0.54,0.62 1.05,0.85 0.59,0.27 0.8,0.14 1.37,0.58 1.51,1.15 1.2,0.16 3.33,2.32 0.58,0.59 0.42,0.28 0.98,0.97 0.28,0.34 1.7,1.67 2.12,1.67 0.41,0 0.81,-0.34 1.13,-0.51 0,-0.5 0.38,-1.99 0.51,-2.26 0.89,0.21 0.9,0.58 1.29,1.17 4.19,6.38 7.67,16.53 8.24,24.08 0.06,0.76 0.09,1.61 0.19,2.28 0.1,0.75 -0.15,1.86 0.13,2.43l-10.88 0c0,-1.58 -0.19,-3.54 -0.39,-4.94 -0.24,-1.63 -0.48,-3.08 -0.82,-4.52 -0.69,-2.92 -1.61,-5.54 -2.72,-8.05 -3.67,-8.25 -7.96,-11.78 -8.58,-12.96zm-55.4 8.52l-7.41 -7.36 2.72 -2.47c6.24,-5.43 14.36,-8.66 22.53,-9.69l3.71 -0.29 0 10.46c-4.36,0 -9.49,1.52 -12.41,2.98 -3.34,1.66 -5.32,2.81 -8.13,5.41 -0.39,0.37 -0.69,0.48 -1,0.95zm49.56 -9.85c0.62,-0.15 0.63,0.12 1.21,0.64 0.41,0.36 0.74,0.54 1.05,1l-0.53 0.6c-0.34,-0.23 -1.09,-1.14 -1.39,-1.55 -0.25,-0.34 -0.18,-0.35 -0.33,-0.69zm0.62 2.36c-0.12,-0.49 -0.07,-0.16 0,-0.31 0.37,0.19 0.38,0.16 0.61,0.51 -0.11,0.4 -1.17,1.32 -1.51,1.67l-3.18 3.18c-0.45,0.45 -1.21,1.31 -1.67,1.62 -0.24,-0.35 -0.52,-0.58 -0.88,-0.86 -3.5,-2.74 -5.97,-4.45 -10.47,-5.95 -2.85,-0.95 -6.06,-1.71 -9.27,-1.71l0 -10.46c3.35,0 7.24,0.81 10.4,1.6 2.04,0.51 6.77,2.35 8.64,3.47 0.43,0.26 0.81,0.46 1.24,0.71 0.48,0.27 0.83,0.48 1.28,0.77l1.24 0.81c0.23,0.17 0.37,0.26 0.61,0.42 0.25,0.16 0.38,0.29 0.6,0.43 -0.12,0.22 -0.58,1.07 -0.59,1.25 -0.04,0.63 2.3,2.52 2.95,2.86zm16.41 -4.51l0.12 0.2 -0.12 -0.2zm0 0l-0.1 -0.1 0.1 0.1zm-0.1 -0.1l-0.1 -0.1 0.1 0.1zm-0.1 -0.1l-0.1 -0.1 0.1 0.1zm-0.21 -0.31l0.1 0.21 -0.1 -0.21zm0 0l-0.1 -0.1 0.1 0.1zm-0.1 -0.1l-0.1 -0.1 0.1 0.1zm-0.31 -0.41l0.21 0.31 -0.21 -0.31zm0 0l-0.1 -0.1 0.1 0.1zm-0.1 -0.1l-9.03 0.1 9.03 -0.1zm0 0l-0.1 -0.1 0.1 0.1zm-0.51 -0.62l0.41 0.51 -0.41 -0.51zm0 0l-0.1 -0.1 0.1 0.1zm-0.1 -0.1l-0.1 -0.1 0.1 0.1zm-0.1 -0.1l-0.1 -0.1 0.1 0.1zm-0.1 -0.1l-0.1 -0.1 0.1 0.1zm-0.1 -0.1l-1.16 -0.68c-0.36,-0.19 -0.89,-0.47 -1.09,-0.75l0.51 -0.51 1.74 1.95zm-100.65 34.47c-0.65,-0.17 -0.86,-0.9 -1.74,-0.92 -0.36,1.55 0.32,1.33 0.47,1.91 0.26,1.05 -1.18,-1.11 -1.29,0.24l-0.21 0c-0.07,-0.8 -0.77,-2.66 -0.82,-2.87 -0.52,0.14 -0.2,0.27 -0.72,0.41 -0.05,-0.67 -0.29,-0.84 -0.41,-1.33 -0.75,0 -0.48,-0.08 -1.26,0.69 -0.72,0.72 -0.6,0.8 -1.2,0.85 -0.51,0.04 -0.84,0 -1.19,0.86 -0.13,0.31 -0.31,1.33 -0.35,1.71l-2.77 0c0,-5.52 0.48,-10.96 1.79,-16.17 0.56,-2.22 1.07,-4.15 1.77,-6.23 1.83,-5.49 4.69,-11.3 7.9,-16.11l1.62 -2.38c0.3,-0.41 0.53,-0.71 0.84,-1.11l4.56 -5.5 8.64 8.59c-0.4,0.27 -0.55,0.51 -0.83,0.86l-2.26 2.66c-6.2,7.78 -10.52,17.73 -11.99,27.72 -0.28,1.94 -0.54,3.97 -0.54,6.13zm100.86 -38.27l7.57 -7.62c0.29,0.21 0.35,0.29 0.54,0.54l3.47 3.92c2.39,2.94 5.12,6.76 6.9,10.03 2.27,4.19 3.72,7.14 5.3,11.63 0.76,2.18 1.39,4.24 1.97,6.55 0.57,2.27 1.03,4.53 1.39,7.03 0.07,0.5 0.18,1.29 0.25,1.81l0.44 6.02 -11.39 0c0,-2.81 -0.43,-6.84 -0.95,-9.51 -0.65,-3.32 -1.07,-5.07 -2.17,-8.4 -0.3,-0.91 -0.61,-1.66 -0.94,-2.54 -0.58,-1.54 -1.05,-2.41 -1.61,-3.72 -0.2,-0.48 -0.32,-0.74 -0.55,-1.19 -0.22,-0.44 -0.36,-0.72 -0.61,-1.14l-1.24 -2.25c-0.24,-0.4 -0.41,-0.74 -0.65,-1.1 -1.6,-2.4 -4.07,-6.17 -6.03,-8.13 -0.33,-0.33 -0.47,-0.58 -0.82,-0.93 -0.38,-0.38 -0.59,-0.52 -0.85,-1zm-74.18 8.72l-7.72 -7.67 4.5 -3.97c0.36,-0.28 0.64,-0.49 0.98,-0.76l6.21 -4.15c3.35,-1.86 5.64,-2.95 9.36,-4.29 1.66,-0.6 3.45,-1.1 5.31,-1.57 1.8,-0.45 3.82,-0.87 5.78,-1.1 1.99,-0.22 4.13,-0.5 6.37,-0.5l0 10.88c-5.78,0 -12.96,1.72 -17.95,4.21 -2.49,1.24 -2.86,1.44 -5.24,2.87l-6.18 4.7c-0.46,0.44 -0.91,1.03 -1.41,1.36zm64.53 -13.54c0.81,0.54 5.52,4.23 6.05,5.03 -0.09,0.35 -0.35,0.54 -0.62,0.72 -1.09,-0.95 -3.09,-2.35 -3.65,-3.74 -0.27,-0.66 -0.56,-1.02 -1.38,-1.09 0.05,-0.54 0.2,-0.18 -0.08,-0.44 -0.24,-0.22 -0.25,0.14 -0.33,-0.48zm1.33 9.75l-2.95 3c-0.71,-1.03 -4.72,-3.98 -5.81,-4.7 -0.56,-0.37 -1,-0.64 -1.56,-1.01l-1.68 -0.98c-6.14,-3.18 -12.68,-5.64 -20.83,-5.64l0 -10.88c0.45,0.01 0.95,0.27 1.3,0.44 0.5,0.26 0.65,0.38 1.37,0.38l-0.64 -0.7c1.06,-0.02 1.91,0.1 2.88,0.19 5.28,0.51 11.03,2.1 15.87,4.14 0.39,0.16 0.78,0.38 1.17,0.47l0 0.21c-0.34,0.08 -0.64,0.22 -0.95,0.28 -0.89,0.18 -3.63,0.2 -2.54,1.77 0.14,0.2 0.37,0.5 0.54,0.69l1.9 1.9c0.7,0.75 0.13,0.35 1.23,1.23 1.47,1.18 -0.33,0.32 1.38,2.21 0.17,0.19 0.4,0.49 0.5,0.73 0.17,0.42 0.13,0.54 0.4,0.94 1.75,0 1.93,-1.13 2.9,-0.23 0.62,0.58 1.61,1.17 1.82,2.08 -0.51,0 -0.46,0.09 -0.92,0.1 0.06,0.67 0.52,0.43 1.62,1.46l1.69 1.39c0.65,0.72 0.2,0.63 1.31,0.54zm-75.41 -5.75l-8.54 -8.49c0.43,-0.3 0.72,-0.67 1.08,-1.03l3.4 -3.06c3.68,-2.89 6.67,-5.14 10.87,-7.4 8.48,-4.55 15.63,-6.74 25.38,-8.07 2.42,-0.33 5.35,-0.48 8.14,-0.48l0 11.49c-5.53,0 -13.2,1.31 -18.42,3.33 -0.92,0.36 -1.71,0.65 -2.59,1l-2.51 1.08c-3.08,1.48 -4.21,2.17 -6.83,3.73 -1.26,0.75 -3.92,2.7 -5.15,3.67l-2.43 2.08c-0.62,0.5 -1.93,1.84 -2.37,2.14zm44.43 -17.03l-1.85 0 0 -11.49c0.46,0.22 1.31,0.05 1.93,0.12l5.66 0.6c5.61,0.78 14.43,3.17 19.49,5.75 0.46,0.23 0.91,0.4 1.4,0.65l4.17 2.19c1.81,1.01 3.51,2.09 5.18,3.23l5.94 4.52 2.73 2.5c0.31,0.25 0.35,0.2 0.58,0.54l-7.57 7.62c-0.49,-0.15 -0.9,-0.84 -1.62,-1.4l-1.61 -1.37c-1.79,-1.56 -4.89,-3.72 -6.95,-4.95l-3.81 -2.14c-0.62,-0.36 -1.33,-0.62 -2.01,-0.96 -0.69,-0.35 -1.36,-0.61 -2.07,-0.9 -4.63,-1.9 -8.36,-2.97 -13.24,-3.79l-0.63 -0.2c1.48,0 1.71,-0.36 2.36,-0.41 -0.1,-0.38 -0.29,-0.48 -0.63,-0.61 -0.29,-0.11 -0.76,-0.25 -1.04,-0.29 -0.8,-0.12 -1.44,-0.12 -2.17,0.14 -1.9,0.67 -1.26,0.65 -3.66,0.72 -0.27,0.01 -0.21,-0.06 -0.6,-0.06z"/>
 </g>
</svg>
