<?xml version="1.0" encoding="utf-8"?>
<!-- Generator: Adobe Illustrator 26.0.3, SVG Export Plug-In . SVG Version: 6.00 Build 0)  -->
<svg version="1.1" id="Capa_1" xmlns="http://www.w3.org/2000/svg" xmlns:xlink="http://www.w3.org/1999/xlink" x="0px" y="0px"
	 viewBox="0 0 792 612" style="enable-background:new 0 0 792 612;" xml:space="preserve">
<style type="text/css">
	.st0{enable-background:new    ;}
	.st1{fill:#44257D;}
</style>
<g class="st0">
	<path class="st1" d="M74.55,216.74h-1.61c-1.33-5.88-3.74-10.45-7.22-13.7c-3.48-3.25-7.7-4.88-12.68-4.88
		c-5.43,0-9.74,2.29-12.95,6.88c-3.2,4.58-4.8,10.74-4.8,18.48c0,8.61,1.87,15.28,5.61,19.99c3.74,4.71,8.89,7.07,15.46,7.07
		c3.54,0,6.79-0.73,9.75-2.19c2.96-1.46,5.96-3.82,9.02-7.07v3.07c-5.79,7.93-13.67,11.9-23.65,11.9c-8.94,0-16.21-2.77-21.8-8.31
		c-5.59-5.54-8.39-12.73-8.39-21.58c0-8.97,3.01-16.47,9.04-22.5c6.03-6.03,13.53-9.04,22.5-9.04c3.67,0,7.82,0.81,12.43,2.44
		c1.98,0.72,3.33,1.07,4.05,1.07c1.43,0,2.63-1.01,3.61-3.02h1.61V216.74z"/>
	<path class="st1" d="M113.27,254.78v-1.71c2.4-0.45,4.09-1.02,5.08-1.68s1.48-1.6,1.48-2.8c0-0.98-0.38-2.47-1.12-4.49l-3.38-8.97
		H94.48l-2.89,7.75c-0.74,1.98-1.11,3.57-1.11,4.78c0,2.57,1.95,4.38,5.86,5.42v1.71H77.48v-1.71c2.27-0.39,4.26-1.58,5.95-3.56
		c1.69-1.98,3.37-5.22,5.03-9.7l16.8-44.96h7.98l17.77,46.76c1.63,4.16,3.22,7.06,4.79,8.7c1.56,1.64,3.6,2.56,6.11,2.76v1.71
		H113.27z M96.35,230.93h17.4l-8.89-23.7L96.35,230.93z"/>
	<path class="st1" d="M179.1,194.85v15.41h-1.71c-1.14-3.41-3.09-6.28-5.86-8.61c-2.77-2.32-5.64-3.49-8.59-3.49
		c-2.66,0-4.92,0.76-6.79,2.29c-1.87,1.53-2.8,3.4-2.8,5.61c0,1.07,0.24,2.14,0.73,3.19c0.49,1.06,1.19,2.04,2.12,2.95
		c0.93,0.91,3.91,2.94,8.96,6.08c5.14,3.14,8.46,5.33,9.95,6.57c1.49,1.24,2.92,2.81,4.28,4.73c2.08,2.96,3.11,6.2,3.11,9.71
		c0,5.21-1.83,9.34-5.49,12.4s-8.09,4.59-13.29,4.59c-2.8,0-6.13-0.5-10-1.51c-2.05-0.52-3.48-0.78-4.29-0.78
		c-1.37,0-2.36,0.63-2.97,1.9h-1.71v-17.6h1.71c0.88,4.55,2.7,8.14,5.46,10.75c2.76,2.62,6.16,3.93,10.19,3.93
		c3.12,0,5.7-0.78,7.73-2.34c2.03-1.56,3.05-3.54,3.05-5.95c0-1.95-0.65-3.79-1.95-5.53c-1.3-1.74-4.78-4.29-10.45-7.66
		c-5.21-3.11-8.66-5.51-10.34-7.2c-1.69-1.69-2.96-3.59-3.82-5.69s-1.29-4.32-1.29-6.66c0-5.01,1.71-9.11,5.14-12.3
		c3.42-3.19,7.83-4.78,13.22-4.78c1.65,0,3.65,0.28,5.99,0.83c2.34,0.52,3.99,0.78,4.97,0.78c0.94,0,1.95-0.54,3.02-1.61H179.1z"/>
	<path class="st1" d="M221.62,254.78v-1.71c2.4-0.45,4.09-1.02,5.08-1.68s1.48-1.6,1.48-2.8c0-0.98-0.38-2.47-1.12-4.49l-3.38-8.97
		h-20.85l-2.89,7.75c-0.74,1.98-1.11,3.57-1.11,4.78c0,2.57,1.95,4.38,5.86,5.42v1.71h-18.87v-1.71c2.27-0.39,4.26-1.58,5.95-3.56
		c1.69-1.98,3.37-5.22,5.03-9.7l16.8-44.96h7.98l17.77,46.76c1.63,4.16,3.22,7.06,4.79,8.7c1.56,1.64,3.6,2.56,6.11,2.76v1.71
		H221.62z M204.7,230.93h17.4l-8.89-23.7L204.7,230.93z"/>
	<path class="st1" d="M287.45,194.85v15.41h-1.71c-1.14-3.41-3.09-6.28-5.86-8.61c-2.77-2.32-5.64-3.49-8.59-3.49
		c-2.66,0-4.92,0.76-6.79,2.29c-1.87,1.53-2.8,3.4-2.8,5.61c0,1.07,0.24,2.14,0.73,3.19c0.49,1.06,1.19,2.04,2.12,2.95
		c0.93,0.91,3.91,2.94,8.96,6.08c5.14,3.14,8.46,5.33,9.95,6.57c1.49,1.24,2.92,2.81,4.28,4.73c2.08,2.96,3.11,6.2,3.11,9.71
		c0,5.21-1.83,9.34-5.49,12.4s-8.09,4.59-13.29,4.59c-2.8,0-6.13-0.5-10-1.51c-2.05-0.52-3.48-0.78-4.29-0.78
		c-1.37,0-2.36,0.63-2.97,1.9h-1.71v-17.6h1.71c0.88,4.55,2.7,8.14,5.46,10.75c2.76,2.62,6.16,3.93,10.19,3.93
		c3.12,0,5.7-0.78,7.73-2.34c2.03-1.56,3.05-3.54,3.05-5.95c0-1.95-0.65-3.79-1.95-5.53c-1.3-1.74-4.78-4.29-10.45-7.66
		c-5.21-3.11-8.66-5.51-10.34-7.2c-1.69-1.69-2.96-3.59-3.82-5.69s-1.29-4.32-1.29-6.66c0-5.01,1.71-9.11,5.14-12.3
		c3.42-3.19,7.83-4.78,13.22-4.78c1.65,0,3.65,0.28,5.99,0.83c2.34,0.52,3.99,0.78,4.97,0.78c0.94,0,1.95-0.54,3.02-1.61H287.45z"/>
	<path class="st1" d="M412.14,216.74h-1.61c-1.33-5.88-3.74-10.45-7.22-13.7c-3.48-3.25-7.71-4.88-12.68-4.88
		c-5.43,0-9.74,2.29-12.95,6.88c-3.2,4.58-4.8,10.74-4.8,18.48c0,8.61,1.87,15.28,5.61,19.99c3.74,4.71,8.89,7.07,15.46,7.07
		c3.54,0,6.79-0.73,9.75-2.19s5.96-3.82,9.02-7.07v3.07c-5.79,7.93-13.67,11.9-23.65,11.9c-8.94,0-16.21-2.77-21.8-8.31
		c-5.59-5.54-8.39-12.73-8.39-21.58c0-8.97,3.01-16.47,9.04-22.5c6.03-6.03,13.53-9.04,22.5-9.04c3.67,0,7.82,0.81,12.43,2.44
		c1.98,0.72,3.33,1.07,4.05,1.07c1.43,0,2.63-1.01,3.61-3.02h1.61V216.74z"/>
	<path class="st1" d="M462.9,254.78v-7.8c-3.58,3.58-6.69,6.02-9.34,7.34c-2.65,1.32-5.81,1.97-9.48,1.97
		c-6.11,0-10.98-1.76-14.6-5.27s-5.44-8.22-5.44-14.14v-30.62c0-2.63-0.48-4.48-1.44-5.53c-0.96-1.06-2.95-1.94-5.97-2.66v-1.71
		h27.7v1.71c-2.96,0.68-4.93,1.57-5.92,2.66c-0.99,1.09-1.49,3.1-1.49,6.02v32.67c0,3.58,0.97,6.38,2.93,8.41
		c1.95,2.03,4.63,3.05,8.04,3.05c4.81,0,9.82-2.7,15.02-8.09v-36.52c0-2.63-0.47-4.47-1.41-5.51c-0.94-1.04-2.94-1.93-6-2.68v-1.71
		h27.6v1.71c-2.81,0.59-4.73,1.44-5.76,2.56c-1.03,1.12-1.55,3.39-1.55,6.8v37.45c0,2.63,0.47,4.47,1.4,5.51
		c0.94,1.04,2.91,1.93,5.91,2.68v1.71H462.9z"/>
	<path class="st1" d="M514.84,196.36v1.71c-3.12,0.78-5.14,1.67-6.05,2.68s-1.37,2.7-1.37,5.07v39.35c0,2.44,0.64,4.1,1.93,4.97
		c1.28,0.88,3.71,1.32,7.29,1.32c3.74,0,6.64-0.82,8.7-2.46c2.06-1.64,4.22-4.77,6.46-9.39h1.71l-1.71,15.17h-44.57v-1.71
		c3.1-0.78,5.09-1.71,5.98-2.78c0.89-1.07,1.33-3.3,1.33-6.68v-37.35c0-2.63-0.48-4.48-1.43-5.53c-0.95-1.06-2.91-1.94-5.88-2.66
		v-1.71H514.84z"/>
	<path class="st1" d="M567.45,253.07v1.71h-27.4v-1.71c2.87-0.55,4.81-1.4,5.81-2.54c1-1.14,1.5-3.22,1.5-6.24v-44.62h-5.84
		c-3.53,0-6.33,0.76-8.39,2.29c-2.06,1.53-3.59,3.95-4.6,7.27h-1.71l0.59-14.09h1.8c1.27,0.81,3.19,1.22,5.75,1.22h37.69
		c2.63,0,4.55-0.41,5.75-1.22h1.8l0.58,14.09h-1.71c-1.01-3.32-2.54-5.74-4.6-7.27c-2.06-1.53-4.86-2.29-8.39-2.29h-5.84v44.71
		c0,2.86,0.5,4.9,1.51,6.12S564.69,252.58,567.45,253.07z"/>
	<path class="st1" d="M628.89,254.78v-7.8c-3.58,3.58-6.69,6.02-9.34,7.34c-2.65,1.32-5.81,1.97-9.48,1.97
		c-6.11,0-10.98-1.76-14.6-5.27s-5.44-8.22-5.44-14.14v-30.62c0-2.63-0.48-4.48-1.44-5.53c-0.96-1.06-2.95-1.94-5.97-2.66v-1.71
		h27.7v1.71c-2.96,0.68-4.93,1.57-5.92,2.66c-0.99,1.09-1.49,3.1-1.49,6.02v32.67c0,3.58,0.97,6.38,2.93,8.41
		c1.95,2.03,4.63,3.05,8.04,3.05c4.81,0,9.82-2.7,15.02-8.09v-36.52c0-2.63-0.47-4.47-1.41-5.51c-0.94-1.04-2.94-1.93-6-2.68v-1.71
		h27.6v1.71c-2.81,0.59-4.73,1.44-5.76,2.56c-1.03,1.12-1.55,3.39-1.55,6.8v37.45c0,2.63,0.47,4.47,1.4,5.51
		c0.94,1.04,2.91,1.93,5.91,2.68v1.71H628.89z"/>
	<path class="st1" d="M652.45,254.78v-1.71c4.94-0.39,7.41-2.88,7.41-7.46v-39.55c0-2.7-0.51-4.57-1.54-5.61
		c-1.02-1.04-2.98-1.84-5.88-2.39v-1.71h27.79c7.28,0,12.88,1.28,16.8,3.85c3.92,2.57,5.88,6.18,5.88,10.83
		c0,3.35-1.02,6.23-3.06,8.63c-2.04,2.41-4.96,4.16-8.76,5.27v0.19c1.37,0.33,2.84,1.46,4.44,3.39c1.59,1.94,3.9,5.73,6.93,11.39
		c2.96,5.49,5.12,8.97,6.47,10.43c1.35,1.46,3.19,2.37,5.53,2.73v1.71h-16.85c-2.21-2.61-5.04-7.34-8.5-14.2
		c-2.38-4.71-4.15-7.84-5.3-9.4s-2.36-2.66-3.61-3.29s-3.75-0.95-7.48-0.95v17.94c0,2.57,0.57,4.48,1.71,5.73
		c1.14,1.25,3.07,2.07,5.8,2.46v1.71H652.45z M676.73,199.68h-4v23.94c1.01,0.07,1.95,0.1,2.83,0.1c4.65,0,8.04-1,10.17-3
		c2.13-2,3.19-5.16,3.19-9.48C688.92,203.53,684.86,199.68,676.73,199.68z"/>
	<path class="st1" d="M750.17,254.78v-1.71c2.4-0.45,4.09-1.02,5.08-1.68c0.99-0.67,1.48-1.6,1.48-2.8c0-0.98-0.38-2.47-1.12-4.49
		l-3.38-8.97h-20.85l-2.88,7.75c-0.74,1.98-1.11,3.57-1.11,4.78c0,2.57,1.95,4.38,5.86,5.42v1.71h-18.87v-1.71
		c2.28-0.39,4.26-1.58,5.95-3.56c1.69-1.98,3.37-5.22,5.03-9.7l16.8-44.96h7.98l17.76,46.76c1.63,4.16,3.22,7.06,4.79,8.7
		c1.56,1.64,3.6,2.56,6.11,2.76v1.71H750.17z M733.25,230.93h17.4l-8.89-23.7L733.25,230.93z"/>
</g>
<g class="st0">
	<path class="st1" d="M85.15,285.17V288c-5.1,1.35-8.4,2.84-9.89,4.48c-1.49,1.64-2.24,5.32-2.24,11.03v85.72
		c0,9.48-2.4,16.87-7.19,22.18c-4.8,5.31-11.56,7.96-20.29,7.96c-6.79,0-12.53-1.86-17.22-5.58c-4.69-3.72-7.41-8.6-8.17-14.63h2.83
		c3.23,6.2,8.03,9.3,14.39,9.3c5.12,0,8.77-1.74,10.95-5.21c2.18-3.47,3.27-9.41,3.27-17.81V301.9c0-4.63-0.8-7.84-2.38-9.61
		c-1.59-1.78-4.92-3.2-9.98-4.28v-2.83H85.15z"/>
	<path class="st1" d="M172.87,382.02v-12.94c-5.93,5.93-11.09,9.98-15.48,12.17c-4.39,2.18-9.63,3.27-15.72,3.27
		c-10.13,0-18.2-2.91-24.21-8.73c-6.01-5.82-9.01-13.64-9.01-23.45v-50.77c0-4.37-0.8-7.42-2.38-9.18c-1.59-1.75-4.89-3.22-9.9-4.41
		v-2.83h45.92V288c-4.91,1.13-8.18,2.6-9.82,4.41c-1.64,1.81-2.47,5.13-2.47,9.98v54.17c0,5.93,1.62,10.58,4.85,13.95
		c3.23,3.37,7.68,5.05,13.34,5.05c7.98,0,16.28-4.47,24.9-13.42v-60.55c0-4.37-0.78-7.41-2.34-9.13c-1.56-1.72-4.88-3.21-9.94-4.45
		v-2.83h45.76V288c-4.66,0.97-7.84,2.38-9.56,4.25c-1.71,1.86-2.57,5.62-2.57,11.28v62.09c0,4.37,0.78,7.41,2.33,9.13
		c1.55,1.73,4.82,3.21,9.8,4.45v2.83H172.87z"/>
	<path class="st1" d="M215.23,382.02v-2.83c8.19-0.65,12.29-4.77,12.29-12.37v-65.57c0-4.47-0.85-7.57-2.55-9.3
		c-1.7-1.72-4.95-3.04-9.74-3.96v-2.83h46.08c12.07,0,21.36,2.13,27.85,6.39c6.49,4.26,9.74,10.24,9.74,17.95
		c0,5.55-1.69,10.32-5.07,14.31c-3.38,3.99-8.22,6.9-14.52,8.73v0.32c2.26,0.54,4.72,2.42,7.36,5.63c2.64,3.21,6.47,9.5,11.49,18.88
		c4.91,9.11,8.49,14.87,10.72,17.29c2.24,2.42,5.3,3.93,9.18,4.53v2.83h-27.93c-3.66-4.33-8.36-12.17-14.09-23.54
		c-3.95-7.81-6.88-13-8.79-15.59c-1.91-2.59-3.91-4.41-5.98-5.46c-2.08-1.05-6.21-1.58-12.41-1.58v29.75c0,4.26,0.94,7.42,2.83,9.5
		c1.89,2.08,5.09,3.44,9.62,4.08v2.83H215.23z M255.49,290.67h-6.63v39.7c1.67,0.11,3.23,0.16,4.69,0.16
		c7.71,0,13.33-1.66,16.86-4.97c3.53-3.31,5.3-8.56,5.3-15.72C275.7,297.05,268.96,290.67,255.49,290.67z"/>
	<path class="st1" d="M372.39,285.17V288c-4.76,1.08-7.98,2.52-9.64,4.33c-1.66,1.81-2.49,5.54-2.49,11.2v62.09
		c0,4.37,0.78,7.41,2.33,9.13c1.55,1.73,4.82,3.21,9.8,4.45v2.83h-45.76v-2.83c3.45-0.86,6.02-1.81,7.72-2.83
		c1.7-1.02,2.88-2.32,3.56-3.88c0.67-1.56,1.01-4.55,1.01-8.97v-61.93c0-4.37-0.8-7.42-2.38-9.18c-1.59-1.75-4.89-3.22-9.9-4.41
		v-2.83H372.39z"/>
	<path class="st1" d="M384.92,382.02v-2.83c5.12-1.4,8.45-2.95,9.99-4.65c1.54-1.7,2.3-5.38,2.3-11.04v-61.77
		c0-4.37-0.77-7.41-2.3-9.14c-1.54-1.72-4.87-3.26-9.99-4.61v-2.83h49.56c18,0,32.22,4.55,42.65,13.66
		c10.43,9.11,15.64,21.1,15.64,35.98c0,14.34-4.66,25.79-13.99,34.36c-9.33,8.57-21.94,12.85-37.84,12.85H384.92z M431.17,290.67
		h-12.61v74.46c0,4.15,1.21,7.09,3.64,8.81c2.42,1.73,6.47,2.59,12.13,2.59c11.21,0,19.89-3.72,26.03-11.16
		c6.14-7.44,9.22-17.95,9.22-31.53c0-13.31-3.37-23.84-10.11-31.57C452.73,294.54,443.29,290.67,431.17,290.67z"/>
	<path class="st1" d="M551.95,285.17V288c-4.76,1.08-7.98,2.52-9.64,4.33c-1.66,1.81-2.49,5.54-2.49,11.2v62.09
		c0,4.37,0.78,7.41,2.33,9.13c1.55,1.73,4.82,3.21,9.8,4.45v2.83h-45.76v-2.83c3.45-0.86,6.02-1.81,7.72-2.83
		c1.7-1.02,2.88-2.32,3.56-3.88c0.67-1.56,1.01-4.55,1.01-8.97v-61.93c0-4.37-0.8-7.42-2.38-9.18c-1.59-1.75-4.89-3.22-9.9-4.41
		v-2.83H551.95z"/>
	<path class="st1" d="M654.95,318.96h-2.67c-2.21-9.75-6.2-17.33-11.97-22.72c-5.77-5.39-12.77-8.08-21.02-8.08
		c-9,0-16.16,3.8-21.46,11.4c-5.31,7.6-7.96,17.81-7.96,30.64c0,14.28,3.1,25.33,9.3,33.15c6.2,7.82,14.74,11.72,25.63,11.72
		c5.87,0,11.26-1.21,16.17-3.64c4.9-2.42,9.89-6.33,14.96-11.72v5.09c-9.59,13.15-22.66,19.73-39.21,19.73
		c-14.82,0-26.87-4.59-36.14-13.78c-9.27-9.19-13.91-21.11-13.91-35.77c0-14.88,5-27.31,15-37.31c10-10,22.43-15,37.31-15
		c6.09,0,12.96,1.35,20.62,4.04c3.29,1.19,5.52,1.78,6.71,1.78c2.37,0,4.37-1.67,5.98-5.01h2.67V318.96z"/>
	<path class="st1" d="M722.45,382.02v-2.83c3.97-0.75,6.78-1.68,8.42-2.79c1.64-1.1,2.46-2.65,2.46-4.65c0-1.62-0.62-4.09-1.87-7.44
		l-5.6-14.88H691.3l-4.78,12.85c-1.22,3.29-1.83,5.93-1.83,7.92c0,4.26,3.24,7.25,9.72,8.98v2.83h-31.29v-2.83
		c3.77-0.65,7.06-2.61,9.86-5.9c2.8-3.29,5.58-8.65,8.33-16.09l27.85-74.54h13.23l29.45,77.53c2.7,6.9,5.34,11.71,7.94,14.43
		c2.59,2.72,5.97,4.25,10.13,4.57v2.83H722.45z M694.4,342.49h28.85l-14.75-39.29L694.4,342.49z"/>
</g>
<g>
	<path class="st1" d="M299.91,220.94v-0.71c1.28-0.35,2.1-0.74,2.49-1.16c0.38-0.42,0.58-1.34,0.58-2.75v-15.4
		c0-1.09-0.19-1.84-0.58-2.28c-0.38-0.43-1.21-0.81-2.49-1.15v-0.71h12.35c4.49,0,8.03,1.13,10.63,3.4c2.6,2.27,3.9,5.26,3.9,8.97
		c0,3.57-1.16,6.43-3.49,8.56c-2.32,2.14-5.47,3.2-9.43,3.2h-13.96V220.94z M311.43,198.17h-3.14v18.56c0,1.04,0.3,1.77,0.91,2.2
		c0.61,0.43,1.61,0.64,3.02,0.64c2.79,0,4.96-0.93,6.49-2.78s2.3-4.47,2.3-7.86c0-3.32-0.84-5.94-2.52-7.87
		C316.8,199.13,314.45,198.17,311.43,198.17z"/>
	<path class="st1" d="M345.61,205.12h0.79v7.48h-0.79c-0.28-2.06-1.4-3.08-3.35-3.08h-4.25v7.09c0,1.09,0.25,1.85,0.74,2.3
		c0.5,0.44,1.35,0.66,2.55,0.66h1.41c2.36,0,4.05-1.5,5.07-4.49h0.71l-0.44,5.86h-18.38v-0.71c1.21-0.26,2.02-0.62,2.42-1.1
		c0.4-0.48,0.6-1.4,0.6-2.77v-15.51c0-1.13-0.21-1.91-0.62-2.35s-1.21-0.77-2.4-1v-0.71h18.1v5.36h-0.71
		c-0.4-1.57-0.9-2.63-1.5-3.17s-1.55-0.82-2.87-0.82h-4.67v9.98h4.25c0.97,0,1.71-0.23,2.22-0.69
		C344.99,206.99,345.36,206.22,345.61,205.12z"/>
	<path class="st1" d="M311.47,231.19v0.71c-1.29,0.32-2.12,0.69-2.5,1.11s-0.56,1.12-0.56,2.1v16.26c0,1.01,0.27,1.69,0.8,2.06
		c0.53,0.36,1.54,0.54,3.01,0.54c1.54,0,2.74-0.34,3.6-1.02c0.85-0.68,1.74-1.97,2.67-3.88h0.71l-0.71,6.27h-18.42v-0.71
		c1.28-0.32,2.1-0.71,2.47-1.15c0.37-0.44,0.55-1.36,0.55-2.76v-15.44c0-1.09-0.2-1.85-0.59-2.29c-0.39-0.44-1.2-0.8-2.43-1.1v-0.71
		h11.4V231.19z"/>
	<path class="st1" d="M334.93,255.33v-0.71c0.99-0.19,1.69-0.42,2.1-0.69c0.41-0.28,0.61-0.66,0.61-1.16c0-0.4-0.16-1.02-0.47-1.86
		l-1.39-3.71h-8.62l-1.19,3.2c-0.3,0.82-0.46,1.48-0.46,1.97c0,1.06,0.81,1.81,2.42,2.24v0.71h-7.8v-0.71
		c0.94-0.16,1.76-0.65,2.46-1.47c0.7-0.82,1.39-2.16,2.08-4.01l6.94-18.58h3.3l7.34,19.32c0.67,1.72,1.33,2.92,1.98,3.6
		c0.65,0.68,1.49,1.06,2.53,1.14v0.71L334.93,255.33L334.93,255.33z M327.93,245.47h7.19l-3.68-9.79L327.93,245.47z"/>
</g>
<g>
	<path class="st1" d="M353.55,265.18h16l-19.99,14.91h-1.52L353.55,265.18z"/>
</g>
</svg>
