<svg id="Capa_1" data-name="Capa 1" xmlns="http://www.w3.org/2000/svg" viewBox="0 0 686.14 958"><defs><style>.cls-1{fill:#81264c;}</style></defs><path class="cls-1" d="M375.38,930.32,448,888.76c19.42-11.07,40.2-24,50-44.92a55.46,55.46,0,0,0-6.47-58.26c-15.54-18.84-41.95-17.74-60-3.37-36,28.61-42.65,93.93-8.8,126.42a67.8,67.8,0,0,0,60,18.51c11.85-2.39,20.72-9.9,31.07-15.53a17.71,17.71,0,0,1,6-2.46c.58,0,4,0,2.72-.39s1.36,1.62,2,2.52c1.62,2.14,2.85,4.6,4.41,6.48,8.67,12.1,24.66,21.16,39.16,12.49a30.2,30.2,0,0,0,11.2-13c.9-2,3.69-10.61,4.2-10.74-1.49.52,3.69,2.2,4.73,2.78a70.77,70.77,0,0,1,11.52,10.49c9.65,9.26,21.3,17.22,35.28,16.25a16.64,16.64,0,0,0,16.18-16.19A16.31,16.31,0,0,0,635,903.71c-6.47.45-11.39-5.76-15.8-10.16a66.58,66.58,0,0,0-23.69-16.38,33.67,33.67,0,0,0-27.51,1c-9.71,5.18-12.94,13.6-16.89,23.05-1.55,3.56-.71,2.2-.65,1.49l-.9,1.55a6.48,6.48,0,0,1,8.35-2.53s-4.66-6.08-4.79-6.47a37.24,37.24,0,0,0-25.9-18.77,46.89,46.89,0,0,0-29.64,6.47c-7.64,4.21-14.44,10.94-23.3,12.3a36.51,36.51,0,0,1-33.15-15.34c-10-13.85-9.38-32.36-4.59-48.16,3.1-10.23,12.56-31.13,25.89-28.87a10.89,10.89,0,0,1,7.25,7.77,22.76,22.76,0,0,1,0,16.64c-6,15.92-26.48,26.28-41.1,34.63l-69.78,39.93c-18.13,10.36-1.82,38.32,16.31,28Z" transform="translate(-79 -43)"/><path class="cls-1" d="M376.76,217.77H176.1a19.42,19.42,0,1,1,0-38.84H376.76a19.42,19.42,0,1,1,0,38.84Z" transform="translate(-79 -43)"/><path class="cls-1" d="M681,360.18H176.1a19.42,19.42,0,1,1,0-38.84H681a19.42,19.42,0,0,1,0,38.84Z" transform="translate(-79 -43)"/><path class="cls-1" d="M681,424.91H176.1a19.42,19.42,0,1,1,0-38.84H681a19.42,19.42,0,0,1,0,38.84Z" transform="translate(-79 -43)"/><path class="cls-1" d="M681,489.64H176.1a19.42,19.42,0,0,1,0-38.84H681a19.42,19.42,0,0,1,0,38.84Z" transform="translate(-79 -43)"/><path class="cls-1" d="M681,560.84H176.1a19.42,19.42,0,1,1,0-38.84H681a19.42,19.42,0,0,1,0,38.84Z" transform="translate(-79 -43)"/><g id="Capa_2" data-name="Capa 2"><path class="cls-1" d="M231.63,1001h-8L79,856.62V92a48.77,48.77,0,0,1,48.41-49H716.55a48.79,48.79,0,0,1,48.59,49.13V952a48.77,48.77,0,0,1-48.41,49Zm8-38.84H716.55a9.89,9.89,0,0,0,6.91-3,9.73,9.73,0,0,0,2.84-7V92a9.92,9.92,0,0,0-9.91-10.12H127.58a9.9,9.9,0,0,0-6.91,3,9.77,9.77,0,0,0-2.83,7V840.51Z" transform="translate(-79 -43)"/><path class="cls-1" d="M253.77,975.11H214.93V877c0-7.28-4.25-11.91-6.47-11.91H111.37V826.23h97.09c25,0,45.31,22.77,45.31,50.75Z" transform="translate(-79 -43)"/></g></svg>