<svg id="Capa_1" data-name="Capa 1" xmlns="http://www.w3.org/2000/svg" viewBox="0 0 948 778.5"><defs><style>.cls-1{fill:#0f8ca1;}</style></defs><path class="cls-1" d="M970.88,1000.84H67.12A22.14,22.14,0,0,1,45,978.72V362.23a22.15,22.15,0,0,1,22.12-22.12H114v34.48H79.47V966.37H958.53V374.59H924.05V340.11h46.83A22.15,22.15,0,0,1,993,362.23V978.72A22.14,22.14,0,0,1,970.88,1000.84Z" transform="translate(-45 -222.34)"/><path class="cls-1" d="M521.07,995.44l-5.79-2.39c-105.07-43.53-405.39-67.15-408.41-67.39L91,924.43V269.86l19.86,3.06c13.31,2,43.59,10.24,47,11.17l-9,33.26c-4.73-1.28-14.15-3.78-23.33-6V892.6c63.67,5.46,296.79,27.56,397.21,66.28,30.5-9,172.72-48.5,395.66-70V312.15l-20.65,5.27L889.13,284l63.65-16.26V920.3l-15.67,1.43c-252.69,23-408.52,71.35-410.06,71.84Z" transform="translate(-45 -222.34)"/><path class="cls-1" d="M518.32,994.78l-8.27-3.71C235.15,867.63,150.82,872.45,150,872.51L131.43,874l-.25-18.6v-633l18.5,1.35c188.22,13.78,332.47,89.93,369.6,111.25C686.77,237.31,880.21,224.2,888.5,223.68l18.32-1.14V868l-15.45,1.61C692.21,890.33,527.7,989.08,526.06,990.08Zm-352.67-156c38.06,3.53,138.4,22.67,350.41,117.22,35-20,179-97,356.29-118.94V259.82c-53,5.87-210.88,29.34-344.15,109.91l-9,5.46-9-5.58c-1.51-.94-147.94-90.79-344.53-109.95Z" transform="translate(-45 -222.34)"/><rect class="cls-1" x="459.64" y="135.01" width="34.47" height="620.51"/><path class="cls-1" d="M783.18,563.69a20.23,20.23,0,0,1-15.66-7.38l-51.79-63.38-52,61.38a22.17,22.17,0,0,1-38.49-15V299.89h34.48V505.7L716.2,439l52.73,64.54V265.42H803.4V543.49a20.22,20.22,0,0,1-20.22,20.2ZM659.77,539.27v0Z" transform="translate(-45 -222.34)"/></svg>