<svg id="Capa_1" data-name="Capa 1" xmlns="http://www.w3.org/2000/svg" viewBox="0 0 909.06 915"><defs><style>.cls-1{fill:#333;}</style></defs><path class="cls-1" d="M134.67,936.85a57,57,0,0,1-40-16.26L93.6,919.5a57.22,57.22,0,0,1,.63-80.34L528.67,404.73l21,21L115.22,860.18a27.56,27.56,0,0,0-.45,38.48l1,1a27.54,27.54,0,0,0,38.38-.49L588.56,464.67l21,21L175.12,920.13A57.1,57.1,0,0,1,134.67,936.85Z" transform="translate(-77.44 -74)"/><path class="cls-1" d="M646.26,553.61,452.45,359.8,622.9,189.36l193.81,193.8ZM494.46,359.8l151.8,151.8L774.7,383.16,622.9,231.37Z" transform="translate(-77.44 -74)"/><path class="cls-1" d="M725.85,391.88a14.8,14.8,0,0,1-10.71-4.57l-94.83-98.69A14.86,14.86,0,0,1,641.74,268l94.82,98.69a14.86,14.86,0,0,1-10.71,25.15Z" transform="translate(-77.44 -74)"/><path class="cls-1" d="M447.93,385.82a49.25,49.25,0,0,1-35-14.52L350,308.37a49.54,49.54,0,0,1,0-70.08h0L499.74,88.51a49.55,49.55,0,0,1,70.07,0l62.94,62.94a49.6,49.6,0,0,1,0,70.07L483,371.3A49.21,49.21,0,0,1,447.93,385.82Zm86.84-282.11a19.7,19.7,0,0,0-14,5.81L371,259.3a19.82,19.82,0,0,0,0,28.06L433.9,350.3a20.32,20.32,0,0,0,28.06,0L611.74,200.52a19.87,19.87,0,0,0,0-28.07l-62.93-62.93A19.73,19.73,0,0,0,534.77,103.71Z" transform="translate(-77.44 -74)"/><rect class="cls-1" x="346.95" y="213.45" width="288.84" height="29.7" transform="translate(-95.37 339.2) rotate(-44.87)"/><path class="cls-1" d="M733.84,668.48a49.4,49.4,0,0,1-35-14.49l-62.93-62.94a49.53,49.53,0,0,1,0-70.07h0L785.65,371.2a49.55,49.55,0,0,1,70.07,0l62.94,62.94a49.62,49.62,0,0,1,0,70.07L768.88,654A49.4,49.4,0,0,1,733.84,668.48ZM820.68,386.4a19.7,19.7,0,0,0-14,5.81L656.88,542a19.83,19.83,0,0,0,0,28.07L719.81,633a19.88,19.88,0,0,0,28.07,0L897.65,483.21a19.87,19.87,0,0,0,0-28.07l-62.93-62.93A19.73,19.73,0,0,0,820.68,386.4Z" transform="translate(-77.44 -74)"/><rect class="cls-1" x="632.81" y="496.09" width="288.88" height="29.71" transform="translate(-211.52 623.11) rotate(-44.87)"/><path class="cls-1" d="M912.88,864.23H555.09a20.17,20.17,0,0,1-20.15-20.15V819a20.17,20.17,0,0,1,20.15-20.14H912.88A20.16,20.16,0,0,1,933,819v25.07A20.17,20.17,0,0,1,912.88,864.23ZM564.65,834.52H903.32v-5.94H564.65Z" transform="translate(-77.44 -74)"/><path class="cls-1" d="M960.24,989H507.73a26.28,26.28,0,0,1-26.26-26.26V932.08a26.28,26.28,0,0,1,26.26-26.26H960.24a26.29,26.29,0,0,1,26.26,26.26v30.66A26.29,26.29,0,0,1,960.24,989ZM511.17,959.29H956.79V935.53H511.17Z" transform="translate(-77.44 -74)"/><path class="cls-1" d="M497,940a14.86,14.86,0,0,1-12.2-23.31l54.78-79.14A14.85,14.85,0,0,1,564,854.44l-54.78,79.15A14.87,14.87,0,0,1,497,940Z" transform="translate(-77.44 -74)"/><path class="cls-1" d="M966.26,940.17a14.86,14.86,0,0,1-12.52-6.84l-52-81a14.85,14.85,0,1,1,25-16l52,81a14.86,14.86,0,0,1-12.49,22.88Z" transform="translate(-77.44 -74)"/></svg>