<?xml version="1.0" encoding="UTF-8"?><svg id="uuid-7b09b387-2c84-4c6e-a8a8-0a9f08284ccb" xmlns="http://www.w3.org/2000/svg" width="193" height="182" viewBox="0 0 193 182"><path d="M136.32,66.87c1.51-1.58,2.97-3.1,4.43-4.63,4.77-4.98,9.53-9.97,14.31-14.94,1.68-1.75,3.67-3.04,6.07-3.58,2.37-.53,4.52-.15,6.29,1.69,.91,.94,1.88,1.82,2.83,2.72,1.57,1.47,2.03,3.31,1.79,5.36-.34,2.85-1.78,5.15-3.73,7.19-6.02,6.29-12.04,12.58-18.07,18.87-4.52,4.73-9.05,9.46-13.58,14.18-.26,.27-.38,.54-.38,.93,0,9.79,0,19.57,0,29.36,0,4.58-.02,9.17,.02,13.75,.02,2.28-.74,4.17-2.39,5.75-1.83,1.75-3.61,3.55-5.4,5.34-4.87,4.88-9.73,9.77-14.6,14.65-1.36,1.36-3,2.07-4.92,2.07-9.79,0-19.57,0-29.36,0-9.87,0-19.74,0-29.61,0-6.65,0-13.29,0-19.94,0-3.89,0-7.05-3.15-7.05-7.04-.01-8.98,0-17.96,0-26.94,0-9.82,0-19.64,0-29.46,0-15.38,0-30.75,0-46.13,0-10.49,0-20.98,0-31.48,0-3.67,2.23-6.49,5.84-7.19,1.14-.22,2.34-.13,3.51-.13,9.69,0,19.37,0,29.06,0s20.08,0,30.12,0,20.21,0,30.32,0c2.42,0,4.83,0,7.25,0,3.98,0,7.15,3.05,7.17,7.03,.04,8.01,0,16.01,0,24.02,0,6.08,0,12.15,0,18.23,0,.11,.02,.22,.04,.4Zm-28.63,29.93h-.38c-6.48,0-12.96,0-19.44,0-9.82,0-19.64,0-29.46,0-4.55,0-9.1,0-13.65,0-2.6,0-5.2,.02-7.81,.01-1.39,0-2.41-.89-2.47-2.13-.07-1.35,.92-2.39,2.33-2.39,3.63-.01,7.25,0,10.88,0,15.49,0,30.99,0,46.48,0,5.79,0,11.58,0,17.37,0,.33,0,.56-.09,.79-.33,6.37-6.68,12.75-13.35,19.12-20.03,.17-.18,.29-.49,.29-.74,.01-6.7,.01-13.39,.01-20.09,0-4.5,0-9,0-13.5s0-8.76,0-13.14c0-1.47-.88-2.51-2.3-2.73-.31-.05-.64-.03-.95-.03-13.9,0-27.8,0-41.7,0-9.84,0-19.67,0-29.51,0-8.98,0-17.96,0-26.94,0-1.72,0-2.83,1.08-2.83,2.82,0,4.2,0,8.39,0,12.59,0,9.85-.01,19.71-.01,29.56s0,20.48,.01,30.72c0,10.21,0,20.41,0,30.62,0,9.74,0,19.47,0,29.21,0,.55-.03,1.11,.04,1.66,.15,1.3,1.3,2.2,2.75,2.2,14.96,0,29.91,0,44.87,0,10.95,0,21.89,0,32.84,0h.6v-.69c0-5.54,0-11.08,0-16.62,0-.32-.01-.64,.04-.95,.43-2.91,2.67-4.86,5.62-4.86,5.66,0,11.31,0,16.97,0,.16,0,.32-.02,.49-.03v-38.92s-.09-.06-.14-.08c-.07,.11-.13,.24-.22,.34-5.97,6.25-11.94,12.5-17.92,18.73-.64,.67-1.32,1.36-2.1,1.85-1.71,1.06-3.5,1.99-5.25,2.97-5.17,2.88-10.34,5.77-15.51,8.65-.98,.54-2.02,.43-2.75-.27-.76-.73-.92-1.76-.42-2.77,1.89-3.78,3.78-7.55,5.67-11.33,.83-1.66,1.66-3.32,2.53-5.05h-.55c-2.38,0-4.77-.01-7.15-.01-14.02,0-28.03,0-42.05,0-3.02,0-6.04,0-9.06,0-1.3,0-2.3-.96-2.33-2.21-.03-1.31,.95-2.32,2.31-2.32,3.78,0,7.55,0,11.33,0,16.38,0,32.77,0,49.15,0,.46,0,.74-.09,.91-.55,.1-.27,.29-.53,.5-.75,1.99-2.09,3.99-4.17,5.98-6.26,.98-1.03,1.96-2.05,3.02-3.15Zm32.45-27.37c-1.63,1.71-3.2,3.36-4.78,5.01-5.3,5.54-10.6,11.08-15.9,16.62-5.53,5.78-11.06,11.57-16.6,17.34-.26,.27-.3,.52-.2,.85,.32,1.06,.83,2.01,1.54,2.85,1.35,1.59,2.92,2.85,5.03,3.31,.3,.06,.46-.02,.65-.22,4.71-4.93,9.42-9.85,14.12-14.77,7.48-7.82,14.96-15.64,22.44-23.46,.24-.25,.47-.51,.74-.8-2.35-2.25-4.68-4.47-7.04-6.74Zm3.14-3.27c2.36,2.26,4.69,4.49,7.04,6.73,.08-.08,.14-.12,.18-.16,4.91-5.13,9.82-10.25,14.72-15.39,1.1-1.16,1.98-2.46,2.29-4.06,.15-.74,.14-1.44-.53-2.02-.93-.8-1.83-1.64-2.65-2.54-.69-.75-1.45-.8-2.33-.56-1.52,.42-2.75,1.31-3.82,2.42-3.89,4.05-7.78,8.12-11.66,12.18-1.08,1.13-2.15,2.25-3.24,3.4Zm-14.71,76.3h-.48c-4.58,0-9.16,0-13.75,0-.82,0-1.19,.39-1.19,1.21,0,4.55,0,9.1,0,13.65,0,.13,.02,.27,.04,.47,5.14-5.12,10.2-10.17,15.38-15.34Zm-23.91-24.05c-2-1.2-3.56-2.74-4.85-4.63-1.7,3.4-3.37,6.72-5.03,10.05,.03,.02,.06,.04,.08,.05,3.24-1.81,6.49-3.62,9.8-5.47Z" style="fill:#db9440; fill-rule:evenodd; stroke:#db9440; stroke-miterlimit:10; stroke-width:1.5px;"/><path d="M78.13,81.55H45.15c-2.77,0-5.54,0-8.31,0-.96,0-1.69-.41-2.11-1.27-.4-.82-.3-1.63,.25-2.37,.48-.64,1.16-.88,1.94-.88,3.31,0,6.61,0,9.92,0,5.02,0,10.04,0,15.05,0,10.1,0,20.21,0,30.31,0,9.06,0,18.12,0,27.19,0,1.23,0,2.11,.65,2.38,1.76,.24,1-.21,2.03-1.14,2.49-.33,.16-.74,.26-1.11,.26-9.75,.01-19.5,0-29.25,0-4.04,0-8.09,0-12.13,0h0Z" style="fill:#db9440; fill-rule:evenodd; stroke:#db9440; stroke-miterlimit:10; stroke-width:1.5px;"/><path d="M55.88,127.26c-6.33,0-12.66-.02-18.98,.02-1.14,0-2.38-.83-2.4-2.25-.01-1.31,1.01-2.27,2.42-2.27,7.59,0,15.17,0,22.76,0,5.08,0,10.16,0,15.25,0,1.71,0,2.8,1.48,2.27,3.03-.32,.92-1.15,1.48-2.23,1.48-1.98,0-3.96,0-5.94,0-4.38,0-8.76,0-13.14,0Z" style="fill:#db9440; fill-rule:evenodd; stroke:#db9440; stroke-miterlimit:10; stroke-width:1.5px;"/><path d="M82.26,66.32c-5.62,0-11.24,0-16.87,0-1.41,0-2.41-.98-2.38-2.3,.02-1.27,1.02-2.22,2.37-2.22,1.86-.01,3.72,0,5.59,0,9.38,0,18.76,0,28.14,0,.95,0,1.71,.34,2.18,1.19,.43,.79,.39,1.58-.1,2.33-.46,.7-1.13,1.01-1.96,1.01-3.05,0-6.11,0-9.16,0-2.6,0-5.2,0-7.8,0Z" style="fill:#db9440; fill-rule:evenodd; stroke:#db9440; stroke-miterlimit:10; stroke-width:1.5px;"/></svg>