<svg id="Capa_1" data-name="Capa 1" xmlns="http://www.w3.org/2000/svg" viewBox="0 0 877.3 871.06"><defs><style>.cls-1{fill:#504286;}</style></defs><path class="cls-1" d="M479.33,786.87H317.13a18,18,0,0,1,0-36h162.2a18,18,0,1,1,0,36Z" transform="translate(-99.7 -66)"/><path class="cls-1" d="M630,873.5A102.37,102.37,0,1,1,732.36,771.13,102.48,102.48,0,0,1,630,873.5Zm0-168.69a66.32,66.32,0,1,0,66.32,66.32A66.39,66.39,0,0,0,630,704.81Z" transform="translate(-99.7 -66)"/><path class="cls-1" d="M689.58,624.68H317.13a18,18,0,0,1,0-36H689.58a18,18,0,0,1,0,36Z" transform="translate(-99.7 -66)"/><path class="cls-1" d="M689.58,564.6H317.13a18,18,0,1,1,0-36H689.58a18,18,0,0,1,0,36Z" transform="translate(-99.7 -66)"/><path class="cls-1" d="M689.58,498.52H317.13a18,18,0,0,1,0-36H689.58a18,18,0,0,1,0,36Z" transform="translate(-99.7 -66)"/><path class="cls-1" d="M689.58,414.42H317.13a18,18,0,1,1,0-36H689.58a18,18,0,0,1,0,36Z" transform="translate(-99.7 -66)"/><path class="cls-1" d="M593.47,348.34H401.23a18,18,0,0,1,0-36H593.47a18,18,0,0,1,0,36Z" transform="translate(-99.7 -66)"/><path class="cls-1" d="M890.18,937.06H319.1c-33.69,0-60.56-10.75-79.85-31.94-33.63-37-30.87-92.76-30.25-101V282.26H120.54l-4.19-12.14c-22.16-64.2-22.2-116-.11-153.89,24.15-41.45,65.83-49.6,67.59-49.93l3.28-.3H688.93c37.82,0,67.84,11,89.23,32.78,32,32.51,31.6,76.88,31.57,78.76V732.81l96,.11C930.38,735.64,977,759.65,977,831c0,70.33-55.67,99.88-85.1,105.69ZM146.47,246.22H245L245,806.49c0,.42-3.87,47.25,21.06,74.48,12.33,13.49,29.7,20,53.08,20H886.42c10-2.47,54.54-16.45,54.54-70,0-52.45-31.88-61-38.58-62.18H773.69V177.23c0-.52-.06-31.89-21.48-53.43C737.86,109.37,716.57,102,688.93,102H189.13a70.59,70.59,0,0,0-42,32.87C132.31,160.76,132.14,199.07,146.47,246.22ZM227,804.8h0Z" transform="translate(-99.7 -66)"/><path class="cls-1" d="M785.7,871a18,18,0,0,1-18-18v-84.1a18,18,0,0,1,36,0V853A18,18,0,0,1,785.7,871Z" transform="translate(-99.7 -66)"/><path class="cls-1" d="M842.39,932.37a17.78,17.78,0,0,1-5.66-.92c-2.24-.74-55-18.83-67.1-71.91a18,18,0,0,1,35.14-8c7.53,33,43.05,45.62,43.41,45.75a18,18,0,0,1-5.79,35.09Z" transform="translate(-99.7 -66)"/><path class="cls-1" d="M620.92,282.26H227a18,18,0,0,1,0-36H598.07c-8.63-43.78-17.33-136.92,53-175.7a18,18,0,0,1,17.4,31.56c-66,36.37-30.69,155.71-30.33,156.92l7.05,23.24Z" transform="translate(-99.7 -66)"/></svg>