<svg id="Capa_1" data-name="Capa 1" xmlns="http://www.w3.org/2000/svg" viewBox="0 0 645.23 906.98"><defs><style>.cls-1{fill:#992f87;}</style></defs><path class="cls-1" d="M838.24,993H371.75L229.53,850V122.54A36.57,36.57,0,0,1,266.06,86H838.24a36.57,36.57,0,0,1,36.53,36.52V956.48A36.57,36.57,0,0,1,838.24,993Zm-451.3-36.52H838.27l0-833.94H266.06V835Z" transform="translate(-229.53 -86.02)"/><path class="cls-1" d="M393.88,956.48H357.36v-97.4H260V822.56H361.26a32.66,32.66,0,0,1,32.62,32.63Z" transform="translate(-229.53 -86.02)"/><path class="cls-1" d="M753,329.51H454.76a18.27,18.27,0,1,1,0-36.53H753a18.27,18.27,0,0,1,0,36.53Z" transform="translate(-229.53 -86.02)"/><path class="cls-1" d="M753,414.73H454.76a18.27,18.27,0,1,1,0-36.53H753a18.27,18.27,0,0,1,0,36.53Z" transform="translate(-229.53 -86.02)"/><path class="cls-1" d="M753,499.94H454.76a18.26,18.26,0,1,1,0-36.52H753a18.26,18.26,0,0,1,0,36.52Z" transform="translate(-229.53 -86.02)"/><path class="cls-1" d="M753,591.25H454.76a18.26,18.26,0,1,1,0-36.52H753a18.26,18.26,0,0,1,0,36.52Z" transform="translate(-229.53 -86.02)"/><path class="cls-1" d="M753,676.47H454.76a18.26,18.26,0,1,1,0-36.52H753a18.26,18.26,0,0,1,0,36.52Z" transform="translate(-229.53 -86.02)"/><path class="cls-1" d="M753,761.69H454.76a18.26,18.26,0,1,1,0-36.52H753a18.26,18.26,0,1,1,0,36.52Z" transform="translate(-229.53 -86.02)"/><path class="cls-1" d="M393.88,329.51H357.36a18.27,18.27,0,0,1,0-36.53h36.52a18.27,18.27,0,1,1,0,36.53Z" transform="translate(-229.53 -86.02)"/><path class="cls-1" d="M393.88,414.73H357.36a18.27,18.27,0,0,1,0-36.53h36.52a18.27,18.27,0,1,1,0,36.53Z" transform="translate(-229.53 -86.02)"/><path class="cls-1" d="M393.88,499.94H357.36a18.26,18.26,0,0,1,0-36.52h36.52a18.26,18.26,0,1,1,0,36.52Z" transform="translate(-229.53 -86.02)"/><path class="cls-1" d="M393.88,591.25H357.36a18.26,18.26,0,0,1,0-36.52h36.52a18.26,18.26,0,1,1,0,36.52Z" transform="translate(-229.53 -86.02)"/><path class="cls-1" d="M393.88,676.47H357.36a18.26,18.26,0,0,1,0-36.52h36.52a18.26,18.26,0,1,1,0,36.52Z" transform="translate(-229.53 -86.02)"/><path class="cls-1" d="M393.88,761.69H357.36a18.26,18.26,0,1,1,0-36.52h36.52a18.26,18.26,0,1,1,0,36.52Z" transform="translate(-229.53 -86.02)"/></svg>