<?xml version="1.0" encoding="utf-8"?>
<!-- Generator: Adobe Illustrator 16.0.0, SVG Export Plug-In . SVG Version: 6.00 Build 0)  -->
<!DOCTYPE svg PUBLIC "-//W3C//DTD SVG 1.1//EN" "http://www.w3.org/Graphics/SVG/1.1/DTD/svg11.dtd">
<svg version="1.1" id="Capa_1" xmlns="http://www.w3.org/2000/svg" xmlns:xlink="http://www.w3.org/1999/xlink" x="0px" y="0px"
	 width="33.611px" height="35.138px" viewBox="0 0 33.611 35.138" enable-background="new 0 0 33.611 35.138" xml:space="preserve">
<g>
	<path fill-rule="evenodd" clip-rule="evenodd" fill="#757575" d="M27.249,11.252c1.282-0.008,2.397,0.705,2.974,1.76
		c0.019-0.031,0.036-0.062,0.055-0.091c0.285-0.495,0.571-0.989,0.857-1.483c-0.328-0.39-0.722-0.746-1.173-1.067
		c0.369-0.586,0.75-1.113,1.046-1.686C31.3,8.12,31.503,7.509,31.745,6.92c-2.571,2.179-5.528,3.023-8.765,3.024
		c-3.24,0.004-6.198-0.859-8.756-3.167c0.369,1.444,1.016,2.573,1.849,3.602c-0.445,0.329-0.816,0.684-1.121,1.057
		c0.143,0.248,0.287,0.495,0.43,0.744c0.16,0.277,0.319,0.554,0.48,0.83c0.577-1.057,1.694-1.77,2.976-1.758
		c1.863,0.018,3.352,1.518,3.355,3.383c0.002,1.4-0.832,2.595-2.031,3.116c0.004,0.005,0.005,0.01,0.008,0.016
		c0.211,0.354,0.42,0.706,0.63,1.058c0.07,0.117,0.14,0.236,0.208,0.353c0.771-0.38,1.45-0.974,2.039-1.755
		c0.594,0.805,1.298,1.377,2.049,1.741c0.054-0.088,0.105-0.177,0.156-0.265c0.226-0.383,0.452-0.763,0.681-1.141
		c-1.204-0.519-2.045-1.724-2.042-3.126C23.896,12.766,25.387,11.267,27.249,11.252z"/>
	<path fill-rule="evenodd" clip-rule="evenodd" fill="#757575" d="M23.043,22.426c-0.533-0.906-1.006-1.707-1.494-2.535
		c0.488-0.525,0.963-1.039,1.494-1.611c0.502,0.542,0.984,1.061,1.493,1.611C24.049,20.717,23.572,21.526,23.043,22.426z"/>
	<path fill-rule="evenodd" clip-rule="evenodd" fill="#757575" d="M27.805,13.303c-0.167,0.725,0.01,0.9,0.818,0.844
		c0.224,0.756,0.001,1.395-0.613,1.762c-0.585,0.349-1.352,0.235-1.821-0.272c-0.455-0.489-0.519-1.225-0.156-1.791
		C26.409,13.261,27.069,13.049,27.805,13.303z"/>
	<path fill-rule="evenodd" clip-rule="evenodd" fill="#757575" d="M17.448,14.126c0.804,0.096,0.983-0.086,0.849-0.82
		c0.658-0.256,1.314-0.074,1.711,0.474c0.402,0.558,0.361,1.329-0.097,1.838c-0.446,0.499-1.181,0.636-1.769,0.329
		C17.498,15.612,17.242,14.963,17.448,14.126z"/>
</g>
<g>
	<path fill-rule="evenodd" clip-rule="evenodd" fill="#757575" d="M17.142,7.604c0.206-0.083,0.428-0.088,0.642-0.125
		c0.438-0.076,0.879-0.131,1.32-0.198c0.575-0.088,1.151-0.178,1.727-0.27c0.551-0.088,1.101-0.179,1.65-0.267
		c0.609-0.098,1.223-0.193,1.834-0.291c0.362-0.059,0.725-0.124,1.087-0.185c0.115,0.309,0.157,0.637,0.232,0.955
		c0.077,0.324,0.129,0.656,0.206,0.981c0.028,0.114-0.012,0.134-0.107,0.153c-0.859,0.166-1.728,0.261-2.602,0.308
		c-2.055,0.11-4.024-0.244-5.922-1.028C17.185,7.628,17.165,7.614,17.142,7.604z"/>
	<g>
		<g>
			<path fill="#757575" d="M23.576,2.096c0.248,0,0.496,0,0.743,0c0.168,0.139,0.265,0.316,0.313,0.529
				c0.263,1.105,0.485,2.217,0.697,3.331c-0.334,0.09-0.68,0.098-1.016,0.156c-0.672,0.115-1.346,0.217-2.018,0.321
				c-0.508,0.08-1.013,0.157-1.518,0.237c-0.623,0.097-1.245,0.198-1.867,0.294c-0.516,0.079-1.033,0.149-1.548,0.234
				c-0.261,0.043-0.528,0.057-0.777,0.158c-0.043-0.017-0.088-0.029-0.129-0.048c-1.069-0.509-2.073-1.125-3.011-1.849
				c-0.048-0.039-0.096-0.078-0.148-0.11c-0.014-0.007-0.065-0.061-0.058,0.044c0.021,0.31,0.087,0.61,0.103,0.923
				c0.023,0.505,0.167,1,0.277,1.495c-0.108-0.011-0.213,0.024-0.319,0.033c-0.43,0.034-0.854,0.105-1.279,0.171
				c-0.636,0.102-1.271,0.215-1.906,0.323C9.41,8.458,8.704,8.582,7.996,8.695c-0.646,0.103-1.294,0.2-1.942,0.293
				c-0.361,0.052-0.72,0.105-1.059,0.253C4.953,9.261,4.883,9.269,4.89,9.334c0.005,0.064,0.067,0.091,0.121,0.105
				C5.138,9.47,5.269,9.465,5.394,9.444c0.481-0.074,0.959-0.16,1.438-0.237c0.581-0.095,1.164-0.186,1.744-0.278
				c0.581-0.093,1.16-0.193,1.743-0.277c0.694-0.102,1.385-0.218,2.076-0.33c0.439-0.072,0.876-0.156,1.319-0.199
				c0.012,0.022,0.024,0.044,0.033,0.068c0.213,0.634,0.512,1.222,0.964,1.721c0.091,0.098,0.073,0.137-0.015,0.221
				c-1.611,1.551-2.256,3.436-1.841,5.632c0.67,3.542,4.333,5.764,7.919,4.555c0.117-0.04,0.164-0.025,0.225,0.078
				c0.572,0.943,1.152,1.886,1.729,2.827c0.078,0.128,0.159,0.255,0.243,0.392c0.696-1.111,1.382-2.202,2.062-3.299
				c0.063-0.1,0.115-0.119,0.23-0.082c1.029,0.336,2.074,0.391,3.135,0.171c0.082-0.017,0.111-0.011,0.13,0.085
				c0.26,1.278,0.48,2.565,0.851,3.818c0.031,0.107,0.014,0.22-0.056,0.323c-0.128,0.187-0.33,0.185-0.521,0.222
				c-0.08-0.016-0.163-0.014-0.246,0c-1.354,0.215-2.708,0.431-4.064,0.647c-1.562,0.247-3.125,0.495-4.688,0.739
				c-1.528,0.24-3.058,0.478-4.585,0.713c-1.132,0.174-2.266,0.346-3.399,0.513c-1.469,0.219-2.939,0.43-4.408,0.644
				c-0.05-0.52-0.107-1.037-0.181-1.557c-0.1-0.699-0.225-1.394-0.363-2.086c-0.103-0.522-0.225-1.041-0.295-1.571
				c-0.05-0.392-0.095-0.784-0.153-1.173c-0.051-0.334-0.129-0.662-0.18-0.998c-0.11-0.697-0.234-1.392-0.366-2.087
				c-0.074-0.392-0.17-0.778-0.199-1.181c-0.026-0.351-0.055-0.706-0.132-1.05c-0.078-0.35-0.151-0.694-0.186-1.055
				c-0.077-0.789-0.261-1.564-0.402-2.346c-0.122-0.679-0.238-1.36-0.354-2.041C4.486,10.303,4.378,9.642,4.27,8.98
				C4.182,8.449,4.095,7.92,4.011,7.389c-0.084-0.52-0.156-1.043-0.246-1.562C3.703,5.467,3.621,5.114,3.548,4.758
				c0.043-0.036,0.097-0.033,0.146-0.04c0.98-0.125,1.96-0.251,2.938-0.376c1.107-0.141,2.214-0.282,3.32-0.424
				c1.067-0.136,2.133-0.275,3.198-0.413c1.003-0.129,2.009-0.26,3.013-0.389c1.06-0.137,2.123-0.272,3.183-0.414
				c1.201-0.16,2.404-0.323,3.605-0.488C23.161,2.185,23.379,2.185,23.576,2.096z"/>
			<path fill-rule="evenodd" clip-rule="evenodd" fill="#757575" d="M27.777,29.318c0.077-0.009,0.152-0.019,0.229-0.024
				c0.11-0.007,0.224-0.014,0.271,0.119c0.05,0.141,0.052,0.273-0.061,0.389c-0.082,0.085-0.19,0.122-0.304,0.139
				c-1.031,0.158-2.064,0.312-3.095,0.468c-1.217,0.184-2.433,0.364-3.648,0.546c-1.139,0.17-2.277,0.339-3.417,0.508
				c-1.166,0.172-2.331,0.342-3.496,0.512c-1.178,0.17-2.353,0.339-3.529,0.507c-0.967,0.14-1.935,0.276-2.901,0.419
				c-0.275,0.04-0.555,0.042-0.818,0.138c-0.257,0-0.515,0-0.773,0c-0.463-0.216-0.642-0.611-0.717-1.09
				c-0.092-0.594-0.209-1.184-0.314-1.776c-0.28-1.59-0.496-3.189-0.729-4.788c-0.122-0.85-0.222-1.703-0.363-2.551
				c-0.271-1.652-0.542-3.308-0.744-4.971c-0.189-1.549-0.457-3.083-0.674-4.627c-0.121-0.849-0.318-1.688-0.359-2.549
				c-0.004-0.062-0.004-0.132-0.057-0.182c0-0.711,0-1.421,0-2.132c0.036-0.017,0.027-0.052,0.029-0.079
				c0.032-0.576,0.103-1.146,0.188-1.716c0.084-0.559,0.25-1.087,0.565-1.562c0.115-0.173,0.261-0.29,0.486-0.256
				c0.073,0.356,0.155,0.709,0.217,1.069c0.09,0.519,0.162,1.042,0.246,1.562C4.095,7.92,4.182,8.449,4.27,8.98
				c0.108,0.662,0.217,1.323,0.331,1.985c0.115,0.681,0.231,1.362,0.354,2.041c0.142,0.782,0.325,1.558,0.402,2.346
				c0.035,0.361,0.108,0.705,0.186,1.055c0.077,0.344,0.106,0.7,0.132,1.05c0.029,0.402,0.125,0.789,0.199,1.181
				c0.132,0.696,0.256,1.39,0.366,2.087c0.051,0.336,0.129,0.664,0.18,0.998c0.058,0.389,0.103,0.781,0.153,1.173
				c0.071,0.53,0.193,1.049,0.295,1.571c0.138,0.692,0.263,1.387,0.363,2.086c0.074,0.52,0.131,1.037,0.181,1.557
				c-0.167,0.146-0.296,0.327-0.466,0.472c-0.273,0.23-0.475,0.514-0.552,0.871c-0.039,0.186-0.074,0.373-0.115,0.559
				c-0.146,0.669-0.194,1.339-0.075,2.02c0.075,0.439,0.165,0.545,0.605,0.507c0.453-0.04,0.903-0.122,1.356-0.192
				c0.892-0.137,1.784-0.282,2.675-0.421c0.827-0.129,1.655-0.253,2.482-0.383c0.739-0.117,1.478-0.239,2.219-0.358
				c0.861-0.139,1.722-0.278,2.584-0.416c0.699-0.109,1.398-0.22,2.099-0.324c0.878-0.131,1.759-0.253,2.637-0.383
				c0.644-0.095,1.288-0.2,1.934-0.297C25.787,29.614,26.781,29.466,27.777,29.318z"/>
		</g>
		<path fill="#757575" d="M14.166,29.528h0.007c0.013-0.002,0.021-0.004,0.031-0.005c-0.007,0.001-0.012,0.003-0.021,0.007
			c0.007-0.002,0.013,0,0.018,0c0.375,0.007,0.748,0.049,1.121,0.103c0.13,0.014,0.261,0.026,0.394,0.04
			c0.13,0.014,0.263,0.028,0.393,0.043l-0.216-1.693l-3.68,0.565l0.217,1.691c0.121-0.052,0.24-0.104,0.361-0.156
			c0.338-0.146,0.676-0.292,1.017-0.434c0.068-0.029,0.245-0.129,0.364-0.159C14.169,29.528,14.167,29.528,14.166,29.528z"/>
	</g>
</g>
</svg>
