<?xml version="1.0" encoding="utf-8"?>
<!-- Generator: Adobe Illustrator 16.0.0, SVG Export Plug-In . SVG Version: 6.00 Build 0)  -->
<!DOCTYPE svg PUBLIC "-//W3C//DTD SVG 1.1//EN" "http://www.w3.org/Graphics/SVG/1.1/DTD/svg11.dtd">
<svg version="1.1" id="Capa_1" xmlns="http://www.w3.org/2000/svg" xmlns:xlink="http://www.w3.org/1999/xlink" x="0px" y="0px"
	 width="34.64px" height="39.159px" viewBox="0 0 34.64 39.159" enable-background="new 0 0 34.64 39.159" xml:space="preserve">
<g>
	<path fill-rule="evenodd" clip-rule="evenodd" fill="#FEFEFE" d="M12.675,10.032c-0.033,0.032-0.065,0.064-0.097,0.097
		C12.56,10.045,12.591,10.013,12.675,10.032z"/>
	<path fill-rule="evenodd" clip-rule="evenodd" fill="#FEFEFE" d="M12.578,31.25c0.032,0.032,0.063,0.063,0.097,0.096
		C12.591,31.365,12.56,31.333,12.578,31.25z"/>
	<g>
		<path fill-rule="evenodd" clip-rule="evenodd" fill="#757575" d="M32.726,19.981c-0.25,0.653-0.496,1.309-0.752,1.96
			c-0.807,2.049-1.617,4.096-2.426,6.146c-0.145,0.364-0.287,0.73-0.434,1.095c-0.266,0.662-0.98,1.13-1.693,1.117
			c-0.416-0.009-0.832-0.012-1.249-0.012c-4.609-0.003-9.218-0.004-13.828-0.005c-3.017-0.001-6.034,0.004-9.05,0.004
			c-0.102,0-0.208-0.006-0.309-0.03c-0.125-0.029-0.198-0.119-0.183-0.245c0.021-0.167,0.047-0.339,0.108-0.493
			c0.803-2.038,1.612-4.074,2.418-6.111c0.354-0.891,0.708-1.782,1.06-2.673c0.208-0.523,0.546-0.912,1.109-1.057
			c0.159-0.041,0.327-0.063,0.491-0.063c8.066-0.003,16.132-0.003,24.197-0.003c0.053,0,0.107,0.003,0.164,0.006
			c0.172,0.01,0.311,0.073,0.375,0.249C32.726,19.904,32.726,19.942,32.726,19.981z M9.77,28.725c0.872,0,1.743,0.001,2.615-0.001
			c0.304,0,0.609-0.012,0.913-0.007c0.264,0.005,0.492-0.155,0.496-0.528c0.002-0.317,0.005-0.633,0.004-0.949
			c-0.002-0.353-0.138-0.516-0.484-0.579c-0.063-0.01-0.13-0.016-0.195-0.016c-0.501,0-1.003,0.003-1.504,0.003
			c-1.669,0-3.339,0-5.01,0.001c-0.115,0-0.231,0.008-0.345,0.02c-0.363,0.037-0.502,0.177-0.515,0.54
			c-0.011,0.351-0.01,0.701-0.006,1.051c0.002,0.234,0.118,0.377,0.345,0.431c0.107,0.026,0.221,0.039,0.332,0.041
			c0.278,0.004,0.555-0.005,0.833-0.006C8.088,28.724,8.929,28.725,9.77,28.725z M20.358,26.642
			c-0.571,0.001-1.054,0.485-1.051,1.055c0.003,0.568,0.488,1.038,1.067,1.037c0.558-0.003,1.031-0.483,1.033-1.047
			C21.407,27.121,20.925,26.64,20.358,26.642z M24.539,27.694c0-0.588-0.454-1.05-1.035-1.05c-0.578,0-1.055,0.466-1.056,1.035
			c-0.001,0.57,0.481,1.053,1.055,1.054C24.071,28.733,24.539,28.265,24.539,27.694z M25.589,27.685
			c0,0.562,0.485,1.046,1.049,1.049c0.574,0.001,1.043-0.467,1.043-1.042s-0.461-1.046-1.027-1.047
			C26.076,26.644,25.589,27.116,25.589,27.685z"/>
		<path fill-rule="evenodd" clip-rule="evenodd" fill="#757575" d="M25.227,2.019c0.023,0.01,0.046,0.022,0.071,0.029
			c0.335,0.082,0.494,0.282,0.5,0.627c0.003,0.243,0.005,0.486,0.005,0.729c0,4.968,0,9.936,0,14.903c0,0.246,0,0.246-0.238,0.246
			c-5.365,0-10.73,0-16.095,0c-0.18,0-0.18,0-0.188-0.178C9.28,18.328,9.28,18.282,9.28,18.236c0-4.926,0-9.852,0-14.776
			c0-0.235,0.003-0.471,0-0.706C9.275,2.427,9.403,2.121,9.785,2.041C9.794,2.038,9.802,2.025,9.81,2.019
			C14.949,2.019,20.087,2.019,25.227,2.019z M12.031,7.384c3.667,0,7.328,0,10.992,0c0-0.449,0-0.89,0-1.33
			c-3.669,0-7.331,0-10.992,0C12.031,6.501,12.031,6.939,12.031,7.384z M22.883,11.606c-3.623,0-7.234,0-10.849,0
			c0,0.448,0,0.888,0,1.328c3.621,0,7.233,0,10.849,0C22.883,12.488,22.883,12.054,22.883,11.606z M12.031,15.61
			c2.209,0,4.411,0,6.614,0c0-0.445,0-0.88,0-1.319c-2.209,0-4.412,0-6.614,0C12.031,14.736,12.031,15.171,12.031,15.61z
			 M17.511,8.816c-1.829,0-3.651,0-5.476,0c0,0.447,0,0.888,0,1.328c1.829,0,3.649,0,5.476,0
			C17.511,9.699,17.511,9.262,17.511,8.816z M18.636,10.143c1.475,0,2.93,0,4.387,0c0-0.446,0-0.883,0-1.335
			c-0.046,0-0.087,0-0.129,0c-0.335,0-0.67,0-1.006,0c-1.029,0-2.059,0-3.087,0c-0.165,0-0.165,0-0.165,0.16
			c0,0.347,0,0.694,0,1.041C18.636,10.049,18.636,10.09,18.636,10.143z M23.319,10.707c-0.007,0-0.013,0-0.019-0.002
			c0,0.127,0,0.253,0,0.38c0.015,0,0.029-0.002,0.042-0.003C23.335,10.957,23.328,10.832,23.319,10.707z"/>
		<path fill-rule="evenodd" clip-rule="evenodd" fill="#757575" d="M2.357,11.439c0.015-0.039,0.035-0.076,0.044-0.116
			c0.146-0.688,0.696-1.149,1.396-1.153c1.432-0.005,2.862-0.003,4.294-0.004c0.049,0,0.098,0.005,0.161,0.008
			c0,2.811,0,5.614,0,8.434c-0.129,0-0.259-0.007-0.387,0.002c-1.089,0.07-1.887,0.581-2.316,1.598
			c-0.346,0.815-0.664,1.642-0.99,2.464c-0.697,1.75-1.39,3.5-2.088,5.25c-0.021,0.053-0.074,0.093-0.112,0.137
			C2.357,22.519,2.357,16.979,2.357,11.439z"/>
		<path fill-rule="evenodd" clip-rule="evenodd" fill="#757575" d="M14.952,31.247c0.357,0,0.696,0,1.035,0
			c0.166,0,0.333,0.005,0.497-0.002c0.097-0.004,0.127,0.03,0.126,0.125c-0.007,0.443-0.01,0.887-0.01,1.329
			c-0.001,0.24-0.006,0.479,0.012,0.718c0.011,0.132,0.046,0.268,0.103,0.386c0.208,0.426,0.532,0.746,0.96,0.95
			c0.125,0.06,0.272,0.101,0.41,0.102c1.399,0.006,2.8,0.003,4.2,0.004c0.219,0,0.439-0.008,0.659,0.007
			c0.249,0.019,0.391,0.162,0.401,0.41c0.012,0.27,0.009,0.54,0,0.811c-0.012,0.248-0.158,0.402-0.409,0.42
			c-0.237,0.017-0.476,0.008-0.715,0.008c-1.185,0-2.369,0-3.552,0.002c-0.192,0-0.386,0.011-0.579,0.011
			c-0.317-0.001-0.572,0.123-0.781,0.358c-0.297,0.334-0.652,0.582-1.092,0.682c-0.75,0.17-1.394-0.048-1.912-0.599
			c-0.285-0.302-0.602-0.446-1.018-0.442c-1.037,0.004-2.075-0.012-3.112-0.017c-0.464-0.003-0.926,0.001-1.388-0.001
			c-0.104-0.001-0.209-0.009-0.312-0.022c-0.136-0.017-0.222-0.082-0.229-0.218c-0.02-0.345-0.037-0.691-0.026-1.037
			c0.007-0.211,0.155-0.345,0.369-0.362c0.246-0.02,0.493-0.02,0.74-0.019c0.258,0.001,0.516,0.016,0.773,0.016
			c0.899-0.001,1.799-0.004,2.698-0.008c0.192-0.001,0.386,0.001,0.576-0.018c0.139-0.014,0.289-0.032,0.411-0.095
			c0.282-0.139,0.566-0.285,0.787-0.52c0.325-0.341,0.408-0.769,0.404-1.22c-0.004-0.542-0.018-1.086-0.026-1.63
			C14.951,31.338,14.952,31.3,14.952,31.247z"/>
		<path fill-rule="evenodd" clip-rule="evenodd" fill="#757575" d="M26.835,14.039c0.197-0.051,0.395-0.043,0.588,0.015
			c0.627,0.189,1.086,0.719,1.076,1.429c-0.01,0.987,0.004,1.973,0.008,2.96c0,0.045,0,0.09,0,0.141c-0.564,0-1.113,0-1.672,0
			C26.835,17.07,26.835,15.559,26.835,14.039z"/>
		<path fill-rule="evenodd" clip-rule="evenodd" fill="#757575" d="M23.319,10.707c0.009,0.125,0.016,0.25,0.023,0.375
			c-0.014,0.001-0.028,0.002-0.042,0.003c0-0.126,0-0.253,0-0.38C23.307,10.707,23.312,10.707,23.319,10.707z"/>
	</g>
	<rect x="11.94" y="4.162" fill-rule="evenodd" clip-rule="evenodd" fill="#757575" width="13.502" height="13.117"/>
</g>
</svg>
